<svg width="54" height="54" viewBox="0 0 54 54" fill="none" xmlns="http://www.w3.org/2000/svg">
<g clip-path="url(#clip0_290_1828)">
<path d="M37.125 20.8574C37.125 23.493 36.0583 26.0207 34.1595 27.8843C32.2607 29.7479 29.6853 30.7949 27 30.7949C24.3147 30.7949 21.7393 29.7479 19.8405 27.8843C17.9417 26.0207 16.875 23.493 16.875 20.8574C16.875 18.2218 17.9417 15.6942 19.8405 13.8305C21.7393 11.9669 24.3147 10.9199 27 10.9199C29.6853 10.9199 32.2607 11.9669 34.1595 13.8305C36.0583 15.6942 37.125 18.2218 37.125 20.8574Z" fill="black"/>
<path fill-rule="evenodd" clip-rule="evenodd" d="M0 27.4824C0 20.4542 2.84464 13.7138 7.90812 8.74409C12.9716 3.77438 19.8392 0.982422 27 0.982422C34.1608 0.982422 41.0284 3.77438 46.0919 8.74409C51.1554 13.7138 54 20.4542 54 27.4824C54 34.5107 51.1554 41.251 46.0919 46.2208C41.0284 51.1905 34.1608 53.9824 27 53.9824C19.8392 53.9824 12.9716 51.1905 7.90812 46.2208C2.84464 41.251 0 34.5107 0 27.4824ZM27 4.29492C22.551 4.29515 18.1925 5.52837 14.4261 7.85264C10.6597 10.1769 7.63858 13.4977 5.71038 17.4329C3.78218 21.3681 3.0253 25.7577 3.52687 30.0965C4.02844 34.4353 5.76805 38.5469 8.5455 41.958C10.9418 38.1685 16.2169 34.1074 27 34.1074C37.7831 34.1074 43.0549 38.1652 45.4545 41.958C48.2319 38.5469 49.9716 34.4353 50.4731 30.0965C50.9747 25.7577 50.2178 21.3681 48.2896 17.4329C46.3614 13.4977 43.3403 10.1769 39.5739 7.85264C35.8075 5.52837 31.449 4.29515 27 4.29492Z" fill="black"/>
</g>
<defs>
<clipPath id="clip0_290_1828">
<rect width="54" height="53" fill="white" transform="translate(0 0.982422)"/>
</clipPath>
</defs>
</svg>
