<svg width="62" height="62" viewBox="0 0 62 62" fill="none" xmlns="http://www.w3.org/2000/svg">
<path d="M31 5.16663C28.4453 5.16663 25.948 5.92418 23.8239 7.34348C21.6997 8.76278 20.0442 10.7801 19.0666 13.1403C18.0889 15.5005 17.8331 18.0976 18.3315 20.6032C18.8299 23.1088 20.0601 25.4103 21.8665 27.2168C23.673 29.0232 25.9745 30.2534 28.4801 30.7518C30.9857 31.2502 33.5828 30.9944 35.943 30.0167C38.3032 29.0391 40.3205 27.3835 41.7398 25.2594C43.1591 23.1353 43.9167 20.638 43.9167 18.0833C43.9167 14.6576 42.5558 11.3722 40.1335 8.94983C37.7111 6.52749 34.4257 5.16663 31 5.16663ZM31 25.8333C29.4672 25.8333 27.9688 25.3788 26.6943 24.5272C25.4198 23.6756 24.4265 22.4652 23.8399 21.0491C23.2534 19.633 23.0999 18.0747 23.3989 16.5713C23.6979 15.068 24.4361 13.6871 25.5199 12.6032C26.6038 11.5194 27.9847 10.7812 29.4881 10.4822C30.9914 10.1832 32.5497 10.3366 33.9658 10.9232C35.3819 11.5098 36.5923 12.5031 37.4439 13.7776C38.2955 15.0521 38.75 16.5505 38.75 18.0833C38.75 20.1387 37.9335 22.11 36.4801 23.5634C35.0267 25.0168 33.0554 25.8333 31 25.8333ZM54.25 54.25V51.6666C54.25 46.8706 52.3448 42.2711 48.9535 38.8798C45.5622 35.4885 40.9627 33.5833 36.1667 33.5833H25.8333C21.0373 33.5833 16.4378 35.4885 13.0465 38.8798C9.6552 42.2711 7.75 46.8706 7.75 51.6666V54.25H12.9167V51.6666C12.9167 48.2409 14.2775 44.9555 16.6999 42.5332C19.1222 40.1108 22.4076 38.75 25.8333 38.75H36.1667C39.5924 38.75 42.8778 40.1108 45.3001 42.5332C47.7225 44.9555 49.0833 48.2409 49.0833 51.6666V54.25H54.25Z" fill="black"/>
</svg>
