<svg width="54" height="53" viewBox="0 0 54 53" fill="none" xmlns="http://www.w3.org/2000/svg">
<path d="M33.6248 24.2915H49.0832V28.7082H33.6248V24.2915ZM35.8332 33.1248H49.0832V37.5415H35.8332V33.1248ZM31.4165 15.4582H49.0832V19.8748H31.4165V15.4582ZM9.33317 41.9582H31.4165V39.7498C31.4165 33.6615 26.4632 28.7082 20.3748 28.7082H15.9582C9.8698 28.7082 4.9165 33.6615 4.9165 39.7498V41.9582H9.33317ZM18.1665 26.4998C22.5721 26.4998 25.8957 23.1763 25.8957 18.7707C25.8957 14.365 22.5721 11.0415 18.1665 11.0415C13.7609 11.0415 10.4373 14.365 10.4373 18.7707C10.4373 23.1763 13.7609 26.4998 18.1665 26.4998Z" fill="black"/>
</svg>
