<svg width="53" height="53" viewBox="0 0 53 53" fill="none" xmlns="http://www.w3.org/2000/svg">
<path d="M41.4062 16.5625L44.0447 21.5312L49.6875 22.2169L45.5469 25.9485L46.375 31.4688L41.4062 28.3633L36.4375 31.4688L37.2656 25.9485L33.125 22.2169L38.9219 21.5312L41.4062 16.5625ZM36.4375 49.6875H33.125V41.4062C33.1224 39.2107 32.249 37.1059 30.6966 35.5534C29.1441 34.001 27.0393 33.1276 24.8438 33.125H14.9062C12.7107 33.1276 10.6059 34.001 9.05343 35.5534C7.50096 37.1059 6.62763 39.2107 6.625 41.4062V49.6875H3.3125V41.4062C3.31601 38.3325 4.53861 35.3856 6.7121 33.2121C8.88559 31.0386 11.8325 29.816 14.9062 29.8125H24.8438C27.9175 29.816 30.8644 31.0386 33.0379 33.2121C35.2114 35.3856 36.434 38.3325 36.4375 41.4062V49.6875ZM19.875 6.625C21.5129 6.625 23.114 7.11069 24.4758 8.02064C25.8377 8.9306 26.8991 10.224 27.5259 11.7372C28.1527 13.2504 28.3167 14.9154 27.9971 16.5218C27.6776 18.1282 26.8889 19.6038 25.7307 20.762C24.5726 21.9201 23.097 22.7088 21.4906 23.0284C19.8842 23.3479 18.2191 23.1839 16.7059 22.5571C15.1927 21.9303 13.8993 20.8689 12.9894 19.5071C12.0794 18.1452 11.5938 16.5441 11.5938 14.9062C11.5938 12.7099 12.4662 10.6036 14.0193 9.05052C15.5723 7.49749 17.6787 6.625 19.875 6.625ZM19.875 3.3125C17.582 3.3125 15.3404 3.99246 13.4339 5.2664C11.5273 6.54034 10.0413 8.35103 9.16377 10.4695C8.28627 12.588 8.05667 14.9191 8.50402 17.1681C8.95137 19.417 10.0556 21.4829 11.677 23.1043C13.2984 24.7257 15.3642 25.8299 17.6132 26.2772C19.8621 26.7246 22.1933 26.495 24.3117 25.6175C26.4302 24.74 28.2409 23.254 29.5149 21.3474C30.7888 19.4408 31.4688 17.1993 31.4688 14.9062C31.4688 11.8314 30.2473 8.88248 28.073 6.70823C25.8988 4.53398 22.9499 3.3125 19.875 3.3125Z" fill="black"/>
</svg>
