<svg width="44" height="40" viewBox="0 0 44 40" fill="none" xmlns="http://www.w3.org/2000/svg">
<path d="M33 36.6667H11C10.0276 36.6667 9.09495 36.3155 8.40732 35.6904C7.71968 35.0653 7.33337 34.2174 7.33337 33.3334V6.66671C7.33337 5.78265 7.71968 4.93481 8.40732 4.30969C9.09495 3.68457 10.0276 3.33338 11 3.33338H23.8334C23.8498 3.33142 23.8664 3.33142 23.8829 3.33338H23.8939C23.9112 3.3383 23.929 3.34164 23.947 3.34338C24.1084 3.35338 24.2679 3.38171 24.4219 3.42838H24.4989C24.5327 3.44991 24.5646 3.47387 24.5942 3.50004C24.7939 3.58078 24.9759 3.69371 25.1314 3.83338L36.1314 13.8334C36.285 13.9747 36.4093 14.1401 36.498 14.3217C36.514 14.3577 36.5281 14.3945 36.5402 14.4317L36.5585 14.4784C36.6099 14.6167 36.6392 14.7617 36.6484 14.9084C36.65 14.925 36.6543 14.9413 36.6612 14.9567V14.9667C36.6641 14.9776 36.666 14.9888 36.6667 15V33.3334C36.6667 34.2174 36.2804 35.0653 35.5928 35.6904C34.9051 36.3155 33.9725 36.6667 33 36.6667ZM26.444 23.3334V31.6667H28.1674V28.2667H30.844V26.87H28.1674V24.735H31.1667V23.3334H26.444ZM19.6607 23.3334V31.6667H21.8717C22.3296 31.6873 22.7868 31.6141 23.2095 31.4526C23.6322 31.291 24.0095 31.0452 24.3137 30.7334C24.946 29.9999 25.2628 29.0821 25.2047 28.1517V26.8017C25.2474 25.8811 24.9217 24.9776 24.288 24.2584C23.6922 23.6417 22.8214 23.3017 21.9175 23.3334H19.6607ZM12.8334 23.3334V31.6667H14.5567V28.735H15.7044C16.4707 28.7734 17.2187 28.515 17.765 28.025C18.2855 27.4955 18.5556 26.8009 18.5167 26.0917C18.5507 25.3654 18.2808 24.6544 17.7614 24.1017C17.5076 23.8459 17.1947 23.6443 16.845 23.5115C16.4954 23.3786 16.1178 23.3178 15.7392 23.3334H12.8334ZM23.8334 6.66671V15H33L23.8334 6.66671ZM21.901 30.27H21.384V24.735H22.011C22.2302 24.7233 22.449 24.7617 22.6476 24.8467C22.8462 24.9317 23.0181 25.0607 23.1477 25.2217C23.4172 25.7267 23.5327 26.2884 23.4814 26.8484V28.2967C23.5217 28.83 23.3952 29.3634 23.1147 29.8317C22.9667 29.9888 22.7789 30.1108 22.5674 30.1871C22.356 30.2635 22.1273 30.292 21.901 30.27ZM15.7392 27.3334H14.5549V24.735H15.7557C15.9032 24.7365 16.0478 24.772 16.1761 24.8381C16.3044 24.9043 16.412 24.999 16.489 25.1134C16.687 25.4117 16.7824 25.755 16.764 26.1034C16.787 26.4275 16.6924 26.7496 16.4945 27.02C16.4046 27.1226 16.2894 27.2045 16.1581 27.2589C16.0269 27.3134 15.8833 27.3389 15.7392 27.3334Z" fill="black"/>
</svg>
