<?xml version="1.0" encoding="utf-8"?>
<!-- Generator: Adobe Illustrator 24.0.2, SVG Export Plug-In . SVG Version: 6.00 Build 0)  -->
<svg version="1.1" id="Capa_1" focusable="false" xmlns="http://www.w3.org/2000/svg" xmlns:xlink="http://www.w3.org/1999/xlink"
	 x="0px" y="0px" viewBox="0 0 576 512" style="enable-background:new 0 0 576 512;" xml:space="preserve">
<style type="text/css">
	.st0{fill:#F0F0F0;}
</style>
<path class="st0" d="M575.8,218c-3.2-60.6-57.5-106-118.2-106h-9.4c-52.8,0-104.3-16.3-147.7-46.2C269.7,44.5,232.3,32,192,32
	C80.4,32-0.1,121.8,0,224c0,71,38.7,132.8,96,166v74c0,8.8,7.2,16,16,16h16c8.8,0,16-7.2,16-16v-54.3c15.4,4,31.4,6.3,48,6.3
	c5.4,0,10.7-0.7,16-1.2V464c0,8.8,7.2,16,16,16h16c8.8,0,16-7.2,16-16v-59.5c14.2-5.1,27.9-11.4,40.3-19.5
	c45.8-29.8,97.6-49.1,152.2-49.1H464c2.6,0,5-0.6,7.5-0.8L546,471.6c2.8,5.2,8.3,8.3,14,8.3c8.4,0,16-6.8,16-16
	C576,208,576.1,222.3,575.8,218L575.8,218z M96.3,390.2C96.3,390.2,96.3,390.2,96.3,390.2C96.3,390.3,96.3,390.3,96.3,390.2z
	 M464,288h-15.5c-60.5,0-120.5,19.1-178.4,56.8C246.9,360,219.9,368,192,368c-77.8,0-144.2-62.9-144-144c0.2-83.7,66.7-144,144-144
	c29.2,0,57.3,8.7,81.3,25.3c51.9,35.8,112.4,54.7,175,54.7h9.4c37,0,68.5,27.1,70.3,60.5C529.8,257.8,500.3,288,464,288L464,288z
	 M544,401.3l-39.9-73.1c15.1-5.8,28.7-14.6,39.9-26V401.3L544,401.3z M464,200c-13.3,0-24,10.7-24,24c0,13.3,10.8,24,24,24
	s24-10.8,24-24C488,210.7,477.2,200,464,200z"/>
</svg>
