<?xml version="1.0" encoding="utf-8"?>
<!-- Generator: Adobe Illustrator 24.0.2, SVG Export Plug-In . SVG Version: 6.00 Build 0)  -->
<svg version="1.1" id="Capa_1" xmlns="http://www.w3.org/2000/svg" xmlns:xlink="http://www.w3.org/1999/xlink" x="0px" y="0px"
	 viewBox="0 0 215.5 174" style="enable-background:new 0 0 215.5 174;" xml:space="preserve">
<style type="text/css">
	.st0{fill:#465AA1;}
	.st1{fill:#3B498A;}
	.st2{fill:#3B4A8C;}
	.st3{fill:#78BBD9;}
	.st4{fill:#9EC9C5;}
	.st5{fill:#77BBDA;}
	.st6{fill:#A0C9C4;}
	.st7{fill:#72B9DB;}
	.st8{fill:#A1CAC4;}
	.st9{fill:#333B74;}
	.st10{fill:#515B7D;}
</style>
<g>
	<path class="st0" d="M161.8,115.5c15.4,16.1,30.8,32.2,46.2,48.3c0.9,1,1.9,2,1.3,3.5c-0.7,1.5-2.1,1.3-3.4,1.3
		c-15,0-30.1,0-45.1,0.1c-2.2,0-3.7-0.9-5.1-2.4c-7.8-8.4-15.6-16.8-23.4-25.2c-1-1.6-1.6-3.9,0.6-4.4c9.8-2.5,13.7-11.6,20.3-17.6
		C155.7,116.7,157.4,113.1,161.8,115.5z"/>
	<path class="st0" d="M209.2,6.5c-0.2,0.8-0.1,1.9-0.5,2.4c-13.9,14.7-27.9,29.3-41.8,43.9c-1.9,0.3-3.4,3.9-5.6,1.2
		c-2.1-2.7-0.8-5.3,1.8-7.2c-7.2,1.3-20.2-12-22.5-23c5-6.3,10.7-11.9,16.6-17.5C174.4,5.6,191.8,5.1,209.2,6.5z"/>
	<path class="st1" d="M161.8,115.5c-2,0-4.2,0.1-5.4,1.9c-4.5,6.9-11.3,11.8-16.6,18c-1.5,1.7-1.8,4.3-5.4,2.3
		c-2.5-1.4-1.8,1.9-2.2,3.4c-7.7-8.1-15.4-16.2-23.2-24.2c-0.8-3.3,1.3-5.6,3.1-7.6c6.5-7.5,13.9-14.2,20.9-21.3
		c0.5-0.5,1.2-0.5,1.8-0.3C144.9,95.8,153.1,105.9,161.8,115.5z"/>
	<path class="st2" d="M140.5,23.7c3.4,5.7,7,11,11.9,15.6c7.1,6.8,6.8,7.1,15,3.8c0.8,2.2-1.1,2.6-2.3,3.4c-2.1,1.4-4.2,3.1-3.3,5.9
		c1.2,3.7,3.6-2.6,5.1,0.4c-7.2,8.3-14.6,16.4-22.6,23.9c-9.3-9.6-23.1-15.9-23.9-31.8C127.1,37.8,133.8,30.8,140.5,23.7z"/>
	<path class="st3" d="M134.8,87.5c-7.1,7.4-14.2,14.8-21.2,22.3c-1.9,2-4.3,3.9-4.6,7c-2.1-1-2.6,0.9-3.6,1.9
		c-14.1,15-28.2,29.9-42.3,44.9c-1.1,1.1-2.1,2.3-3.2,3.3c-2.6,2.6-6.3,2.9-8.4,0.9c-2.2-2.1,1.1-4.2,2.6-5.9
		c22-23.3,44-46.6,66.1-69.8c3-3.2,5.5-5.9,1.2-9.8c-1.5-3.7-3-7.4-3.2-11.4c0.4-0.9,1.3-1.5,2-0.9c5.8,4.4,12,8.4,14.5,15.8
		C134.8,86.4,134.8,87,134.8,87.5z"/>
	<path class="st4" d="M101.7,87.6c-3.2-7.1-9.4-11.7-14.4-17.1C69.2,50.8,50.5,31.5,32.1,12c-1.6-1.7-5.6-3.5-2.6-6.2
		c2.2-2,5.9-1.3,8.3,1.4c4.6,5.1,9.3,10.1,14,15.1c18.6,19.6,37.2,39.2,55.9,58.7c5.7,5.9,5.7,6.2-0.9,11.5
		C105.2,90.9,103.5,89.2,101.7,87.6z"/>
	<path class="st5" d="M87,90.2c-13.2,14.3-26.4,28.6-39.6,42.8c-10.1,10.8-20.4,21.5-30.6,32.3c-0.6,0.6-1.1,1.4-1.8,2
		c-2.6,2.6-6.3,2.6-8.4,0.7c-2.4-2.3,1.1-4.2,2.6-5.8c19-20.1,38-40.1,57-60.1c3.6-3.8,7.1-7.9,10.8-11.7c1.5-1.6,2.3-3.2,1.9-5.3
		c1.4-2.7,3.7-3.3,6-1.9C87.6,84.6,88.8,87.1,87,90.2z"/>
	<path class="st6" d="M87,90.2c-0.3-5.4-2.1-8.4-8-5.3C62.7,67.9,46.6,51,30.4,34c-7-7.4-14.1-14.7-21-22.2C8,10.3,4.3,8.8,7,6.1
		c2.2-2.1,5.4-1.6,7.8,0.7c4.7,4.7,9.4,9.4,14,14.2C43.9,36.9,59,52.9,74,68.8c4.5,4.8,8.9,9.8,13.5,14.6
		C90.1,86.1,90.5,88.2,87,90.2z"/>
	<path class="st7" d="M101.7,87.6c3.6-0.2,5.4,1.3,5.1,5c-16.1,17.3-32.2,34.6-48.3,51.9c-6.5,7-13,13.9-19.6,20.8
		c-1.2,1.3-2.5,2.8-4.1,3.2c-2,0.6-4.7,1.4-6.1-0.8c-1.4-2.1,0.8-3.6,2.1-5c20.8-22,41.5-44.1,62.5-66
		C96.2,93.7,99.5,91.1,101.7,87.6z"/>
	<path class="st8" d="M119,69.9c0.9,4.2,3.7,8,2.4,12.6C108.7,71.1,98,57.7,86,45.7C75.3,35,65.4,23.7,55.2,12.6
		c-1.7-1.9-6.1-3.9-3.4-6.7c2.6-2.6,6.6-1,9.3,2c9.1,9.9,18.3,19.8,27.6,29.6c6.4,6.8,12.5,13.8,19.7,19.6
		C113.7,60,117.7,63.8,119,69.9z"/>
	<path class="st9" d="M119,69.9c-3.5-4.2-7-8.4-10.6-12.6c4-4.1,7.9-8.2,11.9-12.4c2.8,14.4,16.8,20.6,23.9,31.8
		c-2.8,3.4-5.4,7-9.4,9.2C129.6,80.6,124.3,75.2,119,69.9z"/>
	<path class="st10" d="M209.2,6.5c-17.4-0.1-34.8-0.2-52.2-0.2c1-1.6,2.7-1.2,4.2-1.2c14.7,0,29.5,0,44.2,0
		C206.8,5.1,208.6,4.3,209.2,6.5z"/>
</g>
</svg>
