<?xml version="1.0" encoding="utf-8"?>
<!-- Generator: Adobe Illustrator 24.0.2, SVG Export Plug-In . SVG Version: 6.00 Build 0)  -->
<svg version="1.1" id="Capa_1" xmlns="http://www.w3.org/2000/svg" xmlns:xlink="http://www.w3.org/1999/xlink" x="0px" y="0px"
	 viewBox="0 0 512 512" style="enable-background:new 0 0 512 512;" xml:space="preserve">
<path d="M426.6,212.9L308.3,335.4V39c0-21.6-17.5-39-39.2-39h-26.1c-21.7,0-39.2,17.4-39.2,39v296.5L85.4,212.9
	c-15.2-15.7-40.5-16.1-56.1-0.6l-17.8,17.9c-15.4,15.3-15.4,39.9,0,55l216.7,215.5c15.4,15.3,40.2,15.3,55.4,0l216.9-215.5
	c15.4-15.3,15.4-39.9,0-55l-17.8-17.9C467.1,196.8,441.8,197.1,426.6,212.9L426.6,212.9z"/>
</svg>
