<?xml version="1.0" encoding="utf-8"?>
<!-- Generator: Adobe Illustrator 24.0.2, SVG Export Plug-In . SVG Version: 6.00 Build 0)  -->
<svg version="1.1" id="Capa_1" xmlns="http://www.w3.org/2000/svg" xmlns:xlink="http://www.w3.org/1999/xlink" x="0px" y="0px"
	 viewBox="0 0 512 512" style="enable-background:new 0 0 512 512;" xml:space="preserve">
<style type="text/css">
	.st0{fill:#FFFFFF;}
</style>
<path class="st0" d="M416,340v24c0,6.6-5.4,12-12,12H204c-6.6,0-12-5.4-12-12v-24c0-6.6,5.4-12,12-12h200
	C410.6,328,416,333.4,416,340z M416,244v24c0,6.6-5.4,12-12,12H204c-6.6,0-12-5.4-12-12v-24c0-6.6,5.4-12,12-12h200
	C410.6,232,416,237.4,416,244z M416,148v24c0,6.6-5.4,12-12,12H204c-6.6,0-12-5.4-12-12v-24c0-6.6,5.4-12,12-12h200
	C410.6,136,416,141.4,416,148z M164,160c0,19.9-16.1,36-36,36s-36-16.1-36-36s16.1-36,36-36S164,140.1,164,160z M164,256
	c0,19.9-16.1,36-36,36s-36-16.1-36-36s16.1-36,36-36S164,236.1,164,256z M164,352c0,19.9-16.1,36-36,36s-36-16.1-36-36
	s16.1-36,36-36S164,332.1,164,352z"/>
</svg>
