<?xml version="1.0" encoding="utf-8"?>
<!-- Generator: Adobe Illustrator 24.0.2, SVG Export Plug-In . SVG Version: 6.00 Build 0)  -->
<svg version="1.1" id="Capa_1" xmlns="http://www.w3.org/2000/svg" xmlns:xlink="http://www.w3.org/1999/xlink" x="0px" y="0px"
	 viewBox="0 0 510.55 510.38" style="enable-background:new 0 0 510.55 510.38;" xml:space="preserve">
<style type="text/css">
	.st0{fill:#383634;}
	.st1{fill:#F9BA49;}
</style>
<g>
	<path class="st0" d="M420.19,175.92c-9.41-0.07-18.53-1.75-27.28-5.13c-3.22-1.25-5.66-1.07-8.75,0.77
		c-13.62,8.12-31.13,4.91-41.58-7.24c-10.46-12.16-10.93-29.9-1.13-42.26c10.24-12.92,27.4-16.76,41.66-9.32
		c14.2,7.41,21.16,22.84,17.13,38.27c-0.63,2.43-1.59,4.23,2.11,5.08c6.32,1.45,12.52,3.44,19.13,2.73
		c39.24,2.43,72.07-33.02,72.31-69.66c0.23-34.81-25.06-67.26-62.95-72.1c-38.1-4.87-74.67,23.68-79.09,61.9
		c-0.47,4.03-2.09,4.9-5.68,4.94c-12.32,0.14-12.56,0.18-9.92-11.89c7.96-36.35,29.87-59.61,65.85-69.5
		c1.96-0.54,6.77-1.17,11.3-1.83c10.67-0.93,14.33-0.92,23.56,0.37c3.37,0.66,3.44,0.72,5.3,1.24
		c34.62,9.66,56.71,31.26,65.98,65.98c0.45,1.69,2.08,12.53,2.31,15.68c0.24,8.89,0.21,10.55-1.16,18.69
		c-0.75,2.64-0.75,3.48-1.24,5.3c-9.54,35.82-32.51,57.77-68.45,66.29c-3.38,0.8-6.88,1.12-10.34,1.55 M383.39,147.33
		c2.36-6.15,0.87-11.18-2.85-15.59c-3.76-4.46-8.69-6.53-14.62-5.69c-2.16,0.31-2.91,1.12-1.36,3.23
		C369.71,136.28,375.63,142.41,383.39,147.33z M369.64,158.31c-6.91-5-12.25-11.01-18.01-17.5
		C351.27,152.47,359.2,160.11,369.64,158.31z"/>
	<path class="st1" d="M421.47,158.81c-6.62,0.72-12.81-1.27-19.13-2.73c-3.7-0.85-2.74-2.65-2.11-5.08
		c4.03-15.43-2.93-30.86-17.13-38.27c-14.25-7.44-31.41-3.6-41.66,9.32c-9.8,12.36-9.32,30.11,1.13,42.26
		c10.45,12.14,27.97,15.35,41.58,7.24c3.09-1.84,5.53-2.02,8.75-0.77c8.75,3.39,17.87,5.06,27.28,5.13
		c1.89,0.01,4.09-0.56,5.28,1.74c2.83,14.67,5.54,29.36,8.57,43.99c0.68,3.29,0.31,5.46-2.17,7.93
		c-93,92.87-185.94,185.8-278.8,278.81c-2.65,2.66-3.95,2.65-6.59,0.01C98.39,460.14,50.22,411.96,1.94,363.88
		c-2.76-2.75-2.45-4.04,0.11-6.6c93-92.87,185.93-185.8,278.81-278.79c2.27-2.27,4.3-2.89,7.45-2.25
		c39.05,7.93,78.13,15.77,117.23,23.45c3.42,0.67,4.54,2.09,5.17,5.37C414.14,123.01,417.85,140.9,421.47,158.81z M281.31,237.07
		c-16.97-3.29-34.01-6.25-50.86-10.05c-5.97-1.34-9.89-0.35-13.83,4.23c-2.42,2.82-2.93,4.14-0.04,6.98
		c16.87,16.57,33.51,33.39,50.26,50.09c2.81,2.8,5.59,7.36,8.71,7.64c3.31,0.3,5.56-5.1,8.71-7.47c3.41-2.57,2.42-4.36-0.18-6.89
		c-9.91-9.64-19.62-19.48-29.37-29.29c-0.93-0.94-2.32-1.65-2.49-3.49c17.22,3.41,34.29,6.27,51.06,10.35
		c6.92,1.68,11.2,0.14,15.38-4.98c1.75-2.14,1.98-3.14-0.05-5.15c-19.16-19-38.23-38.09-57.24-57.24c-1.99-2-3.25-2.23-5.1-0.02
		c-2.77,3.3-8.15,5.75-8.28,9.48c-0.12,3.44,5.17,6.01,8.01,9.03c8.42,8.94,17.83,16.93,25.69,26.41
		C281.55,236.84,281.43,236.96,281.31,237.07z M108.5,351.39c-7.98-0.28-14.56,2.85-20.11,8.35c-7.79,7.74-15.43,15.63-23.36,23.22
		c-2.52,2.41-2.03,3.69,0.17,5.84c7.99,7.77,15.8,15.72,23.68,23.6c10.94,10.94,21.86,21.9,32.84,32.8c1.23,1.22,2.2,3.68,4.67,1.14
		c8.8-9.07,18.25-17.57,26.47-27.14c13.27-15.46,4.6-38.57-15.51-42.3c-2.63-0.49-3.42-1.29-3.86-3.91
		C131.38,360.54,121.13,351.83,108.5,351.39z M208.31,239.95c-1.1,1.05-2.08,1.95-3.02,2.89c-12.95,12.94-25.82,25.97-38.9,38.77
		c-2.73,2.67-2.96,4.14-0.09,6.97c16.74,16.45,33.25,33.13,49.86,49.7c2.93,2.92,5.95,7.88,9.04,7.98c3.65,0.11,6.16-5.42,9.46-8.18
		c2.17-1.81,2.13-3.11,0.05-5.11c-6.83-6.58-13.4-13.44-20.21-20.04c-1.99-1.93-2.16-3.15-0.06-5.15
		c5.66-5.4,11.23-10.9,16.57-16.61c2.27-2.43,3.56-1.84,5.51,0.23c4.22,4.48,8.65,8.76,13,13.12c9.84,9.85,9.78,9.79,19.18-0.44
		c1.73-1.88,1.45-2.79-0.14-4.38c-19.34-19.26-38.62-38.58-57.94-57.87C209.94,241.16,209.12,240.61,208.31,239.95z M158.13,300.87
		c-7.92,0.2-14.42,3.46-19.93,9.02c-7.5,7.57-14.93,15.23-22.66,22.56c-2.7,2.55-2.18,3.86,0.16,6.17
		c17.05,16.87,33.94,33.89,50.94,50.81c2.7,2.68,5.18,7.52,8.31,7.29c2.93-0.21,5.39-4.91,8.36-7.26c3.31-2.61,3.04-4.35,0.05-7.27
		c-14.77-14.43-29.22-29.2-43.95-43.67c-2.55-2.5-2.5-3.85,0.08-6.15c3.97-3.54,7.49-7.59,11.38-11.22
		c4.65-4.34,9.95-4.45,13.82-0.56c3.86,3.87,3.7,9.11-0.65,13.8c-3.17,3.42-6.51,6.68-9.88,9.9c-1.51,1.44-1.6,2.35-0.14,4.05
		c9.19,10.68,9.14,10.72,18.87,1.09c0.36-0.35,0.75-0.67,1.05-1.07c1.5-2,3.05-1.92,5.11-0.62c5.77,3.63,11.67,7.06,17.52,10.57
		c11.37,6.82,11.3,6.74,20.65-2.73c2.23-2.26,2.44-3.23-0.53-4.94c-9.8-5.65-19.39-11.65-29.14-17.38c-2.38-1.4-3.32-2.78-3.28-5.83
		C184.48,312.83,172.48,300.86,158.13,300.87z M310.27,157.32c-7.46,0.19-14.06,1.43-20.33,4.48
		c-10.17,4.95-16.95,13.78-24.91,21.27c-1.8,1.69-0.04,2.65,0.9,3.6c19.28,19.32,38.6,38.59,57.85,57.93
		c1.67,1.68,2.74,1.71,4.38-0.03c3.89-4.11,8.11-7.9,11.94-12.06c12.86-14,16.78-30.22,9.54-47.89
		C342.49,167.13,328.5,158.37,310.27,157.32z"/>
	<path class="st1" d="M383.39,147.33c-7.76-4.91-13.69-11.04-18.83-18.04c-1.55-2.11-0.8-2.92,1.36-3.23
		c5.93-0.84,10.86,1.22,14.62,5.69C384.26,136.15,385.76,141.18,383.39,147.33z"/>
	<path class="st1" d="M369.64,158.31c-10.44,1.8-18.37-5.84-18.01-17.5C357.39,147.31,362.73,153.31,369.64,158.31z"/>
	<path class="st0" d="M108.5,351.39c12.63,0.43,22.88,9.15,24.99,21.6c0.44,2.62,1.23,3.43,3.86,3.91
		c20.11,3.73,28.78,26.84,15.51,42.3c-8.21,9.57-17.67,18.06-26.47,27.14c-2.47,2.54-3.44,0.08-4.67-1.14
		c-10.98-10.9-21.9-21.86-32.84-32.8c-7.88-7.88-15.69-15.84-23.68-23.6c-2.2-2.14-2.7-3.43-0.17-5.84
		c7.94-7.58,15.57-15.48,23.36-23.22C93.94,354.24,100.52,351.11,108.5,351.39z M107.82,368.23c-2.42,0.19-4.52,0.75-6.13,2.31
		c-4.66,4.51-9.22,9.12-13.91,13.6c-1.59,1.52-0.88,2.46,0.33,3.66c11.55,11.51,23.07,23.04,34.59,34.57
		c0.98,0.98,1.87,1.97,3.27,0.5c4.83-5.04,9.96-9.82,14.47-15.12c2.97-3.49,2.12-8.69-1.05-11.77c-3.09-3.01-8.16-3.4-11.87-0.73
		c-1.74,1.25-3.28,2.8-4.8,4.32c-9.44,9.41-9.37,9.37-18.54-0.48c-1.74-1.87-1.97-2.97-0.04-4.82c3.83-3.68,7.59-7.46,11.04-11.5
		c2.49-2.91,2.35-6.46,0.62-9.81C114.1,369.68,111.13,368.42,107.82,368.23z"/>
	<path class="st0" d="M208.31,239.95c0.81,0.66,1.64,1.2,2.32,1.89c19.31,19.29,38.6,38.61,57.94,57.87
		c1.59,1.58,1.87,2.5,0.14,4.38c-9.4,10.23-9.34,10.29-19.18,0.44c-4.35-4.36-8.79-8.64-13-13.12c-1.95-2.07-3.24-2.66-5.51-0.23
		c-5.34,5.71-10.92,11.21-16.57,16.61c-2.1,2-1.93,3.22,0.06,5.15c6.81,6.6,13.38,13.46,20.21,20.04c2.08,2,2.11,3.3-0.05,5.11
		c-3.3,2.76-5.81,8.29-9.46,8.18c-3.1-0.09-6.11-5.05-9.04-7.98c-16.62-16.57-33.13-33.25-49.86-49.7
		c-2.87-2.82-2.64-4.29,0.09-6.97c13.08-12.8,25.95-25.83,38.9-38.77C206.22,241.9,207.2,241.01,208.31,239.95z M221.18,276.36
		c-0.35-0.41-0.75-0.94-1.21-1.4c-3.17-3.18-6.43-6.28-9.51-9.55c-1.51-1.6-2.49-1.52-4,0.03c-5.81,5.95-11.71,11.82-17.64,17.64
		c-1.47,1.44-1.76,2.49-0.1,4.04c3.16,2.95,6.23,6.01,9.16,9.18c1.66,1.8,2.79,1.62,4.42-0.06c5.68-5.84,11.5-11.55,17.25-17.33
		C220.24,278.23,221.17,277.67,221.18,276.36z"/>
	<path class="st0" d="M281.68,236.72c-7.87-9.48-17.27-17.47-25.69-26.41c-2.84-3.02-8.12-5.59-8.01-9.03
		c0.13-3.74,5.51-6.19,8.28-9.48c1.86-2.21,3.12-1.99,5.1,0.02c19.01,19.15,38.09,38.23,57.24,57.24c2.03,2.01,1.8,3.01,0.05,5.15
		c-4.18,5.12-8.47,6.66-15.38,4.98c-16.77-4.08-33.84-6.94-51.06-10.35c0.17,1.84,1.56,2.55,2.49,3.49
		c9.75,9.8,19.46,19.64,29.37,29.29c2.6,2.53,3.59,4.33,0.18,6.89c-3.16,2.37-5.4,7.78-8.71,7.47c-3.11-0.29-5.9-4.84-8.71-7.64
		c-16.75-16.7-33.39-33.51-50.26-50.09c-2.89-2.84-2.38-4.16,0.04-6.98c3.93-4.58,7.86-5.57,13.83-4.23
		c16.85,3.79,33.89,6.76,50.86,10.04c0.31,0.46,0.66,0.65,1.08,0.12C282.15,237.04,281.91,236.88,281.68,236.72z"/>
	<path class="st0" d="M158.13,300.86c14.35,0,26.35,11.97,26.13,26.56c-0.05,3.06,0.9,4.44,3.28,5.83
		c9.75,5.73,19.35,11.73,29.14,17.38c2.97,1.71,2.76,2.69,0.53,4.94c-9.35,9.47-9.28,9.54-20.65,2.73
		c-5.85-3.51-11.75-6.93-17.52-10.57c-2.07-1.3-3.61-1.38-5.11,0.62c-0.3,0.4-0.7,0.72-1.05,1.07c-9.73,9.63-9.68,9.59-18.87-1.09
		c-1.46-1.7-1.36-2.61,0.14-4.05c3.38-3.22,6.72-6.48,9.88-9.9c4.34-4.69,4.5-9.93,0.65-13.8c-3.87-3.89-9.17-3.78-13.82,0.56
		c-3.89,3.63-7.41,7.68-11.38,11.22c-2.58,2.3-2.62,3.65-0.08,6.15c14.73,14.47,29.18,29.23,43.95,43.67
		c2.99,2.92,3.26,4.65-0.05,7.27c-2.97,2.34-5.43,7.04-8.36,7.26c-3.13,0.23-5.61-4.61-8.31-7.29c-17-16.92-33.9-33.94-50.94-50.81
		c-2.34-2.31-2.85-3.61-0.16-6.17c7.73-7.33,15.16-14.99,22.66-22.56C143.71,304.33,150.21,301.06,158.13,300.86z"/>
	<path class="st0" d="M310.27,157.32c18.24,1.05,32.22,9.81,39.38,27.3c7.23,17.68,3.32,33.89-9.54,47.89
		c-3.82,4.16-8.05,7.96-11.94,12.06c-1.64,1.73-2.7,1.71-4.38,0.03c-19.25-19.34-38.58-38.62-57.85-57.93
		c-0.95-0.95-2.7-1.9-0.9-3.6c7.96-7.49,14.74-16.33,24.91-21.27C296.21,158.75,302.81,157.52,310.27,157.32z M336.36,198.76
		c0-8.37-7.18-18.88-17.23-22.76c-10.12-3.91-22.71-1.06-29.85,6.61c-1.28,1.37-1.51,2.14-0.09,3.55
		c11.67,11.58,23.31,23.2,34.87,34.9c1.6,1.62,2.49,1.35,3.91-0.15C333.25,215.38,336.08,208.86,336.36,198.76z"/>
	<path class="st1" d="M107.82,368.23c3.31,0.2,6.28,1.46,7.98,4.74c1.73,3.35,1.87,6.9-0.62,9.81c-3.45,4.03-7.21,7.82-11.04,11.5
		c-1.93,1.85-1.7,2.95,0.04,4.82c9.17,9.85,9.1,9.89,18.54,0.48c1.52-1.52,3.07-3.07,4.8-4.32c3.71-2.68,8.78-2.28,11.87,0.73
		c3.17,3.08,4.02,8.28,1.05,11.77c-4.51,5.3-9.64,10.08-14.47,15.12c-1.41,1.47-2.29,0.48-3.27-0.5
		c-11.52-11.53-23.04-23.06-34.59-34.57c-1.2-1.2-1.91-2.14-0.33-3.66c4.69-4.48,9.24-9.1,13.91-13.6
		C103.3,368.97,105.41,368.42,107.82,368.23z"/>
	<path class="st1" d="M221.18,276.36c-0.01,1.31-0.94,1.87-1.62,2.55c-5.75,5.78-11.57,11.49-17.25,17.33
		c-1.63,1.68-2.75,1.86-4.42,0.06c-2.94-3.17-6.01-6.23-9.16-9.18c-1.66-1.55-1.37-2.6,0.1-4.04c5.94-5.82,11.84-11.69,17.64-17.64
		c1.51-1.55,2.49-1.63,4-0.03c3.08,3.27,6.33,6.37,9.51,9.55C220.43,275.42,220.82,275.95,221.18,276.36z"/>
	<path class="st1" d="M281.68,236.72c0.24,0.16,0.48,0.32,0.71,0.48c-0.43,0.53-0.77,0.33-1.08-0.12
		C281.43,236.96,281.55,236.84,281.68,236.72z"/>
	<path class="st1" d="M336.36,198.76c-0.29,10.1-3.11,16.61-8.38,22.15c-1.43,1.5-2.31,1.77-3.91,0.15
		c-11.56-11.69-23.2-23.31-34.87-34.9c-1.42-1.41-1.19-2.18,0.09-3.55c7.14-7.67,19.73-10.53,29.85-6.61
		C329.19,179.88,336.36,190.39,336.36,198.76z"/>
</g>
</svg>
