<?xml version="1.0" encoding="utf-8"?>
<!-- Generator: Adobe Illustrator 24.0.2, SVG Export Plug-In . SVG Version: 6.00 Build 0)  -->
<svg version="1.1" id="Capa_1" xmlns="http://www.w3.org/2000/svg" xmlns:xlink="http://www.w3.org/1999/xlink" x="0px" y="0px"
	 viewBox="0 0 510.55 510.38" style="enable-background:new 0 0 510.55 510.38;" xml:space="preserve">
<style type="text/css">
	.st0{fill:#383634;}
	.st1{fill:#F9BA49;}
</style>
<g>
	<path class="st0" d="M420.19,175.92c-9.41-0.07-18.53-1.75-27.28-5.13c-3.22-1.25-5.66-1.07-8.75,0.77
		c-13.62,8.12-31.13,4.91-41.58-7.24c-10.46-12.16-10.93-29.9-1.13-42.26c10.24-12.92,27.4-16.76,41.66-9.32
		c14.2,7.41,21.16,22.84,17.13,38.27c-0.63,2.43-1.59,4.23,2.11,5.08c6.32,1.45,12.52,3.44,19.13,2.73
		c39.24,2.43,72.07-33.02,72.31-69.66c0.23-34.81-25.06-67.26-62.95-72.1c-38.1-4.87-74.67,23.68-79.09,61.9
		c-0.47,4.03-2.09,4.9-5.68,4.94c-12.32,0.14-12.56,0.18-9.92-11.89c7.96-36.35,29.87-59.61,65.85-69.5
		c1.96-0.54,6.77-1.17,11.3-1.83c10.67-0.93,14.33-0.92,23.56,0.37c3.37,0.66,3.44,0.72,5.3,1.24
		c34.62,9.66,56.71,31.26,65.98,65.98c0.45,1.69,2.08,12.53,2.31,15.68c0.24,8.89,0.21,10.55-1.16,18.69
		c-0.75,2.64-0.75,3.48-1.24,5.3c-9.54,35.82-32.51,57.77-68.45,66.29c-3.38,0.8-6.88,1.12-10.34,1.55 M383.39,147.33
		c2.36-6.15,0.87-11.18-2.85-15.59c-3.76-4.46-8.69-6.53-14.62-5.69c-2.16,0.31-2.91,1.12-1.36,3.23
		C369.71,136.28,375.63,142.41,383.39,147.33z M369.64,158.31c-6.91-5-12.25-11.01-18.01-17.5
		C351.27,152.47,359.2,160.11,369.64,158.31z"/>
	<path class="st1" d="M421.47,158.81c-6.62,0.72-12.81-1.27-19.13-2.73c-3.7-0.85-2.74-2.65-2.11-5.08
		c4.03-15.43-2.93-30.86-17.13-38.27c-14.25-7.44-31.41-3.6-41.66,9.32c-9.8,12.36-9.32,30.11,1.13,42.26
		c10.45,12.14,27.97,15.35,41.58,7.24c3.09-1.84,5.53-2.02,8.75-0.77c8.75,3.39,17.87,5.06,27.28,5.13
		c1.89,0.01,4.09-0.56,5.28,1.74c2.83,14.67,5.54,29.36,8.57,43.99c0.68,3.29,0.31,5.46-2.17,7.93
		c-93,92.87-185.94,185.8-278.8,278.81c-2.65,2.66-3.95,2.65-6.59,0.01C98.39,460.14,50.22,411.96,1.94,363.88
		c-2.76-2.75-2.45-4.04,0.11-6.6c93-92.87,185.93-185.8,278.81-278.79c2.27-2.27,4.3-2.89,7.45-2.25
		c39.05,7.93,78.13,15.77,117.23,23.45c3.42,0.67,4.54,2.09,5.17,5.37C414.14,123.01,417.85,140.9,421.47,158.81z"/>
	<path class="st1" d="M383.39,147.33c-7.76-4.91-13.69-11.04-18.83-18.04c-1.55-2.11-0.8-2.92,1.36-3.23
		c5.93-0.84,10.86,1.22,14.62,5.69C384.26,136.15,385.76,141.18,383.39,147.33z"/>
	<path class="st1" d="M369.64,158.31c-10.44,1.8-18.37-5.84-18.01-17.5C357.39,147.31,362.73,153.31,369.64,158.31z"/>
	<path class="st1" d="M281.68,236.72c0.24,0.16,0.48,0.32,0.71,0.48c-0.43,0.53-0.77,0.33-1.08-0.12
		C281.43,236.96,281.55,236.84,281.68,236.72z"/>
</g>
</svg>
