<svg width="33" height="33" viewBox="0 0 33 33" fill="none" xmlns="http://www.w3.org/2000/svg">
<path fill-rule="evenodd" clip-rule="evenodd" d="M7.32391 0.791504C8.89604 0.791725 10.4236 1.34487 11.6666 2.36407C12.9096 3.38326 13.7976 4.81076 14.1912 6.42234H28.596V10.1762H14.1912C13.7556 11.9415 12.7281 13.4785 11.3006 14.5003C9.87305 15.5222 8.14305 15.9589 6.43364 15.7291C4.72422 15.4992 3.15226 14.6184 2.01126 13.2512C0.870267 11.884 0.23825 10.1238 0.233223 8.29929C0.233223 6.3081 0.980275 4.39847 2.31004 2.99048C3.6398 1.5825 5.44334 0.791504 7.32391 0.791504ZM7.32391 12.0532C8.26419 12.0532 9.16597 11.6577 9.83085 10.9537C10.4957 10.2497 10.8693 9.29488 10.8693 8.29929C10.8693 7.3037 10.4957 6.34888 9.83085 5.64489C9.16597 4.9409 8.26419 4.5454 7.32391 4.5454C6.38363 4.5454 5.48185 4.9409 4.81697 5.64489C4.15209 6.34888 3.77857 7.3037 3.77857 8.29929C3.77857 9.29488 4.15209 10.2497 4.81697 10.9537C5.48185 11.6577 6.38363 12.0532 7.32391 12.0532ZM25.0506 32.6996C23.4785 32.6994 21.951 32.1462 20.708 31.127C19.465 30.1078 18.5769 28.6803 18.1833 27.0688H3.77857V23.3149H18.1833C18.6189 21.5496 19.6464 20.0126 21.0739 18.9908C22.5015 17.9689 24.2315 17.5322 25.9409 17.762C27.6503 17.9919 29.2223 18.8727 30.3633 20.2399C31.5043 21.6071 32.1363 23.3673 32.1413 25.1918C32.1413 27.183 31.3943 29.0926 30.0645 30.5006C28.7347 31.9086 26.9312 32.6996 25.0506 32.6996ZM25.0506 28.9457C25.9909 28.9457 26.8927 28.5502 27.5576 27.8462C28.2224 27.1422 28.596 26.1874 28.596 25.1918C28.596 24.1962 28.2224 23.2414 27.5576 22.5374C26.8927 21.8334 25.9909 21.4379 25.0506 21.4379C24.1103 21.4379 23.2086 21.8334 22.5437 22.5374C21.8788 23.2414 21.5053 24.1962 21.5053 25.1918C21.5053 26.1874 21.8788 27.1422 22.5437 27.8462C23.2086 28.5502 24.1103 28.9457 25.0506 28.9457Z" fill="black"/>
</svg>
