<svg width="32" height="33" viewBox="0 0 32 33" fill="none" xmlns="http://www.w3.org/2000/svg">
<path d="M11.2 16.25C14.735 16.25 17.6 12.6687 17.6 8.25C17.6 3.83125 14.735 0.25 11.2 0.25C7.665 0.25 4.8 3.83125 4.8 8.25C4.8 12.6687 7.665 16.25 11.2 16.25ZM15.68 18.25H14.845C13.735 18.8875 12.5 19.25 11.2 19.25C9.89999 19.25 8.67 18.8875 7.555 18.25H6.72C3.01 18.25 0 22.0125 0 26.65V29.25C0 30.9062 1.075 32.25 2.4 32.25H20C21.325 32.25 22.4 30.9062 22.4 29.25V26.65C22.4 22.0125 19.39 18.25 15.68 18.25ZM31.83 10.225L30.44 8.46875C30.21 8.175 29.835 8.175 29.6 8.4625L24.36 14.9625L22.085 12.1C21.855 11.8063 21.48 11.8062 21.245 12.0938L19.84 13.8375C19.605 14.125 19.605 14.5938 19.835 14.8875L23.92 20.0312C24.15 20.325 24.525 20.325 24.76 20.0375L31.825 11.275C32.055 10.9812 32.06 10.5125 31.83 10.225Z" fill="black"/>
</svg>
