<?xml version="1.0" encoding="utf-8"?>
<!-- Generator: Adobe Illustrator 24.0.2, SVG Export Plug-In . SVG Version: 6.00 Build 0)  -->
<svg version="1.1" id="Capa_1" xmlns="http://www.w3.org/2000/svg" xmlns:xlink="http://www.w3.org/1999/xlink" x="0px" y="0px"
	 viewBox="0 0 448 448" style="enable-background:new 0 0 448 448;" xml:space="preserve">
<path d="M447.5,340.7l-21,91c-2.2,9.5-10.7,16.3-20.5,16.3C182,448,0,266.4,0,42c0.3-9.7,6.9-18,16.3-20.5l91-21
	c1.6-0.3,3.1-0.5,4.7-0.5c8.3,0.4,15.7,5.3,19.3,12.7l42,98c1,2.6,1.6,5.4,1.7,8.3c-0.3,6.2-3.1,12.1-7.7,16.3l-53,43.4
	c32.1,68.1,87,123,155.1,155.1l43.4-53c4.2-4.6,10-7.4,16.3-7.7c2.8,0.1,5.6,0.7,8.3,1.7l98,42c7.4,3.6,12.3,11,12.7,19.3
	C448,337.6,447.8,339.2,447.5,340.7z"/>
</svg>
