<?xml version="1.0" encoding="utf-8"?>
<!-- Generator: Adobe Illustrator 24.0.2, SVG Export Plug-In . SVG Version: 6.00 Build 0)  -->
<svg version="1.1" id="Capa_1" focusable="false" xmlns="http://www.w3.org/2000/svg" xmlns:xlink="http://www.w3.org/1999/xlink"
	 x="0px" y="0px" viewBox="0 0 576 512" style="enable-background:new 0 0 576 512;" xml:space="preserve">
<style type="text/css">
	.st0{fill:#F0F0F0;}
</style>
<g>
	<path class="st0" d="M190.2,120.9l-55.5,111c-4.4,8.9-6.7,18.7-6.8,28.6V512H0V112C0,50.2,50,0,111.9,0c53.7,0,99.9,38.1,110,90.9
		l-0.4,0.2C207.9,97.1,196.9,107.7,190.2,120.9z"/>
	<path class="st0" d="M572.6,246.2l-55.5-111c-3.3-6.6-8.8-11.9-15.6-14.9L381,66.8c-8.3-3.7-17.7-3.7-26,0l-120.5,53.6
		c-6.8,3-12.3,8.3-15.6,14.9l-55.5,111c-2.2,4.4-3.4,9.3-3.4,14.3V512h128v-96h160v96h128V260.5C576,255.6,574.8,250.7,572.6,246.2z
		 M416,320h-96v-96h96V320z"/>
</g>
</svg>
