<?xml version="1.0" encoding="utf-8"?>
<!-- Generator: Adobe Illustrator 24.0.2, SVG Export Plug-In . SVG Version: 6.00 Build 0)  -->
<svg version="1.1" id="Capa_1" xmlns="http://www.w3.org/2000/svg" xmlns:xlink="http://www.w3.org/1999/xlink" x="0px" y="0px"
	 viewBox="0 0 265.53 325.38" style="enable-background:new 0 0 265.53 325.38;" xml:space="preserve">
<g>
	<path d="M84.13,151.11c1.37-6.18,2.36-11.05,3.55-15.87c0.6-2.45-0.87-4.07-1.78-5.99c-2.77-5.88-1.57-7.78,4.76-7.81c1,0,2,0,3,0
		c6.65,0.01,8.09,2.4,4.69,8.46c-3.55,6.33,0.62,11.89,1.66,17.67c0.4,2.22,2.37-0.32,3.14-1.15c7.44-7.95,13.79-16.73,18.67-26.45
		c2.31-4.61,5.21-6.44,10.26-5.39c3.08,0.64,6.29,0.66,9.44,0.97c11.16,1.09,19.98,6.3,26.05,15.63
		c6.43,9.88,10.54,20.77,12.2,32.48c1.55,10.97-2.78,19.06-12.3,24.64c-9.22,5.41-19.43,7.72-29.71,9.86
		c-33.2,6.92-66.24,4.92-99.18-1.84c-3.57-0.73-7.1-1.84-10.53-3.09c-2.52-0.92-3.45-0.73-3.69,2.28c-0.36,4.51,0.51,7.46,5.48,8.88
		c5.74,1.64,11.24,4.12,16.83,6.29c10.87,4.22,16.62,17.62,12.22,28.42c-2.45,6.01-4.92,12.01-7.38,18.02
		c-0.31,0.77-0.96,1.57-0.9,2.3c0.58,6.23,6.85,7.94,9.9,12.25c1.36,1.93,3.1,1.95,5.27,1c6.86-2.99,13.76-5.93,20.75-8.62
		c9.86-3.79,23.56,2.85,27.3,12.69c2.42,6.36,4.73,12.96,8.4,18.61c3.96,6.11,11,1.6,16.53,2.81c2.98,0.65,4.01-1.43,4.91-3.79
		c2.37-6.22,4.84-12.4,7.33-18.58c3.77-9.39,17.59-15.52,27.03-11.97c7.01,2.64,14.01,5.29,20.96,8.09
		c2.55,1.03,4.23,0.43,6.17-1.44c10.25-9.81,10.29-9.75,4.38-22.98c-0.75-1.67-1.2-3.53-2.22-5.02c-6.19-9.06-2.96-17.46,1.7-25.72
		c1.9-3.37,5.24-4.97,8.7-6.36c6.33-2.55,12.63-5.18,18.93-7.79c1.21-0.5,2.98-0.88,3.03-2.29c0.17-5.48,0.18-10.97-0.09-16.44
		c-0.08-1.64-2.25-1.77-3.59-2.29c-6.19-2.44-12.42-4.79-18.64-7.16c-10.26-3.89-16.19-17.36-12.07-27.59
		c2.61-6.48,5.28-12.95,8.02-19.37c1.05-2.47,0.62-4.16-1.4-6.1c-12.26-11.7-8.04-10.66-23.66-4.43c-2.16,0.86-4.48,1.5-6.42,2.73
		c-9.37,5.93-17.59,1.48-25.79-2.73c-2.61-1.34-3.88-4.03-5-6.67c-2.74-6.43-5.66-12.79-8.18-19.31c-1.16-3-2.95-3.55-5.94-3.92
		c-8.3-1.02-13.41,1.9-18.21,9.11c-13.52,20.3-39.42,19.49-52.55-1.05c-4.12-6.45-9.42-12.97-10.5-20.56
		c-1.4-9.77-2.01-8.42-1.75-20.18c0.06-2.94,0.19-8.75,0.27-11.57c0.12-4.5,0.41-8.99,1.5-13.38C58.93,16.28,67.41,6.8,80.71,4.89
		c7.72-1.11,11.77-1.37,20.19-0.19c22.69,3.18,27.51,24.66,29.11,41.17c0.23,11.01,0.29,9.55,0.46,21.32
		c0.03,2.37,6.07,0.14,8.61-0.04c1.99-0.14,2.01,0.2,4.01,0.09c6.37-0.37,10.77,2.59,13.95,7.89c3.54,5.89,5.93,12.28,8.57,18.57
		c3.94,9.39,4.19,9.49,13.37,5.53c5.65-2.43,11.4-4.65,17.07-7.04c7.17-3.02,13.26-1.46,18.65,3.99
		c5.04,5.09,10.16,10.11,15.37,15.02c4.76,4.49,5.9,9.78,4.21,15.95c-2.16,7.89-5.59,15.28-9.03,22.64
		c-1.89,4.03-0.79,6.1,3.19,7.59c7.16,2.67,14.27,5.49,21.31,8.46c7.05,2.98,10.4,8.32,10.11,16.14
		c-0.27,7.32-0.09,14.66-0.05,21.99c0.04,6.11-2.69,10.4-8.02,13.34c-7.32,4.04-15.02,7.2-22.82,10.07
		c-4.51,1.66-4.92,3.77-3.09,7.9c3.38,7.58,7.44,14.87,9.37,23.08c1.31,5.58,0.19,10.23-3.79,14.2
		c-5.66,5.65-11.36,11.26-17.12,16.8c-4.65,4.46-10.11,5.52-16.15,3.33c-7.67-2.78-15.37-5.46-22.93-8.51
		c-3.75-1.51-5.77-0.87-7.32,3c-3.09,7.71-5.67,15.64-9.82,22.92c-3.22,5.65-7.96,8.28-14.33,8.28c-7.33,0-14.66-0.06-22,0.02
		c-6.88,0.08-11.66-3.04-14.94-8.99c-3.79-6.88-6.76-14.12-9.64-21.38c-1.73-4.35-3.94-5.6-8.37-3.49c-6,2.86-12.23,5.27-18.38,7.81
		c-9.31,3.85-14.57,2.8-21.68-4.21c-4.87-4.79-9.8-9.52-14.6-14.38c-4.33-4.38-6.6-9.14-4.34-15.68c2.67-7.72,5.9-15.21,9.02-22.73
		c1.65-3.97,1.04-5.98-3.15-7.53c-7.79-2.89-15.73-5.43-23.06-9.49c-5.5-3.04-8.16-7.52-8.12-13.82c0.08-12.5-0.73-25.05,0.23-37.47
		c1.15-14.99,6.12-28.96,16.08-40.65c5.05-5.93,11.63-9.34,19.4-10.28c4.79-0.58,9.63-0.91,14.4-1.63c3.52-0.54,5.48,0.73,7.1,3.88
		C67.63,129.83,75.93,139.61,84.13,151.11z M85.32,43.59"/>
</g>
</svg>
