<svg width="53" height="53" viewBox="0 0 53 53" fill="none" xmlns="http://www.w3.org/2000/svg">
<path d="M15.9 26.5002C21.0261 26.5002 25.175 22.3513 25.175 17.2252C25.175 12.0991 21.0261 7.9502 15.9 7.9502C10.7739 7.9502 6.625 12.0991 6.625 17.2252C6.625 22.3513 10.7739 26.5002 15.9 26.5002ZM22.26 29.1502H21.5727C19.8502 29.9783 17.9372 30.4752 15.9 30.4752C13.8628 30.4752 11.9581 29.9783 10.2273 29.1502H9.54C4.27313 29.1502 0 33.4233 0 38.6902V41.0752C0 43.2697 1.78047 45.0502 3.975 45.0502H27.825C30.0195 45.0502 31.8 43.2697 31.8 41.0752V38.6902C31.8 33.4233 27.5269 29.1502 22.26 29.1502ZM39.75 26.5002C44.1391 26.5002 47.7 22.9393 47.7 18.5502C47.7 14.1611 44.1391 10.6002 39.75 10.6002C35.3609 10.6002 31.8 14.1611 31.8 18.5502C31.8 22.9393 35.3609 26.5002 39.75 26.5002ZM43.725 29.1502H43.4103C42.2592 29.5477 41.0419 29.8127 39.75 29.8127C38.4581 29.8127 37.2408 29.5477 36.0897 29.1502H35.775C34.0856 29.1502 32.5288 29.6388 31.1623 30.4255C33.183 32.6035 34.45 35.4936 34.45 38.6902V41.8702C34.45 42.0524 34.4086 42.2263 34.4003 42.4002H49.025C51.2195 42.4002 53 40.6197 53 38.4252C53 33.2991 48.8511 29.1502 43.725 29.1502Z" fill="black"/>
</svg>
