<svg width="54" height="53" viewBox="0 0 54 53" fill="none" xmlns="http://www.w3.org/2000/svg">
<g clip-path="url(#clip0_392_1019)">
<path d="M51.057 36.2137C51.2723 35.0461 51.2723 33.8536 51.057 32.6859L53.1936 31.452C53.442 31.3112 53.5497 31.0214 53.4669 30.7481C52.912 28.9593 51.9597 27.3362 50.7175 25.9946C50.527 25.7876 50.2206 25.7379 49.9722 25.8787L47.8356 27.1126C46.933 26.3425 45.8978 25.7462 44.7798 25.3487V22.8809C44.7798 22.5993 44.5811 22.3509 44.3078 22.2929C42.4611 21.8789 40.5812 21.8954 38.8256 22.2929C38.5523 22.3509 38.3536 22.5993 38.3536 22.8809V25.3487C37.2356 25.7462 36.2005 26.3425 35.2978 27.1126L33.1613 25.8787C32.9211 25.7379 32.6064 25.7876 32.4159 25.9946C31.1737 27.3362 30.2214 28.9593 29.6666 30.7481C29.5838 31.0214 29.6997 31.3112 29.9398 31.452L32.0764 32.6859C31.8611 33.8536 31.8611 35.0461 32.0764 36.2137L29.9398 37.4476C29.6914 37.5884 29.5838 37.8782 29.6666 38.1515C30.2214 39.9403 31.1737 41.5551 32.4159 42.905C32.6064 43.112 32.9128 43.1617 33.1613 43.0209L35.2978 41.787C36.2005 42.5571 37.2356 43.1534 38.3536 43.5509V46.0187C38.3536 46.3003 38.5523 46.5487 38.8256 46.6067C40.6723 47.0207 42.5522 47.0042 44.3078 46.6067C44.5811 46.5487 44.7798 46.3003 44.7798 46.0187V43.5509C45.8978 43.1534 46.933 42.5571 47.8356 41.787L49.9722 43.0209C50.2123 43.1617 50.527 43.112 50.7175 42.905C51.9597 41.5634 52.912 39.9403 53.4669 38.1515C53.5497 37.8782 53.4338 37.5884 53.1936 37.4476L51.057 36.2137ZM41.575 38.4662C39.3556 38.4662 37.5586 36.6609 37.5586 34.4498C37.5586 32.2387 39.3639 30.4334 41.575 30.4334C43.7861 30.4334 45.5914 32.2387 45.5914 34.4498C45.5914 36.6609 43.7944 38.4662 41.575 38.4662ZM19.05 26.4998C24.9048 26.4998 29.65 21.7546 29.65 15.8998C29.65 10.045 24.9048 5.2998 19.05 5.2998C13.1952 5.2998 8.45 10.045 8.45 15.8998C8.45 21.7546 13.1952 26.4998 19.05 26.4998ZM35.7119 45.2568C35.5214 45.1575 35.3309 45.0415 35.1488 44.9339L34.4945 45.3148C33.9977 45.5964 33.4345 45.7537 32.8714 45.7537C31.9688 45.7537 31.0992 45.3728 30.4781 44.7103C28.9627 43.0706 27.8033 41.0748 27.1491 38.9465C26.6936 37.4807 27.3064 35.9321 28.6314 35.162L29.2856 34.7811C29.2773 34.5657 29.2773 34.3504 29.2856 34.1351L28.6314 33.7542C27.3064 32.9923 26.6936 31.4354 27.1491 29.9696C27.2236 29.7295 27.3313 29.4893 27.4141 29.2492C27.0994 29.2243 26.793 29.1498 26.47 29.1498H25.087C23.2486 29.9945 21.2031 30.4748 19.05 30.4748C16.8969 30.4748 14.8597 29.9945 13.013 29.1498H11.63C5.48531 29.1498 0.5 34.1351 0.5 40.2798V43.7248C0.5 45.9193 2.28047 47.6998 4.475 47.6998H33.625C34.4614 47.6998 35.2398 47.4348 35.8775 46.9959C35.7781 46.6812 35.7119 46.3582 35.7119 46.0187V45.2568Z" fill="black"/>
</g>
<defs>
<clipPath id="clip0_392_1019">
<rect width="53" height="53" fill="white" transform="translate(0.5)"/>
</clipPath>
</defs>
</svg>
