<svg width="54" height="53" viewBox="0 0 54 53" fill="none" xmlns="http://www.w3.org/2000/svg">
<g clip-path="url(#clip0_392_1011)">
<path d="M36.9375 18.2188H43.5625C44.0018 18.2188 44.423 18.3932 44.7336 18.7039C45.0443 19.0145 45.2188 19.4357 45.2188 19.875V23.1875H35.2812V19.875C35.2812 19.4357 35.4557 19.0145 35.7664 18.7039C36.077 18.3932 36.4982 18.2188 36.9375 18.2188Z" fill="black"/>
<path d="M40.25 16.5625C42.0794 16.5625 43.5625 15.0794 43.5625 13.25C43.5625 11.4206 42.0794 9.9375 40.25 9.9375C38.4206 9.9375 36.9375 11.4206 36.9375 13.25C36.9375 15.0794 38.4206 16.5625 40.25 16.5625Z" fill="black"/>
<path d="M50.1874 29.8125H30.3124C29.4342 29.8116 28.5921 29.4623 27.9711 28.8413C27.3501 28.2203 27.0008 27.3783 26.9999 26.5V6.625C27.0008 5.74674 27.3501 4.9047 27.9711 4.28368C28.5921 3.66265 29.4342 3.31338 30.3124 3.3125H50.1874C51.0657 3.31338 51.9077 3.66265 52.5287 4.28368C53.1498 4.9047 53.499 5.74674 53.4999 6.625V26.5C53.4986 27.3781 53.1492 28.2199 52.5283 28.8408C51.9073 29.4618 51.0655 29.8112 50.1874 29.8125ZM30.3124 6.625V26.5H50.1891L50.1874 6.625H30.3124ZM25.3437 49.6875H22.0312V43.0625C22.0433 42.4067 21.9231 41.7551 21.6777 41.1468C21.4323 40.5385 21.0667 39.9859 20.6029 39.522C20.1391 39.0582 19.5865 38.6927 18.9781 38.4473C18.3698 38.2018 17.7183 38.0816 17.0624 38.0938H10.4374C9.78157 38.0816 9.13002 38.2018 8.5217 38.4473C7.91337 38.6927 7.36078 39.0582 6.89695 39.522C6.43312 39.9859 6.06757 40.5385 5.82217 41.1468C5.57676 41.7551 5.45653 42.4067 5.46867 43.0625V49.6875H2.15617V43.0625C2.14532 41.972 2.35211 40.8902 2.76444 39.8806C3.17677 38.871 3.78636 37.9538 4.55751 37.1826C5.32867 36.4114 6.2459 35.8019 7.25553 35.3895C8.26516 34.9772 9.34689 34.7704 10.4374 34.7812H17.0624C18.1529 34.7704 19.2347 34.9772 20.2443 35.3895C21.2539 35.8019 22.1712 36.4114 22.9423 37.1826C23.7135 37.9538 24.3231 38.871 24.7354 39.8806C25.1477 40.8902 25.3545 41.972 25.3437 43.0625V49.6875ZM13.7499 18.2188C15.0677 18.2188 16.3315 18.7422 17.2634 19.6741C18.1952 20.6059 18.7187 21.8697 18.7187 23.1875C18.7187 24.5053 18.1952 25.7691 17.2634 26.7009C16.3315 27.6328 15.0677 28.1562 13.7499 28.1562C12.4321 28.1562 11.1683 27.6328 10.2365 26.7009C9.30466 25.7691 8.78117 24.5053 8.78117 23.1875C8.78117 21.8697 9.30466 20.6059 10.2365 19.6741C11.1683 18.7422 12.4321 18.2188 13.7499 18.2188ZM13.7499 14.9062C11.5536 14.9062 9.44723 15.7787 7.89419 17.3318C6.34115 18.8848 5.46867 20.9912 5.46867 23.1875C5.46867 25.3838 6.34115 27.4902 7.89419 29.0432C9.44723 30.5963 11.5536 31.4688 13.7499 31.4688C15.9462 31.4688 18.0526 30.5963 19.6056 29.0432C21.1587 27.4902 22.0312 25.3838 22.0312 23.1875C22.0312 20.9912 21.1587 18.8848 19.6056 17.3318C18.0526 15.7787 15.9462 14.9062 13.7499 14.9062Z" fill="black"/>
</g>
<defs>
<clipPath id="clip0_392_1011">
<rect width="53" height="53" fill="white" transform="translate(0.5)"/>
</clipPath>
</defs>
</svg>
