<svg width="54" height="53" viewBox="0 0 54 53" fill="none" xmlns="http://www.w3.org/2000/svg">
<g clip-path="url(#clip0_392_112)">
<path d="M19.05 26.4998C24.9048 26.4998 29.65 21.7546 29.65 15.8998C29.65 10.045 24.9048 5.2998 19.05 5.2998C13.1952 5.2998 8.45 10.045 8.45 15.8998C8.45 21.7546 13.1952 26.4998 19.05 26.4998ZM26.47 29.1498H25.087C23.2486 29.9945 21.2031 30.4748 19.05 30.4748C16.8969 30.4748 14.8597 29.9945 13.013 29.1498H11.63C5.48531 29.1498 0.5 34.1351 0.5 40.2798V43.7248C0.5 45.9193 2.28047 47.6998 4.475 47.6998H33.625C35.8195 47.6998 37.6 45.9193 37.6 43.7248V40.2798C37.6 34.1351 32.6147 29.1498 26.47 29.1498ZM53.2184 18.5167L50.9163 16.1896C50.5353 15.8004 49.9142 15.8004 49.525 16.1814L40.8463 24.7939L37.0783 21.0011C36.6973 20.6118 36.0763 20.6118 35.687 20.9928L33.36 23.3032C32.9708 23.6842 32.9708 24.3053 33.3517 24.6945L40.1175 31.51C40.4984 31.8992 41.1195 31.8992 41.5088 31.5182L53.2102 19.9079C53.5911 19.5187 53.5994 18.8976 53.2184 18.5167Z" fill="black"/>
</g>
<defs>
<clipPath id="clip0_392_112">
<rect width="53" height="53" fill="white" transform="translate(0.5)"/>
</clipPath>
</defs>
</svg>
