<svg width="220" height="263" viewBox="0 0 220 263" fill="none" xmlns="http://www.w3.org/2000/svg">
<rect width="220" height="263" fill="#F9F5F5"/>
<circle cx="110" cy="110" r="99.5" fill="white" stroke="black"/>
<path d="M154.722 108.46C150.473 112.718 145.056 115.621 139.157 116.801C133.258 117.981 127.142 117.385 121.582 115.088L85.3626 158.739C78.7346 165.367 68.0228 165.367 61.3948 158.739C54.7668 152.111 54.7668 141.399 61.3948 134.838L105.046 98.5517C100.493 87.5051 102.702 74.3831 111.674 65.4119C120.243 56.8424 132.562 54.5661 143.274 58.3153L123.925 77.6636L142.805 96.5432L161.952 77.3288C165.501 87.9068 163.158 100.025 154.722 108.46ZM68.5584 151.575C71.2363 154.186 75.5211 154.186 78.1321 151.575C80.8101 148.897 80.8101 144.613 78.1321 142.002C75.5211 139.324 71.2363 139.324 68.5584 142.002C67.3031 143.279 66.5997 144.998 66.5997 146.789C66.5997 148.579 67.3031 150.298 68.5584 151.575Z" fill="#8BE1D1"/>
<path d="M42.3864 249H40.9091L45.1818 237.364H46.6364L50.9091 249H49.4318L45.9545 239.205H45.8636L42.3864 249ZM42.9318 244.455H48.8864V245.705H42.9318V244.455ZM56.3125 249H52.7216V237.364H56.4716C57.6004 237.364 58.5663 237.597 59.3693 238.062C60.1723 238.525 60.7879 239.189 61.2159 240.057C61.6439 240.92 61.858 241.955 61.858 243.159C61.858 244.371 61.642 245.415 61.2102 246.29C60.7784 247.161 60.1496 247.831 59.3239 248.301C58.4981 248.767 57.4943 249 56.3125 249ZM54.1307 247.75H56.2216C57.1837 247.75 57.9811 247.564 58.6136 247.193C59.2462 246.822 59.7178 246.294 60.0284 245.608C60.339 244.922 60.4943 244.106 60.4943 243.159C60.4943 242.22 60.3409 241.411 60.0341 240.733C59.7273 240.051 59.2689 239.528 58.6591 239.165C58.0492 238.797 57.2898 238.614 56.3807 238.614H54.1307V247.75ZM64.2216 237.364H65.9034L69.858 247.023H69.9943L73.9489 237.364H75.6307V249H74.3125V240.159H74.1989L70.5625 249H69.2898L65.6534 240.159H65.5398V249H64.2216V237.364ZM79.8651 237.364V249H78.456V237.364H79.8651ZM91.9176 237.364V249H90.554L84.2131 239.864H84.0994V249H82.6903V237.364H84.054L90.4176 246.523H90.5312V237.364H91.9176ZM96.1463 237.364V249H94.7372V237.364H96.1463ZM105.335 240.273C105.267 239.697 104.991 239.25 104.506 238.932C104.021 238.614 103.426 238.455 102.722 238.455C102.206 238.455 101.756 238.538 101.369 238.705C100.987 238.871 100.688 239.1 100.472 239.392C100.259 239.684 100.153 240.015 100.153 240.386C100.153 240.697 100.227 240.964 100.375 241.188C100.527 241.407 100.72 241.591 100.955 241.739C101.189 241.883 101.436 242.002 101.693 242.097C101.951 242.187 102.188 242.261 102.403 242.318L103.585 242.636C103.888 242.716 104.225 242.826 104.597 242.966C104.972 243.106 105.33 243.297 105.67 243.54C106.015 243.778 106.299 244.085 106.523 244.46C106.746 244.835 106.858 245.295 106.858 245.841C106.858 246.47 106.693 247.038 106.364 247.545C106.038 248.053 105.561 248.456 104.932 248.756C104.307 249.055 103.547 249.205 102.653 249.205C101.82 249.205 101.098 249.07 100.489 248.801C99.8826 248.532 99.4053 248.157 99.0568 247.676C98.7121 247.195 98.517 246.636 98.4716 246H99.9261C99.964 246.439 100.112 246.803 100.369 247.091C100.631 247.375 100.96 247.587 101.358 247.727C101.759 247.864 102.191 247.932 102.653 247.932C103.191 247.932 103.674 247.845 104.102 247.67C104.53 247.492 104.869 247.246 105.119 246.932C105.369 246.614 105.494 246.242 105.494 245.818C105.494 245.432 105.386 245.117 105.17 244.875C104.955 244.633 104.67 244.436 104.318 244.284C103.966 244.133 103.585 244 103.176 243.886L101.744 243.477C100.835 243.216 100.116 242.843 99.5852 242.358C99.0549 241.873 98.7898 241.239 98.7898 240.455C98.7898 239.803 98.9659 239.235 99.3182 238.75C99.6742 238.261 100.152 237.883 100.75 237.614C101.352 237.341 102.025 237.205 102.767 237.205C103.517 237.205 104.184 237.339 104.767 237.608C105.35 237.873 105.813 238.237 106.153 238.699C106.498 239.161 106.68 239.686 106.699 240.273H105.335ZM108.538 238.614V237.364H117.266V238.614H113.607V249H112.197V238.614H108.538ZM119.44 249V237.364H123.372C124.281 237.364 125.027 237.519 125.611 237.83C126.194 238.136 126.626 238.559 126.906 239.097C127.187 239.634 127.327 240.246 127.327 240.932C127.327 241.617 127.187 242.225 126.906 242.756C126.626 243.286 126.196 243.703 125.616 244.006C125.037 244.305 124.296 244.455 123.395 244.455H120.213V243.182H123.349C123.971 243.182 124.471 243.091 124.849 242.909C125.232 242.727 125.509 242.47 125.679 242.136C125.853 241.799 125.94 241.398 125.94 240.932C125.94 240.466 125.853 240.059 125.679 239.71C125.505 239.362 125.226 239.093 124.844 238.903C124.461 238.71 123.955 238.614 123.327 238.614H120.849V249H119.44ZM124.918 243.773L127.781 249H126.145L123.327 243.773H124.918ZM130.152 249H128.675L132.947 237.364H134.402L138.675 249H137.197L133.72 239.205H133.629L130.152 249ZM130.697 244.455H136.652V245.705H130.697V244.455ZM149.304 241H147.895C147.812 240.595 147.666 240.239 147.457 239.932C147.253 239.625 147.003 239.367 146.707 239.159C146.416 238.947 146.092 238.788 145.736 238.682C145.38 238.576 145.009 238.523 144.622 238.523C143.918 238.523 143.279 238.701 142.707 239.057C142.139 239.413 141.687 239.938 141.349 240.631C141.016 241.324 140.849 242.174 140.849 243.182C140.849 244.189 141.016 245.04 141.349 245.733C141.687 246.426 142.139 246.951 142.707 247.307C143.279 247.663 143.918 247.841 144.622 247.841C145.009 247.841 145.38 247.788 145.736 247.682C146.092 247.576 146.416 247.419 146.707 247.21C147.003 246.998 147.253 246.739 147.457 246.432C147.666 246.121 147.812 245.765 147.895 245.364H149.304C149.198 245.958 149.005 246.491 148.724 246.96C148.444 247.43 148.096 247.83 147.679 248.159C147.262 248.485 146.795 248.733 146.276 248.903C145.76 249.074 145.209 249.159 144.622 249.159C143.63 249.159 142.747 248.917 141.974 248.432C141.202 247.947 140.594 247.258 140.151 246.364C139.707 245.47 139.486 244.409 139.486 243.182C139.486 241.955 139.707 240.894 140.151 240C140.594 239.106 141.202 238.417 141.974 237.932C142.747 237.447 143.63 237.205 144.622 237.205C145.209 237.205 145.76 237.29 146.276 237.46C146.795 237.631 147.262 237.881 147.679 238.21C148.096 238.536 148.444 238.934 148.724 239.403C149.005 239.869 149.198 240.402 149.304 241ZM152.99 237.364V249H151.581V237.364H152.99ZM165.634 243.182C165.634 244.409 165.412 245.47 164.969 246.364C164.526 247.258 163.918 247.947 163.145 248.432C162.372 248.917 161.49 249.159 160.497 249.159C159.505 249.159 158.622 248.917 157.849 248.432C157.077 247.947 156.469 247.258 156.026 246.364C155.582 245.47 155.361 244.409 155.361 243.182C155.361 241.955 155.582 240.894 156.026 240C156.469 239.106 157.077 238.417 157.849 237.932C158.622 237.447 159.505 237.205 160.497 237.205C161.49 237.205 162.372 237.447 163.145 237.932C163.918 238.417 164.526 239.106 164.969 240C165.412 240.894 165.634 241.955 165.634 243.182ZM164.27 243.182C164.27 242.174 164.101 241.324 163.764 240.631C163.431 239.938 162.978 239.413 162.406 239.057C161.838 238.701 161.202 238.523 160.497 238.523C159.793 238.523 159.154 238.701 158.582 239.057C158.014 239.413 157.562 239.938 157.224 240.631C156.891 241.324 156.724 242.174 156.724 243.182C156.724 244.189 156.891 245.04 157.224 245.733C157.562 246.426 158.014 246.951 158.582 247.307C159.154 247.663 159.793 247.841 160.497 247.841C161.202 247.841 161.838 247.663 162.406 247.307C162.978 246.951 163.431 246.426 163.764 245.733C164.101 245.04 164.27 244.189 164.27 243.182ZM159.884 236.182L161.27 233.545H162.838L161.065 236.182H159.884ZM177.23 237.364V249H175.866L169.526 239.864H169.412V249H168.003V237.364H169.366L175.73 246.523H175.844V237.364H177.23Z" fill="black"/>
</svg>
