<svg width="220" height="263" viewBox="0 0 220 263" fill="none" xmlns="http://www.w3.org/2000/svg">
<rect width="220" height="263" fill="#F9F5F5"/>
<circle cx="110" cy="110" r="99.5" fill="white" stroke="black"/>
<g clip-path="url(#clip0_210_215)">
<path d="M96.8137 74.3583C94.8245 74.3583 92.9937 74.7424 91.321 75.511C86.3559 78.0102 83.4242 82.7599 83.3869 88.0562V124.539C84.3182 130.339 90.9566 128.762 91.1174 124.539V90.0906C91.709 88.1262 95.5022 88.9407 95.593 90.0906V169.159C96.5575 177.233 106.99 174.863 107.257 169.024V120.606C107.924 117.483 112.314 118.902 112.41 120.742C112.224 136.835 112.275 152.929 112.275 169.024C113.315 177.056 123.697 175.001 123.938 169.159L124.074 90.0906C124.682 88.1685 128.197 88.9058 128.278 90.0906V124.539C129.21 130.339 135.848 128.762 136.009 124.539V88.0562C135.915 82.9857 134.057 77.9061 129.634 75.511C128.188 74.7424 126.425 74.3582 124.345 74.3582L96.8137 74.3583ZM96.9505 57.7902C96.9505 64.829 102.657 70.5352 109.695 70.5352C116.734 70.5352 122.44 64.829 122.44 57.7902C122.44 50.7515 116.734 45.0453 109.696 45.0453C102.657 45.0453 96.9505 50.7515 96.9505 57.7902Z" fill="#8BE1D1"/>
<path d="M136.479 106.029C135.783 106.029 135.115 106.305 134.623 106.797C134.131 107.289 133.854 107.957 133.854 108.653V113.901C133.854 114.597 134.131 115.265 134.623 115.757C135.115 116.249 135.783 116.525 136.479 116.525C137.175 116.525 137.842 116.249 138.334 115.757C138.826 115.265 139.103 114.597 139.103 113.901C139.103 113.205 139.379 112.538 139.871 112.046C140.363 111.554 141.031 111.277 141.727 111.277C142.423 111.277 143.09 111.554 143.583 112.046C144.075 112.538 144.351 113.205 144.351 113.901C144.352 115.199 144.031 116.477 143.419 117.621C142.806 118.765 141.92 119.74 140.84 120.459C139.759 121.178 138.518 121.619 137.226 121.742C135.934 121.865 134.631 121.667 133.434 121.165C132.971 125.319 131.894 129.382 130.238 133.221C128.081 138.149 125.247 141.665 122.691 144.515C120.865 146.557 119.684 149.485 118.986 152.97C118.288 156.434 118.109 160.218 118.109 163.761C118.109 165.351 117.532 167.272 116.482 169.009H138.657C138.11 167.476 137.104 166.149 135.774 165.209C134.445 164.27 132.858 163.764 131.23 163.761H128.606C127.91 163.761 127.243 163.484 126.75 162.992C126.258 162.5 125.982 161.833 125.982 161.137C125.982 160.441 126.258 159.773 126.75 159.281C127.243 158.789 127.91 158.512 128.606 158.512H131.23C132.128 158.512 133.004 158.602 133.854 158.775V150.64C133.854 149.944 134.131 149.276 134.623 148.784C135.115 148.292 135.783 148.016 136.479 148.016C137.175 148.016 137.842 148.292 138.334 148.784C138.826 149.276 139.103 149.944 139.103 150.64V161.137C141.622 163.026 143.438 165.808 144.089 169.009H154.402C153.859 167.474 152.853 166.144 151.523 165.204C150.193 164.264 148.604 163.76 146.975 163.761C146.279 163.761 145.612 163.484 145.12 162.992C144.628 162.5 144.351 161.833 144.351 161.137V124.398C144.351 123.702 144.628 123.035 145.12 122.542C145.612 122.05 146.279 121.774 146.975 121.774H152.224C152.92 121.774 153.587 121.497 154.079 121.005C154.571 120.513 154.848 119.846 154.848 119.15V114.248C154.848 113.794 154.731 113.348 154.507 112.954C154.284 112.559 153.962 112.229 153.573 111.996L144.246 106.401C143.839 106.157 143.372 106.029 142.897 106.029H136.479ZM107.612 169.009C109.26 169.009 110.531 168.211 111.47 167.041C112.467 165.787 112.861 164.38 112.861 163.761C112.861 160.087 113.045 155.904 113.837 151.936C114.63 148 116.078 144.037 118.776 141.02C121.174 138.343 123.594 135.299 125.441 131.105C127.273 126.922 128.606 121.448 128.606 113.901V108.653C128.606 106.565 129.435 104.563 130.912 103.086C132.388 101.61 134.391 100.78 136.479 100.78H142.897C144.325 100.78 145.725 101.169 146.949 101.903L156.275 107.498C157.441 108.198 158.405 109.187 159.075 110.37C159.744 111.553 160.096 112.889 160.096 114.248V119.15C160.096 121.238 159.267 123.24 157.79 124.716C156.314 126.193 154.312 127.022 152.224 127.022H149.599V158.775C152.563 159.38 155.227 160.99 157.14 163.333C159.052 165.677 160.097 168.609 160.096 171.633C160.096 172.329 159.82 172.997 159.328 173.489C158.836 173.981 158.168 174.258 157.472 174.258H106.3C103.203 174.259 100.188 173.263 97.7 171.419C95.212 169.574 93.3834 166.978 92.4843 164.014C91.5852 161.051 91.6634 157.876 92.7072 154.96C93.751 152.044 95.7052 149.541 98.2809 147.822C98.5671 147.623 98.89 147.483 99.2308 147.41C99.5716 147.338 99.9234 147.334 100.266 147.398C100.608 147.463 100.934 147.596 101.225 147.788C101.516 147.98 101.765 148.228 101.959 148.518C102.153 148.807 102.287 149.132 102.354 149.474C102.42 149.816 102.418 150.168 102.347 150.51C102.277 150.851 102.139 151.174 101.942 151.462C101.744 151.749 101.492 151.994 101.199 152.183C99.5585 153.277 98.3136 154.869 97.6483 156.726C96.9831 158.582 96.9327 160.603 97.5048 162.489C98.0769 164.376 99.241 166.029 100.825 167.203C102.409 168.377 104.329 169.011 106.3 169.009H107.612Z" fill="#282826" fill-opacity="0.79"/>
</g>
<path d="M59.3864 249H57.9091L62.1818 237.364H63.6364L67.9091 249H66.4318L62.9545 239.205H62.8636L59.3864 249ZM59.9318 244.455H65.8864V245.705H59.9318V244.455ZM73.3125 249H69.7216V237.364H73.4716C74.6004 237.364 75.5663 237.597 76.3693 238.062C77.1723 238.525 77.7879 239.189 78.2159 240.057C78.6439 240.92 78.858 241.955 78.858 243.159C78.858 244.371 78.642 245.415 78.2102 246.29C77.7784 247.161 77.1496 247.831 76.3239 248.301C75.4981 248.767 74.4943 249 73.3125 249ZM71.1307 247.75H73.2216C74.1837 247.75 74.9811 247.564 75.6136 247.193C76.2462 246.822 76.7178 246.294 77.0284 245.608C77.339 244.922 77.4943 244.106 77.4943 243.159C77.4943 242.22 77.3409 241.411 77.0341 240.733C76.7273 240.051 76.2689 239.528 75.6591 239.165C75.0492 238.797 74.2898 238.614 73.3807 238.614H71.1307V247.75ZM91.0398 243.182C91.0398 244.409 90.8182 245.47 90.375 246.364C89.9318 247.258 89.3239 247.947 88.5511 248.432C87.7784 248.917 86.8958 249.159 85.9034 249.159C84.911 249.159 84.0284 248.917 83.2557 248.432C82.483 247.947 81.875 247.258 81.4318 246.364C80.9886 245.47 80.767 244.409 80.767 243.182C80.767 241.955 80.9886 240.894 81.4318 240C81.875 239.106 82.483 238.417 83.2557 237.932C84.0284 237.447 84.911 237.205 85.9034 237.205C86.8958 237.205 87.7784 237.447 88.5511 237.932C89.3239 238.417 89.9318 239.106 90.375 240C90.8182 240.894 91.0398 241.955 91.0398 243.182ZM89.6761 243.182C89.6761 242.174 89.5076 241.324 89.1705 240.631C88.8371 239.938 88.3845 239.413 87.8125 239.057C87.2443 238.701 86.608 238.523 85.9034 238.523C85.1989 238.523 84.5606 238.701 83.9886 239.057C83.4205 239.413 82.9678 239.938 82.6307 240.631C82.2973 241.324 82.1307 242.174 82.1307 243.182C82.1307 244.189 82.2973 245.04 82.6307 245.733C82.9678 246.426 83.4205 246.951 83.9886 247.307C84.5606 247.663 85.1989 247.841 85.9034 247.841C86.608 247.841 87.2443 247.663 87.8125 247.307C88.3845 246.951 88.8371 246.426 89.1705 245.733C89.5076 245.04 89.6761 244.189 89.6761 243.182ZM93.4091 249V237.364H97.3409C98.2538 237.364 99 237.528 99.5795 237.858C100.163 238.184 100.595 238.625 100.875 239.182C101.155 239.739 101.295 240.36 101.295 241.045C101.295 241.731 101.155 242.354 100.875 242.915C100.598 243.475 100.17 243.922 99.5909 244.256C99.0114 244.585 98.2689 244.75 97.3636 244.75H94.5455V243.5H97.3182C97.9432 243.5 98.4451 243.392 98.8239 243.176C99.2027 242.96 99.4773 242.669 99.6477 242.301C99.822 241.93 99.9091 241.511 99.9091 241.045C99.9091 240.58 99.822 240.163 99.6477 239.795C99.4773 239.428 99.2008 239.14 98.8182 238.932C98.4356 238.72 97.928 238.614 97.2955 238.614H94.8182V249H93.4091ZM112.929 241H111.52C111.437 240.595 111.291 240.239 111.082 239.932C110.878 239.625 110.628 239.367 110.332 239.159C110.041 238.947 109.717 238.788 109.361 238.682C109.005 238.576 108.634 238.523 108.247 238.523C107.543 238.523 106.904 238.701 106.332 239.057C105.764 239.413 105.312 239.938 104.974 240.631C104.641 241.324 104.474 242.174 104.474 243.182C104.474 244.189 104.641 245.04 104.974 245.733C105.312 246.426 105.764 246.951 106.332 247.307C106.904 247.663 107.543 247.841 108.247 247.841C108.634 247.841 109.005 247.788 109.361 247.682C109.717 247.576 110.041 247.419 110.332 247.21C110.628 246.998 110.878 246.739 111.082 246.432C111.291 246.121 111.437 245.765 111.52 245.364H112.929C112.823 245.958 112.63 246.491 112.349 246.96C112.069 247.43 111.721 247.83 111.304 248.159C110.887 248.485 110.42 248.733 109.901 248.903C109.385 249.074 108.834 249.159 108.247 249.159C107.255 249.159 106.372 248.917 105.599 248.432C104.827 247.947 104.219 247.258 103.776 246.364C103.332 245.47 103.111 244.409 103.111 243.182C103.111 241.955 103.332 240.894 103.776 240C104.219 239.106 104.827 238.417 105.599 237.932C106.372 237.447 107.255 237.205 108.247 237.205C108.834 237.205 109.385 237.29 109.901 237.46C110.42 237.631 110.887 237.881 111.304 238.21C111.721 238.536 112.069 238.934 112.349 239.403C112.63 239.869 112.823 240.402 112.929 241ZM116.615 237.364V249H115.206V237.364H116.615ZM129.259 243.182C129.259 244.409 129.037 245.47 128.594 246.364C128.151 247.258 127.543 247.947 126.77 248.432C125.997 248.917 125.115 249.159 124.122 249.159C123.13 249.159 122.247 248.917 121.474 248.432C120.702 247.947 120.094 247.258 119.651 246.364C119.207 245.47 118.986 244.409 118.986 243.182C118.986 241.955 119.207 240.894 119.651 240C120.094 239.106 120.702 238.417 121.474 237.932C122.247 237.447 123.13 237.205 124.122 237.205C125.115 237.205 125.997 237.447 126.77 237.932C127.543 238.417 128.151 239.106 128.594 240C129.037 240.894 129.259 241.955 129.259 243.182ZM127.895 243.182C127.895 242.174 127.726 241.324 127.389 240.631C127.056 239.938 126.603 239.413 126.031 239.057C125.463 238.701 124.827 238.523 124.122 238.523C123.418 238.523 122.779 238.701 122.207 239.057C121.639 239.413 121.187 239.938 120.849 240.631C120.516 241.324 120.349 242.174 120.349 243.182C120.349 244.189 120.516 245.04 120.849 245.733C121.187 246.426 121.639 246.951 122.207 247.307C122.779 247.663 123.418 247.841 124.122 247.841C124.827 247.841 125.463 247.663 126.031 247.307C126.603 246.951 127.056 246.426 127.389 245.733C127.726 245.04 127.895 244.189 127.895 243.182ZM140.855 237.364V249H139.491L133.151 239.864H133.037V249H131.628V237.364H132.991L139.355 246.523H139.469V237.364H140.855ZM143.675 249V237.364H150.697V238.614H145.084V242.545H150.334V243.795H145.084V247.75H150.788V249H143.675ZM159.601 240.273C159.533 239.697 159.256 239.25 158.771 238.932C158.286 238.614 157.692 238.455 156.987 238.455C156.472 238.455 156.021 238.538 155.635 238.705C155.252 238.871 154.953 239.1 154.737 239.392C154.525 239.684 154.419 240.015 154.419 240.386C154.419 240.697 154.493 240.964 154.641 241.188C154.792 241.407 154.985 241.591 155.22 241.739C155.455 241.883 155.701 242.002 155.959 242.097C156.216 242.187 156.453 242.261 156.669 242.318L157.851 242.636C158.154 242.716 158.491 242.826 158.862 242.966C159.237 243.106 159.595 243.297 159.936 243.54C160.281 243.778 160.565 244.085 160.788 244.46C161.012 244.835 161.124 245.295 161.124 245.841C161.124 246.47 160.959 247.038 160.629 247.545C160.304 248.053 159.826 248.456 159.197 248.756C158.572 249.055 157.813 249.205 156.919 249.205C156.086 249.205 155.364 249.07 154.754 248.801C154.148 248.532 153.671 248.157 153.322 247.676C152.978 247.195 152.783 246.636 152.737 246H154.192C154.23 246.439 154.377 246.803 154.635 247.091C154.896 247.375 155.226 247.587 155.624 247.727C156.025 247.864 156.457 247.932 156.919 247.932C157.457 247.932 157.94 247.845 158.368 247.67C158.796 247.492 159.135 247.246 159.385 246.932C159.635 246.614 159.76 246.242 159.76 245.818C159.76 245.432 159.652 245.117 159.436 244.875C159.22 244.633 158.936 244.436 158.584 244.284C158.232 244.133 157.851 244 157.442 243.886L156.01 243.477C155.101 243.216 154.381 242.843 153.851 242.358C153.321 241.873 153.055 241.239 153.055 240.455C153.055 239.803 153.232 239.235 153.584 238.75C153.94 238.261 154.417 237.883 155.016 237.614C155.618 237.341 156.29 237.205 157.033 237.205C157.783 237.205 158.449 237.339 159.033 237.608C159.616 237.873 160.078 238.237 160.419 238.699C160.764 239.161 160.946 239.686 160.964 240.273H159.601Z" fill="black"/>
<defs>
<clipPath id="clip0_210_215">
<rect width="129.305" height="129.305" fill="white" transform="matrix(-1 0 0 1 174.351 45.0453)"/>
</clipPath>
</defs>
</svg>
