<svg width="220" height="263" viewBox="0 0 220 263" fill="none" xmlns="http://www.w3.org/2000/svg">
<rect width="220" height="263" fill="#F9F5F5"/>
<circle cx="110" cy="110" r="99.5" fill="white" stroke="black"/>
<g clip-path="url(#clip0_210_217)">
<path fill-rule="evenodd" clip-rule="evenodd" d="M141.061 63.3539C148.445 55.7661 166.913 69.0514 141.061 86.1262C115.209 69.0514 133.677 55.7661 141.061 63.3539ZM118.875 96.6692C118.875 103.73 116.07 110.502 111.077 115.495C106.084 120.488 99.3118 123.293 92.2507 123.293C85.1896 123.293 78.4177 120.488 73.4247 115.495C68.4318 110.502 65.6268 103.73 65.6268 96.6692C65.6268 89.6081 68.4318 82.8363 73.4247 77.8433C78.4177 72.8504 85.1896 70.0454 92.2507 70.0454C99.3118 70.0454 106.084 72.8504 111.077 77.8433C116.07 82.8363 118.875 89.6081 118.875 96.6692ZM39.0029 167.666C39.0029 176.541 47.8776 176.541 47.8776 176.541H136.624C136.624 176.541 145.498 176.541 145.498 167.666C145.498 158.792 136.624 132.168 92.2507 132.168C47.8776 132.168 39.0029 158.792 39.0029 167.666ZM158.81 95.8705C171.119 83.2242 201.897 105.366 158.81 133.827C115.733 105.366 146.501 83.2242 158.81 95.8794V95.8705ZM172.122 71.5097C177.048 66.4511 189.357 75.308 172.122 86.6942C154.888 75.308 167.197 66.4511 172.122 71.5186V71.5097Z" fill="#8BE1D1"/>
<path d="M125.69 188.455H159.539C162.993 188.455 165.794 185.654 165.794 182.196V154.442C171.667 154.208 175.18 147.695 172.043 142.633L170.212 139.678C169.518 138.559 168.551 137.635 167.401 136.994C166.25 136.353 164.955 136.017 163.639 136.017H158.404V133.697C158.404 133.225 158.311 132.757 158.131 132.321C157.95 131.885 157.685 131.488 157.351 131.154C157.017 130.82 156.621 130.556 156.184 130.375C155.748 130.194 155.28 130.101 154.808 130.101C153.637 130.102 152.477 130.333 151.395 130.781C150.314 131.23 149.331 131.887 148.503 132.715C147.675 133.544 147.019 134.527 146.571 135.609C146.123 136.691 145.893 137.851 145.893 139.022V151.626C141.232 152.086 137.712 154.289 135.126 157.396C132.273 160.824 130.592 165.292 129.592 169.585C128.586 173.896 128.232 178.185 128.122 181.372C128.079 182.736 128.079 183.91 128.093 184.808H125.69C124.288 184.808 122.917 184.398 121.746 183.63C120.574 182.861 119.652 181.767 119.094 180.482C118.536 179.196 118.366 177.776 118.605 176.395C118.843 175.015 119.48 173.734 120.437 172.71L123.793 169.111C126.106 166.63 127.365 163.349 127.307 159.959C127.248 156.568 125.876 153.332 123.479 150.933L120.185 147.64C120.017 147.466 119.816 147.327 119.593 147.231C119.371 147.136 119.132 147.085 118.889 147.083C118.647 147.081 118.407 147.127 118.183 147.219C117.959 147.311 117.755 147.446 117.584 147.617C117.413 147.789 117.277 147.992 117.186 148.216C117.094 148.44 117.048 148.681 117.05 148.923C117.052 149.165 117.102 149.404 117.198 149.627C117.293 149.849 117.432 150.05 117.607 150.219L120.9 153.512C122.631 155.242 123.622 157.576 123.664 160.022C123.706 162.468 122.796 164.835 121.126 166.623L117.771 170.223C116.333 171.767 115.376 173.698 115.019 175.777C114.662 177.857 114.92 179.996 115.76 181.931C116.601 183.867 117.988 185.515 119.752 186.674C121.516 187.832 123.579 188.451 125.69 188.455ZM154.761 133.748V137.84C154.761 138.324 154.953 138.788 155.295 139.13C155.637 139.472 156.101 139.664 156.584 139.664H163.639C165.054 139.664 166.367 140.393 167.111 141.597L168.946 144.555C169.33 145.174 169.541 145.885 169.559 146.614C169.576 147.342 169.398 148.062 169.043 148.699C168.689 149.336 168.171 149.867 167.543 150.237C166.914 150.606 166.199 150.802 165.47 150.802H163.974C163.491 150.802 163.027 150.994 162.685 151.336C162.343 151.678 162.151 152.142 162.151 152.626V182.196C162.151 183.637 160.983 184.808 159.539 184.808H156.927V182.196C156.928 179.361 155.803 176.641 153.799 174.635C151.795 172.629 149.076 171.501 146.24 171.499H142.541C142.058 171.499 141.594 171.691 141.252 172.033C140.91 172.375 140.717 172.839 140.717 173.323C140.717 173.807 140.91 174.27 141.252 174.612C141.594 174.954 142.058 175.146 142.541 175.146H146.236C150.128 175.146 153.283 178.301 153.283 182.196V184.808H131.741C131.723 183.954 131.723 182.824 131.766 181.492C131.868 178.443 132.204 174.417 133.141 170.413C134.079 166.386 135.585 162.538 137.927 159.727C140.214 156.988 143.318 155.186 147.717 155.186C148.201 155.186 148.665 154.994 149.007 154.652C149.349 154.31 149.541 153.846 149.541 153.362V139.022C149.541 136.126 151.872 133.774 154.757 133.748H154.761Z" fill="#623333"/>
</g>
<path d="M35.8864 249H34.4091L38.6818 237.364H40.1364L44.4091 249H42.9318L39.4545 239.205H39.3636L35.8864 249ZM36.4318 244.455H42.3864V245.705H36.4318V244.455ZM46.2216 249V237.364H50.1534C51.0663 237.364 51.8125 237.528 52.392 237.858C52.9754 238.184 53.4072 238.625 53.6875 239.182C53.9678 239.739 54.108 240.36 54.108 241.045C54.108 241.731 53.9678 242.354 53.6875 242.915C53.411 243.475 52.983 243.922 52.4034 244.256C51.8239 244.585 51.0814 244.75 50.1761 244.75H47.358V243.5H50.1307C50.7557 243.5 51.2576 243.392 51.6364 243.176C52.0152 242.96 52.2898 242.669 52.4602 242.301C52.6345 241.93 52.7216 241.511 52.7216 241.045C52.7216 240.58 52.6345 240.163 52.4602 239.795C52.2898 239.428 52.0133 239.14 51.6307 238.932C51.2481 238.72 50.7405 238.614 50.108 238.614H47.6307V249H46.2216ZM55.6676 249H54.1903L58.4631 237.364H59.9176L64.1903 249H62.7131L59.2358 239.205H59.1449L55.6676 249ZM56.2131 244.455H62.1676V245.705H56.2131V244.455ZM69.5938 249H66.0028V237.364H69.7528C70.8816 237.364 71.8475 237.597 72.6506 238.062C73.4536 238.525 74.0691 239.189 74.4972 240.057C74.9252 240.92 75.1392 241.955 75.1392 243.159C75.1392 244.371 74.9233 245.415 74.4915 246.29C74.0597 247.161 73.4309 247.831 72.6051 248.301C71.7794 248.767 70.7756 249 69.5938 249ZM67.4119 247.75H69.5028C70.465 247.75 71.2623 247.564 71.8949 247.193C72.5275 246.822 72.9991 246.294 73.3097 245.608C73.6203 244.922 73.7756 244.106 73.7756 243.159C73.7756 242.22 73.6222 241.411 73.3153 240.733C73.0085 240.051 72.5502 239.528 71.9403 239.165C71.3305 238.797 70.571 238.614 69.6619 238.614H67.4119V247.75ZM77.5028 249V237.364H81.4347C82.3438 237.364 83.09 237.519 83.6733 237.83C84.2566 238.136 84.6884 238.559 84.9688 239.097C85.2491 239.634 85.3892 240.246 85.3892 240.932C85.3892 241.617 85.2491 242.225 84.9688 242.756C84.6884 243.286 84.2585 243.703 83.679 244.006C83.0994 244.305 82.3589 244.455 81.4574 244.455H78.2756V243.182H81.4119C82.0331 243.182 82.5331 243.091 82.9119 242.909C83.2945 242.727 83.571 242.47 83.7415 242.136C83.9157 241.799 84.0028 241.398 84.0028 240.932C84.0028 240.466 83.9157 240.059 83.7415 239.71C83.5672 239.362 83.2888 239.093 82.9062 238.903C82.5237 238.71 82.018 238.614 81.3892 238.614H78.9119V249H77.5028ZM82.9801 243.773L85.8438 249H84.2074L81.3892 243.773H82.9801ZM89.1463 237.364V249H87.7372V237.364H89.1463ZM101.199 237.364V249H99.8352L93.4943 239.864H93.3807V249H91.9716V237.364H93.3352L99.6989 246.523H99.8125V237.364H101.199ZM104.496 249H103.018L107.291 237.364H108.746L113.018 249H111.541L108.064 239.205H107.973L104.496 249ZM105.041 244.455H110.996V245.705H105.041V244.455ZM114.831 237.364H116.513L120.467 247.023H120.604L124.558 237.364H126.24V249H124.922V240.159H124.808L121.172 249H119.899L116.263 240.159H116.149V249H114.831V237.364ZM130.474 237.364V249H129.065V237.364H130.474ZM133.3 249V237.364H140.322V238.614H134.709V242.545H139.959V243.795H134.709V247.75H140.413V249H133.3ZM152.089 237.364V249H150.726L144.385 239.864H144.271V249H142.862V237.364H144.226L150.589 246.523H150.703V237.364H152.089ZM154.273 238.614V237.364H163V238.614H159.341V249H157.932V238.614H154.273ZM174.509 243.182C174.509 244.409 174.287 245.47 173.844 246.364C173.401 247.258 172.793 247.947 172.02 248.432C171.247 248.917 170.365 249.159 169.372 249.159C168.38 249.159 167.497 248.917 166.724 248.432C165.952 247.947 165.344 247.258 164.901 246.364C164.457 245.47 164.236 244.409 164.236 243.182C164.236 241.955 164.457 240.894 164.901 240C165.344 239.106 165.952 238.417 166.724 237.932C167.497 237.447 168.38 237.205 169.372 237.205C170.365 237.205 171.247 237.447 172.02 237.932C172.793 238.417 173.401 239.106 173.844 240C174.287 240.894 174.509 241.955 174.509 243.182ZM173.145 243.182C173.145 242.174 172.976 241.324 172.639 240.631C172.306 239.938 171.853 239.413 171.281 239.057C170.713 238.701 170.077 238.523 169.372 238.523C168.668 238.523 168.029 238.701 167.457 239.057C166.889 239.413 166.437 239.938 166.099 240.631C165.766 241.324 165.599 242.174 165.599 243.182C165.599 244.189 165.766 245.04 166.099 245.733C166.437 246.426 166.889 246.951 167.457 247.307C168.029 247.663 168.668 247.841 169.372 247.841C170.077 247.841 170.713 247.663 171.281 247.307C171.853 246.951 172.306 246.426 172.639 245.733C172.976 245.04 173.145 244.189 173.145 243.182ZM183.241 240.273C183.173 239.697 182.897 239.25 182.412 238.932C181.927 238.614 181.332 238.455 180.628 238.455C180.113 238.455 179.662 238.538 179.276 238.705C178.893 238.871 178.594 239.1 178.378 239.392C178.166 239.684 178.06 240.015 178.06 240.386C178.06 240.697 178.134 240.964 178.281 241.188C178.433 241.407 178.626 241.591 178.861 241.739C179.096 241.883 179.342 242.002 179.599 242.097C179.857 242.187 180.094 242.261 180.31 242.318L181.491 242.636C181.795 242.716 182.132 242.826 182.503 242.966C182.878 243.106 183.236 243.297 183.577 243.54C183.921 243.778 184.205 244.085 184.429 244.46C184.652 244.835 184.764 245.295 184.764 245.841C184.764 246.47 184.599 247.038 184.27 247.545C183.944 248.053 183.467 248.456 182.838 248.756C182.213 249.055 181.454 249.205 180.56 249.205C179.726 249.205 179.005 249.07 178.395 248.801C177.789 248.532 177.312 248.157 176.963 247.676C176.618 247.195 176.423 246.636 176.378 246H177.832C177.87 246.439 178.018 246.803 178.276 247.091C178.537 247.375 178.866 247.587 179.264 247.727C179.666 247.864 180.098 247.932 180.56 247.932C181.098 247.932 181.58 247.845 182.009 247.67C182.437 247.492 182.776 247.246 183.026 246.932C183.276 246.614 183.401 246.242 183.401 245.818C183.401 245.432 183.293 245.117 183.077 244.875C182.861 244.633 182.577 244.436 182.224 244.284C181.872 244.133 181.491 244 181.082 243.886L179.651 243.477C178.741 243.216 178.022 242.843 177.491 242.358C176.961 241.873 176.696 241.239 176.696 240.455C176.696 239.803 176.872 239.235 177.224 238.75C177.58 238.261 178.058 237.883 178.656 237.614C179.259 237.341 179.931 237.205 180.673 237.205C181.423 237.205 182.09 237.339 182.673 237.608C183.257 237.873 183.719 238.237 184.06 238.699C184.404 239.161 184.586 239.686 184.605 240.273H183.241Z" fill="black"/>
<defs>
<clipPath id="clip0_210_217">
<rect width="141.994" height="141.994" fill="white" transform="translate(39.0029 52.2961)"/>
</clipPath>
</defs>
</svg>
