<svg width="220" height="263" viewBox="0 0 220 263" fill="none" xmlns="http://www.w3.org/2000/svg">
<rect width="220" height="263" fill="#F9F5F5"/>
<circle cx="110" cy="110" r="99.5" fill="white" stroke="black"/>
<g clip-path="url(#clip0_210_216)">
<path d="M149.174 151.642H70.2211C64.7931 151.642 60.3521 147.2 60.3521 141.772V90.2065C60.3521 86.9991 61.8324 84.0383 64.5464 82.0645L109.697 50.4835L154.849 82.0645C157.563 83.7916 159.043 86.9991 159.043 90.2065V141.772C159.043 147.2 154.602 151.642 149.174 151.642Z" fill="#78909C"/>
<path d="M85.0247 52.9507H134.37V129.436H85.0247V52.9507Z" fill="#AED581"/>
<path d="M82.5574 50.4835V131.903H136.837V50.4835H82.5574ZM131.903 126.969H87.4919V55.418H131.903V126.969Z" fill="#558B2F"/>
<path d="M134.37 57.8853C134.37 62.0796 133.63 65.2871 129.436 65.2871C125.241 65.2871 122.034 62.0796 122.034 57.8853C122.034 53.6909 125.241 52.9507 129.436 52.9507C133.63 52.9507 134.37 53.6909 134.37 57.8853ZM89.9592 52.9507C94.1536 52.9507 97.361 53.6909 97.361 57.8853C97.361 62.0796 94.1536 65.2871 89.9592 65.2871C85.7648 65.2871 85.0247 62.0796 85.0247 57.8853C85.0247 53.6909 85.7648 52.9507 89.9592 52.9507Z" fill="#558B2F"/>
<path d="M109.697 75.1562C112.423 75.1562 114.632 72.9469 114.632 70.2217C114.632 67.4964 112.423 65.2871 109.697 65.2871C106.972 65.2871 104.763 67.4964 104.763 70.2217C104.763 72.9469 106.972 75.1562 109.697 75.1562Z" fill="#558B2F"/>
<path d="M109.697 114.633C117.873 114.633 124.501 108.005 124.501 99.8289C124.501 91.6531 117.873 85.0253 109.697 85.0253C101.522 85.0253 94.8938 91.6531 94.8938 99.8289C94.8938 108.005 101.522 114.633 109.697 114.633Z" fill="#558B2F"/>
<path d="M149.174 151.642H70.2211C64.7931 151.642 60.3521 147.2 60.3521 141.772V92.4271L109.697 124.502L159.043 92.4271V141.772C159.043 147.2 154.602 151.642 149.174 151.642Z" fill="#CFD8DC"/>
</g>
<path d="M62 249H58.4091V237.364H62.1591C63.2879 237.364 64.2538 237.597 65.0568 238.062C65.8598 238.525 66.4754 239.189 66.9034 240.057C67.3314 240.92 67.5455 241.955 67.5455 243.159C67.5455 244.371 67.3295 245.415 66.8977 246.29C66.4659 247.161 65.8371 247.831 65.0114 248.301C64.1856 248.767 63.1818 249 62 249ZM59.8182 247.75H61.9091C62.8712 247.75 63.6686 247.564 64.3011 247.193C64.9337 246.822 65.4053 246.294 65.7159 245.608C66.0265 244.922 66.1818 244.106 66.1818 243.159C66.1818 242.22 66.0284 241.411 65.7216 240.733C65.4148 240.051 64.9564 239.528 64.3466 239.165C63.7367 238.797 62.9773 238.614 62.0682 238.614H59.8182V247.75ZM79.7273 243.182C79.7273 244.409 79.5057 245.47 79.0625 246.364C78.6193 247.258 78.0114 247.947 77.2386 248.432C76.4659 248.917 75.5833 249.159 74.5909 249.159C73.5985 249.159 72.7159 248.917 71.9432 248.432C71.1705 247.947 70.5625 247.258 70.1193 246.364C69.6761 245.47 69.4545 244.409 69.4545 243.182C69.4545 241.955 69.6761 240.894 70.1193 240C70.5625 239.106 71.1705 238.417 71.9432 237.932C72.7159 237.447 73.5985 237.205 74.5909 237.205C75.5833 237.205 76.4659 237.447 77.2386 237.932C78.0114 238.417 78.6193 239.106 79.0625 240C79.5057 240.894 79.7273 241.955 79.7273 243.182ZM78.3636 243.182C78.3636 242.174 78.1951 241.324 77.858 240.631C77.5246 239.938 77.072 239.413 76.5 239.057C75.9318 238.701 75.2955 238.523 74.5909 238.523C73.8864 238.523 73.2481 238.701 72.6761 239.057C72.108 239.413 71.6553 239.938 71.3182 240.631C70.9848 241.324 70.8182 242.174 70.8182 243.182C70.8182 244.189 70.9848 245.04 71.3182 245.733C71.6553 246.426 72.108 246.951 72.6761 247.307C73.2481 247.663 73.8864 247.841 74.5909 247.841C75.2955 247.841 75.9318 247.663 76.5 247.307C77.072 246.951 77.5246 246.426 77.858 245.733C78.1951 245.04 78.3636 244.189 78.3636 243.182ZM91.3239 237.364V249H89.9602L83.6193 239.864H83.5057V249H82.0966V237.364H83.4602L89.8239 246.523H89.9375V237.364H91.3239ZM94.6207 249H93.1435L97.4162 237.364H98.8707L103.143 249H101.666L98.1889 239.205H98.098L94.6207 249ZM95.1662 244.455H101.121V245.705H95.1662V244.455ZM113.773 241H112.364C112.28 240.595 112.134 240.239 111.926 239.932C111.722 239.625 111.472 239.367 111.176 239.159C110.884 238.947 110.561 238.788 110.205 238.682C109.848 238.576 109.477 238.523 109.091 238.523C108.386 238.523 107.748 238.701 107.176 239.057C106.608 239.413 106.155 239.938 105.818 240.631C105.485 241.324 105.318 242.174 105.318 243.182C105.318 244.189 105.485 245.04 105.818 245.733C106.155 246.426 106.608 246.951 107.176 247.307C107.748 247.663 108.386 247.841 109.091 247.841C109.477 247.841 109.848 247.788 110.205 247.682C110.561 247.576 110.884 247.419 111.176 247.21C111.472 246.998 111.722 246.739 111.926 246.432C112.134 246.121 112.28 245.765 112.364 245.364H113.773C113.667 245.958 113.473 246.491 113.193 246.96C112.913 247.43 112.564 247.83 112.148 248.159C111.731 248.485 111.263 248.733 110.744 248.903C110.229 249.074 109.678 249.159 109.091 249.159C108.098 249.159 107.216 248.917 106.443 248.432C105.67 247.947 105.063 247.258 104.619 246.364C104.176 245.47 103.955 244.409 103.955 243.182C103.955 241.955 104.176 240.894 104.619 240C105.063 239.106 105.67 238.417 106.443 237.932C107.216 237.447 108.098 237.205 109.091 237.205C109.678 237.205 110.229 237.29 110.744 237.46C111.263 237.631 111.731 237.881 112.148 238.21C112.564 238.536 112.913 238.934 113.193 239.403C113.473 239.869 113.667 240.402 113.773 241ZM117.459 237.364V249H116.05V237.364H117.459ZM130.102 243.182C130.102 244.409 129.881 245.47 129.438 246.364C128.994 247.258 128.386 247.947 127.614 248.432C126.841 248.917 125.958 249.159 124.966 249.159C123.973 249.159 123.091 248.917 122.318 248.432C121.545 247.947 120.938 247.258 120.494 246.364C120.051 245.47 119.83 244.409 119.83 243.182C119.83 241.955 120.051 240.894 120.494 240C120.938 239.106 121.545 238.417 122.318 237.932C123.091 237.447 123.973 237.205 124.966 237.205C125.958 237.205 126.841 237.447 127.614 237.932C128.386 238.417 128.994 239.106 129.438 240C129.881 240.894 130.102 241.955 130.102 243.182ZM128.739 243.182C128.739 242.174 128.57 241.324 128.233 240.631C127.9 239.938 127.447 239.413 126.875 239.057C126.307 238.701 125.67 238.523 124.966 238.523C124.261 238.523 123.623 238.701 123.051 239.057C122.483 239.413 122.03 239.938 121.693 240.631C121.36 241.324 121.193 242.174 121.193 243.182C121.193 244.189 121.36 245.04 121.693 245.733C122.03 246.426 122.483 246.951 123.051 247.307C123.623 247.663 124.261 247.841 124.966 247.841C125.67 247.841 126.307 247.663 126.875 247.307C127.447 246.951 127.9 246.426 128.233 245.733C128.57 245.04 128.739 244.189 128.739 243.182ZM141.699 237.364V249H140.335L133.994 239.864H133.881V249H132.472V237.364H133.835L140.199 246.523H140.312V237.364H141.699ZM144.518 249V237.364H151.541V238.614H145.928V242.545H151.178V243.795H145.928V247.75H151.632V249H144.518ZM160.445 240.273C160.376 239.697 160.1 239.25 159.615 238.932C159.13 238.614 158.536 238.455 157.831 238.455C157.316 238.455 156.865 238.538 156.479 238.705C156.096 238.871 155.797 239.1 155.581 239.392C155.369 239.684 155.263 240.015 155.263 240.386C155.263 240.697 155.337 240.964 155.484 241.188C155.636 241.407 155.829 241.591 156.064 241.739C156.299 241.883 156.545 242.002 156.803 242.097C157.06 242.187 157.297 242.261 157.513 242.318L158.695 242.636C158.998 242.716 159.335 242.826 159.706 242.966C160.081 243.106 160.439 243.297 160.78 243.54C161.125 243.778 161.409 244.085 161.632 244.46C161.856 244.835 161.967 245.295 161.967 245.841C161.967 246.47 161.803 247.038 161.473 247.545C161.147 248.053 160.67 248.456 160.041 248.756C159.416 249.055 158.657 249.205 157.763 249.205C156.929 249.205 156.208 249.07 155.598 248.801C154.992 248.532 154.515 248.157 154.166 247.676C153.821 247.195 153.626 246.636 153.581 246H155.036C155.073 246.439 155.221 246.803 155.479 247.091C155.74 247.375 156.07 247.587 156.467 247.727C156.869 247.864 157.301 247.932 157.763 247.932C158.301 247.932 158.784 247.845 159.212 247.67C159.64 247.492 159.979 247.246 160.229 246.932C160.479 246.614 160.604 246.242 160.604 245.818C160.604 245.432 160.496 245.117 160.28 244.875C160.064 244.633 159.78 244.436 159.428 244.284C159.075 244.133 158.695 244 158.286 243.886L156.854 243.477C155.945 243.216 155.225 242.843 154.695 242.358C154.164 241.873 153.899 241.239 153.899 240.455C153.899 239.803 154.075 239.235 154.428 238.75C154.784 238.261 155.261 237.883 155.859 237.614C156.462 237.341 157.134 237.205 157.876 237.205C158.626 237.205 159.293 237.339 159.876 237.608C160.46 237.873 160.922 238.237 161.263 238.699C161.607 239.161 161.789 239.686 161.808 240.273H160.445Z" fill="black"/>
<defs>
<clipPath id="clip0_210_216">
<rect width="118.429" height="118.429" fill="white" transform="translate(50.4829 50.4835)"/>
</clipPath>
</defs>
</svg>
