<svg width="220" height="263" viewBox="0 0 220 263" fill="none" xmlns="http://www.w3.org/2000/svg">
<rect width="220" height="263" fill="#F9F5F5"/>
<path d="M211.5 110C211.5 167.728 166.043 214.5 110 214.5C53.9567 214.5 8.5 167.728 8.5 110C8.5 52.2725 53.9567 5.5 110 5.5C166.043 5.5 211.5 52.2725 211.5 110Z" fill="white" stroke="black"/>
<path d="M108.279 80.6981L54.4123 121.987V166.55C54.4123 167.703 54.9048 168.81 55.7815 169.626C56.6582 170.442 57.8472 170.9 59.087 170.9L91.827 170.821C93.0627 170.815 94.2457 170.355 95.1173 169.539C95.989 168.724 96.4783 167.621 96.4782 166.471V140.447C96.4782 139.293 96.9707 138.186 97.8474 137.37C98.7241 136.554 99.9131 136.096 101.153 136.096H119.851C121.091 136.096 122.28 136.554 123.157 137.37C124.034 138.186 124.526 139.293 124.526 140.447V166.452C124.524 167.024 124.644 167.591 124.878 168.121C125.112 168.65 125.456 169.131 125.89 169.537C126.324 169.942 126.84 170.264 127.408 170.483C127.977 170.703 128.586 170.816 129.201 170.816L161.929 170.9C163.169 170.9 164.358 170.442 165.235 169.626C166.111 168.81 166.604 167.703 166.604 166.55V121.957L112.749 80.6981C112.116 80.2232 111.327 79.9642 110.514 79.9642C109.701 79.9642 108.912 80.2232 108.279 80.6981ZM193.366 108.761L168.941 90.0245V52.3629C168.941 51.4975 168.572 50.6676 167.914 50.0557C167.257 49.4438 166.365 49.1 165.435 49.1H149.074C148.144 49.1 147.252 49.4438 146.595 50.0557C145.937 50.6676 145.568 51.4975 145.568 52.3629V72.1059L119.41 52.0774C116.9 50.1549 113.75 49.1038 110.499 49.1038C107.248 49.1038 104.098 50.1549 101.588 52.0774L27.6325 108.761C27.2775 109.035 26.9837 109.37 26.7681 109.749C26.5525 110.128 26.4191 110.542 26.3757 110.969C26.3323 111.396 26.3797 111.826 26.5151 112.236C26.6505 112.646 26.8714 113.026 27.165 113.357L34.6152 121.786C34.9081 122.117 35.2683 122.392 35.6752 122.593C36.0821 122.795 36.5278 122.92 36.9867 122.961C37.4456 123.002 37.9087 122.959 38.3496 122.833C38.7904 122.707 39.2003 122.502 39.5557 122.229L108.279 69.55C108.912 69.0751 109.701 68.8161 110.514 68.8161C111.327 68.8161 112.116 69.0751 112.749 69.55L181.475 122.229C181.83 122.502 182.239 122.708 182.679 122.834C183.119 122.96 183.582 123.004 184.041 122.964C184.499 122.923 184.945 122.799 185.352 122.598C185.759 122.398 186.119 122.124 186.412 121.794L193.863 113.365C194.156 113.033 194.376 112.65 194.51 112.238C194.644 111.827 194.689 111.395 194.643 110.967C194.596 110.539 194.46 110.124 194.241 109.746C194.022 109.367 193.724 109.033 193.366 108.761Z" fill="#8BE1D1"/>
<path d="M53.9091 254V242.364H60.8864V243.614H55.3182V247.545H60.3636V248.795H55.3182V254H53.9091ZM70.9361 242.364H72.3452V250.068C72.3452 250.864 72.1577 251.574 71.7827 252.199C71.4115 252.82 70.8868 253.311 70.2088 253.67C69.5308 254.027 68.7353 254.205 67.8224 254.205C66.9096 254.205 66.1141 254.027 65.4361 253.67C64.758 253.311 64.2315 252.82 63.8565 252.199C63.4853 251.574 63.2997 250.864 63.2997 250.068V242.364H64.7088V249.955C64.7088 250.523 64.8338 251.028 65.0838 251.472C65.3338 251.911 65.6899 252.258 66.152 252.511C66.6179 252.761 67.1747 252.886 67.8224 252.886C68.4702 252.886 69.027 252.761 69.4929 252.511C69.9588 252.258 70.3149 251.911 70.5611 251.472C70.8111 251.028 70.9361 250.523 70.9361 249.955V242.364ZM84.3864 242.364V254H83.0227L76.6818 244.864H76.5682V254H75.1591V242.364H76.5227L82.8864 251.523H83V242.364H84.3864ZM90.7969 254H87.206V242.364H90.956C92.0848 242.364 93.0507 242.597 93.8537 243.062C94.6567 243.525 95.2723 244.189 95.7003 245.057C96.1283 245.92 96.3423 246.955 96.3423 248.159C96.3423 249.371 96.1264 250.415 95.6946 251.29C95.2628 252.161 94.634 252.831 93.8082 253.301C92.9825 253.767 91.9787 254 90.7969 254ZM88.6151 252.75H90.706C91.6681 252.75 92.4654 252.564 93.098 252.193C93.7306 251.822 94.2022 251.294 94.5128 250.608C94.8234 249.922 94.9787 249.106 94.9787 248.159C94.9787 247.22 94.8253 246.411 94.5185 245.733C94.2116 245.051 93.7533 244.528 93.1435 244.165C92.5336 243.797 91.7741 243.614 90.8651 243.614H88.6151V252.75ZM98.6364 254H97.1591L101.432 242.364H102.886L107.159 254H105.682L102.205 244.205H102.114L98.6364 254ZM99.1818 249.455H105.136V250.705H99.1818V249.455ZM117.788 246H116.379C116.296 245.595 116.15 245.239 115.942 244.932C115.737 244.625 115.487 244.367 115.192 244.159C114.9 243.947 114.576 243.788 114.22 243.682C113.864 243.576 113.493 243.523 113.107 243.523C112.402 243.523 111.764 243.701 111.192 244.057C110.624 244.413 110.171 244.938 109.834 245.631C109.5 246.324 109.334 247.174 109.334 248.182C109.334 249.189 109.5 250.04 109.834 250.733C110.171 251.426 110.624 251.951 111.192 252.307C111.764 252.663 112.402 252.841 113.107 252.841C113.493 252.841 113.864 252.788 114.22 252.682C114.576 252.576 114.9 252.419 115.192 252.21C115.487 251.998 115.737 251.739 115.942 251.432C116.15 251.121 116.296 250.765 116.379 250.364H117.788C117.682 250.958 117.489 251.491 117.209 251.96C116.929 252.43 116.58 252.83 116.163 253.159C115.747 253.485 115.279 253.733 114.76 253.903C114.245 254.074 113.694 254.159 113.107 254.159C112.114 254.159 111.232 253.917 110.459 253.432C109.686 252.947 109.078 252.258 108.635 251.364C108.192 250.47 107.97 249.409 107.97 248.182C107.97 246.955 108.192 245.894 108.635 245C109.078 244.106 109.686 243.417 110.459 242.932C111.232 242.447 112.114 242.205 113.107 242.205C113.694 242.205 114.245 242.29 114.76 242.46C115.279 242.631 115.747 242.881 116.163 243.21C116.58 243.536 116.929 243.934 117.209 244.403C117.489 244.869 117.682 245.402 117.788 246ZM121.474 242.364V254H120.065V242.364H121.474ZM134.118 248.182C134.118 249.409 133.896 250.47 133.453 251.364C133.01 252.258 132.402 252.947 131.629 253.432C130.857 253.917 129.974 254.159 128.982 254.159C127.989 254.159 127.107 253.917 126.334 253.432C125.561 252.947 124.953 252.258 124.51 251.364C124.067 250.47 123.845 249.409 123.845 248.182C123.845 246.955 124.067 245.894 124.51 245C124.953 244.106 125.561 243.417 126.334 242.932C127.107 242.447 127.989 242.205 128.982 242.205C129.974 242.205 130.857 242.447 131.629 242.932C132.402 243.417 133.01 244.106 133.453 245C133.896 245.894 134.118 246.955 134.118 248.182ZM132.754 248.182C132.754 247.174 132.586 246.324 132.249 245.631C131.915 244.938 131.463 244.413 130.891 244.057C130.322 243.701 129.686 243.523 128.982 243.523C128.277 243.523 127.639 243.701 127.067 244.057C126.499 244.413 126.046 244.938 125.709 245.631C125.375 246.324 125.209 247.174 125.209 248.182C125.209 249.189 125.375 250.04 125.709 250.733C126.046 251.426 126.499 251.951 127.067 252.307C127.639 252.663 128.277 252.841 128.982 252.841C129.686 252.841 130.322 252.663 130.891 252.307C131.463 251.951 131.915 251.426 132.249 250.733C132.586 250.04 132.754 249.189 132.754 248.182ZM145.714 242.364V254H144.351L138.01 244.864H137.896V254H136.487V242.364H137.851L144.214 251.523H144.328V242.364H145.714ZM148.534 254V242.364H155.557V243.614H149.943V247.545H155.193V248.795H149.943V252.75H155.648V254H148.534ZM164.46 245.273C164.392 244.697 164.116 244.25 163.631 243.932C163.146 243.614 162.551 243.455 161.847 243.455C161.331 243.455 160.881 243.538 160.494 243.705C160.112 243.871 159.813 244.1 159.597 244.392C159.384 244.684 159.278 245.015 159.278 245.386C159.278 245.697 159.352 245.964 159.5 246.188C159.652 246.407 159.845 246.591 160.08 246.739C160.314 246.883 160.561 247.002 160.818 247.097C161.076 247.187 161.312 247.261 161.528 247.318L162.71 247.636C163.013 247.716 163.35 247.826 163.722 247.966C164.097 248.106 164.455 248.297 164.795 248.54C165.14 248.778 165.424 249.085 165.648 249.46C165.871 249.835 165.983 250.295 165.983 250.841C165.983 251.47 165.818 252.038 165.489 252.545C165.163 253.053 164.686 253.456 164.057 253.756C163.432 254.055 162.672 254.205 161.778 254.205C160.945 254.205 160.223 254.07 159.614 253.801C159.008 253.532 158.53 253.157 158.182 252.676C157.837 252.195 157.642 251.636 157.597 251H159.051C159.089 251.439 159.237 251.803 159.494 252.091C159.756 252.375 160.085 252.587 160.483 252.727C160.884 252.864 161.316 252.932 161.778 252.932C162.316 252.932 162.799 252.845 163.227 252.67C163.655 252.492 163.994 252.246 164.244 251.932C164.494 251.614 164.619 251.242 164.619 250.818C164.619 250.432 164.511 250.117 164.295 249.875C164.08 249.633 163.795 249.436 163.443 249.284C163.091 249.133 162.71 249 162.301 248.886L160.869 248.477C159.96 248.216 159.241 247.843 158.71 247.358C158.18 246.873 157.915 246.239 157.915 245.455C157.915 244.803 158.091 244.235 158.443 243.75C158.799 243.261 159.277 242.883 159.875 242.614C160.477 242.341 161.15 242.205 161.892 242.205C162.642 242.205 163.309 242.339 163.892 242.608C164.475 242.873 164.938 243.237 165.278 243.699C165.623 244.161 165.805 244.686 165.824 245.273H164.46Z" fill="black"/>
</svg>
