<svg width="220" height="263" viewBox="0 0 220 263" fill="none" xmlns="http://www.w3.org/2000/svg">
<rect width="220" height="263" fill="#F9F5F5"/>
<path d="M211.5 110C211.5 167.728 166.043 214.5 110 214.5C53.9567 214.5 8.5 167.728 8.5 110C8.5 52.2725 53.9567 5.5 110 5.5C166.043 5.5 211.5 52.2725 211.5 110Z" fill="white" stroke="black"/>
<path d="M108.279 80.6982L54.4123 121.987V166.55C54.4123 167.703 54.9048 168.81 55.7815 169.626C56.6582 170.442 57.8472 170.9 59.087 170.9L91.827 170.821C93.0627 170.815 94.2457 170.355 95.1173 169.539C95.989 168.724 96.4783 167.621 96.4782 166.471V140.447C96.4782 139.293 96.9707 138.186 97.8474 137.37C98.7241 136.555 99.9131 136.096 101.153 136.096H119.851C121.091 136.096 122.28 136.555 123.157 137.37C124.034 138.186 124.526 139.293 124.526 140.447V166.452C124.524 167.024 124.644 167.591 124.878 168.121C125.112 168.65 125.456 169.131 125.89 169.537C126.324 169.942 126.84 170.264 127.408 170.483C127.977 170.703 128.586 170.816 129.201 170.816L161.929 170.9C163.169 170.9 164.358 170.442 165.235 169.626C166.111 168.81 166.604 167.703 166.604 166.55V121.957L112.749 80.6982C112.116 80.2233 111.327 79.9643 110.514 79.9643C109.701 79.9643 108.912 80.2233 108.279 80.6982ZM193.366 108.762L168.941 90.0246V52.363C168.941 51.4976 168.572 50.6677 167.914 50.0558C167.257 49.4439 166.365 49.1001 165.435 49.1001H149.074C148.144 49.1001 147.252 49.4439 146.595 50.0558C145.937 50.6677 145.568 51.4976 145.568 52.363V72.106L119.41 52.0775C116.9 50.155 113.75 49.1039 110.499 49.1039C107.248 49.1039 104.098 50.155 101.588 52.0775L27.6325 108.762C27.2775 109.035 26.9837 109.37 26.7681 109.749C26.5525 110.128 26.4191 110.542 26.3757 110.969C26.3323 111.396 26.3797 111.826 26.5151 112.236C26.6505 112.646 26.8714 113.027 27.165 113.357L34.6152 121.786C34.9081 122.117 35.2683 122.392 35.6752 122.593C36.0821 122.795 36.5278 122.92 36.9867 122.961C37.4456 123.002 37.9087 122.959 38.3496 122.833C38.7904 122.708 39.2003 122.502 39.5557 122.229L108.279 69.5501C108.912 69.0751 109.701 68.8161 110.514 68.8161C111.327 68.8161 112.116 69.0751 112.749 69.5501L181.475 122.229C181.83 122.502 182.239 122.708 182.679 122.834C183.119 122.96 183.582 123.004 184.041 122.964C184.499 122.923 184.945 122.799 185.352 122.598C185.759 122.398 186.119 122.124 186.412 121.794L193.863 113.365C194.156 113.033 194.376 112.65 194.51 112.238C194.644 111.827 194.689 111.395 194.643 110.967C194.596 110.539 194.46 110.124 194.241 109.746C194.022 109.367 193.724 109.033 193.366 108.762Z" fill="#8BE1D1"/>
<path d="M63.9091 254V242.364H70.8864V243.614H65.3182V247.545H70.3636V248.795H65.3182V254H63.9091ZM80.9361 242.364H82.3452V250.068C82.3452 250.864 82.1577 251.574 81.7827 252.199C81.4115 252.82 80.8868 253.311 80.2088 253.67C79.5308 254.027 78.7353 254.205 77.8224 254.205C76.9096 254.205 76.1141 254.027 75.4361 253.67C74.758 253.311 74.2315 252.82 73.8565 252.199C73.4853 251.574 73.2997 250.864 73.2997 250.068V242.364H74.7088V249.955C74.7088 250.523 74.8338 251.028 75.0838 251.472C75.3338 251.911 75.6899 252.258 76.152 252.511C76.6179 252.761 77.1747 252.886 77.8224 252.886C78.4702 252.886 79.027 252.761 79.4929 252.511C79.9588 252.258 80.3149 251.911 80.5611 251.472C80.8111 251.028 80.9361 250.523 80.9361 249.955V242.364ZM94.3864 242.364V254H93.0227L86.6818 244.864H86.5682V254H85.1591V242.364H86.5227L92.8864 251.523H93V242.364H94.3864ZM100.797 254H97.206V242.364H100.956C102.085 242.364 103.051 242.597 103.854 243.062C104.657 243.525 105.272 244.189 105.7 245.057C106.128 245.92 106.342 246.955 106.342 248.159C106.342 249.371 106.126 250.415 105.695 251.29C105.263 252.161 104.634 252.831 103.808 253.301C102.982 253.767 101.979 254 100.797 254ZM98.6151 252.75H100.706C101.668 252.75 102.465 252.564 103.098 252.193C103.731 251.822 104.202 251.294 104.513 250.608C104.823 249.922 104.979 249.106 104.979 248.159C104.979 247.22 104.825 246.411 104.518 245.733C104.212 245.051 103.753 244.528 103.143 244.165C102.534 243.797 101.774 243.614 100.865 243.614H98.6151V252.75ZM108.636 254H107.159L111.432 242.364H112.886L117.159 254H115.682L112.205 244.205H112.114L108.636 254ZM109.182 249.455H115.136V250.705H109.182V249.455ZM127.788 246H126.379C126.296 245.595 126.15 245.239 125.942 244.932C125.737 244.625 125.487 244.367 125.192 244.159C124.9 243.947 124.576 243.788 124.22 243.682C123.864 243.576 123.493 243.523 123.107 243.523C122.402 243.523 121.764 243.701 121.192 244.057C120.624 244.413 120.171 244.938 119.834 245.631C119.5 246.324 119.334 247.174 119.334 248.182C119.334 249.189 119.5 250.04 119.834 250.733C120.171 251.426 120.624 251.951 121.192 252.307C121.764 252.663 122.402 252.841 123.107 252.841C123.493 252.841 123.864 252.788 124.22 252.682C124.576 252.576 124.9 252.419 125.192 252.21C125.487 251.998 125.737 251.739 125.942 251.432C126.15 251.121 126.296 250.765 126.379 250.364H127.788C127.682 250.958 127.489 251.491 127.209 251.96C126.929 252.43 126.58 252.83 126.163 253.159C125.747 253.485 125.279 253.733 124.76 253.903C124.245 254.074 123.694 254.159 123.107 254.159C122.114 254.159 121.232 253.917 120.459 253.432C119.686 252.947 119.078 252.258 118.635 251.364C118.192 250.47 117.97 249.409 117.97 248.182C117.97 246.955 118.192 245.894 118.635 245C119.078 244.106 119.686 243.417 120.459 242.932C121.232 242.447 122.114 242.205 123.107 242.205C123.694 242.205 124.245 242.29 124.76 242.46C125.279 242.631 125.747 242.881 126.163 243.21C126.58 243.536 126.929 243.934 127.209 244.403C127.489 244.869 127.682 245.402 127.788 246ZM131.474 242.364V254H130.065V242.364H131.474ZM144.118 248.182C144.118 249.409 143.896 250.47 143.453 251.364C143.01 252.258 142.402 252.947 141.629 253.432C140.857 253.917 139.974 254.159 138.982 254.159C137.989 254.159 137.107 253.917 136.334 253.432C135.561 252.947 134.953 252.258 134.51 251.364C134.067 250.47 133.845 249.409 133.845 248.182C133.845 246.955 134.067 245.894 134.51 245C134.953 244.106 135.561 243.417 136.334 242.932C137.107 242.447 137.989 242.205 138.982 242.205C139.974 242.205 140.857 242.447 141.629 242.932C142.402 243.417 143.01 244.106 143.453 245C143.896 245.894 144.118 246.955 144.118 248.182ZM142.754 248.182C142.754 247.174 142.586 246.324 142.249 245.631C141.915 244.938 141.463 244.413 140.891 244.057C140.322 243.701 139.686 243.523 138.982 243.523C138.277 243.523 137.639 243.701 137.067 244.057C136.499 244.413 136.046 244.938 135.709 245.631C135.375 246.324 135.209 247.174 135.209 248.182C135.209 249.189 135.375 250.04 135.709 250.733C136.046 251.426 136.499 251.951 137.067 252.307C137.639 252.663 138.277 252.841 138.982 252.841C139.686 252.841 140.322 252.663 140.891 252.307C141.463 251.951 141.915 251.426 142.249 250.733C142.586 250.04 142.754 249.189 142.754 248.182ZM155.714 242.364V254H154.351L148.01 244.864H147.896V254H146.487V242.364H147.851L154.214 251.523H154.328V242.364H155.714Z" fill="black"/>
</svg>
