<?xml version="1.0" encoding="utf-8"?>
<!-- Generator: Adobe Illustrator 24.0.2, SVG Export Plug-In . SVG Version: 6.00 Build 0)  -->
<svg version="1.1" id="Capa_1" xmlns="http://www.w3.org/2000/svg" xmlns:xlink="http://www.w3.org/1999/xlink" x="0px" y="0px"
	 viewBox="0 0 738 220" style="enable-background:new 0 0 738 220;" xml:space="preserve">
<style type="text/css">
	.st0{fill:#31366F;}
	.st1{fill:#313670;}
	.st2{fill:#465AA1;}
	.st3{fill:#3B498A;}
	.st4{fill:#3B4A8C;}
	.st5{fill:#78BBD9;}
	.st6{fill:#9EC9C5;}
	.st7{fill:#77BBDA;}
	.st8{fill:#A0C9C4;}
	.st9{fill:#72B9DB;}
	.st10{fill:#A1CAC4;}
	.st11{fill:#333B74;}
	.st12{fill:#32386F;}
	.st13{fill:#383B58;}
	.st14{fill:#363958;}
	.st15{fill:#343858;}
	.st16{fill:#515B7D;}
	.st17{fill:#30366F;}
	.st18{fill:#313770;}
</style>
<g>
	<path class="st0" d="M176.59,93.88c-6.67-8.04-15.13-10.59-24.11-7.25c-8.61,3.2-12.45,9.43-12.48,20.46
		c-0.04,13.97-0.11,27.94,0.05,41.9c0.04,3.6-0.87,4.95-4.77,5.08c-15.9,0.51-15.92,0.66-15.93-15.22
		c-0.02-21.51,0.12-43.02-0.1-64.52c-0.05-4.68,1.44-6.66,6.03-5.83c5.45,0.98,11.77-2.75,16.42,3.4c0.92,1.21,3.46-1.2,5.2-1.99
		c20.61-9.42,44.57,0.14,50.66,20.3c0.57,1.89,1.01,3.87,1.13,5.83c1.1,18.78,1.11,37.56,0.04,56.35
		c-5.42,1.41-10.93,0.33-16.39,0.6c-3.95,0.2-3.16-2.84-3.16-5.1c-0.05-14.97-0.01-29.94-0.04-44.91
		C179.14,99.74,179.61,96.31,176.59,93.88z"/>
	<path class="st1" d="M690.61,110.46c0-5.54-0.45-11.12,0.12-16.59c0.7-6.7-2.07-8.8-8.25-7.85c-1.08,0.17-2.23-0.1-3.32,0.04
		c-3.93,0.51-5.18-1.49-4.87-5.04c0.02-0.22,0.01-0.44,0-0.66c-0.35-11.78-0.34-12.05,11.27-11.75c4.75,0.12,6.45-1.31,5.74-5.88
		c-0.14-0.86-0.02-1.77-0.02-2.65c0-15.22,1.59-16.46,16.89-14.27c2.83,0.41,3.11,1.77,3.1,3.94c-0.03,4.21,0.31,8.44-0.09,12.61
		c-0.49,5.17,1.66,6.57,6.5,6.21c5.07-0.38,10.19,0.04,15.28-0.11c3.18-0.09,4.68,0.64,4.85,4.34c0.61,13.26,0.77,13.25-12.59,13.25
		c-13.95-0.01-13.96-0.01-13.95,13.93c0,8.86-0.1,17.72,0.06,26.57c0.13,7.15,2.46,9.34,9.69,9.68c1.11,0.05,2.22,0.04,3.32,0.04
		c12.39,0.09,12.19,0.09,12.26,12.16c0.02,4.3-1.13,5.96-5.56,5.61c-7.47-0.59-15.04,0.81-22.43-1.46
		c-10.56-3.26-16.84-10.48-17.63-21.53c-0.49-6.83-0.09-13.71-0.09-20.57C690.78,110.46,690.7,110.46,690.61,110.46z"/>
	<path class="st1" d="M319.46,68.48c3.2,1.22,9.08-3.06,10.42,4.59c0.28,1.6,2.69,0.39,3.99-0.41c7.16-4.46,15.13-4.32,23.14-4.2
		c2.81,0.04,4.16,1.04,3.88,3.92c-0.02,0.22-0.01,0.44,0,0.66c0.77,13.85,0.77,13.85-12.92,15.03c-10.07,0.87-16.39,6.25-17.88,16.4
		c-2.08,14.07-0.85,28.29-0.7,42.43c0.07,6.06-1.77,7.36-7.46,7.2c-13.31-0.37-13.32-0.08-13.31-13.18c0-20.81,0-41.63,0-62.44
		C308.62,68.47,308.63,68.47,319.46,68.48z"/>
	<path class="st2" d="M571.53,139.03c15.4,16.1,30.8,32.2,46.19,48.31c0.92,0.96,1.91,1.98,1.26,3.46
		c-0.66,1.52-2.14,1.33-3.43,1.33c-15.03,0.02-30.06-0.03-45.09,0.05c-2.23,0.01-3.71-0.93-5.12-2.45
		c-7.78-8.41-15.6-16.78-23.41-25.16c-0.95-1.65-1.59-3.9,0.57-4.44c9.81-2.47,13.69-11.61,20.35-17.58
		C565.44,140.23,567.17,136.62,571.53,139.03z"/>
	<path class="st1" d="M109.08,111.58c0,12.39-0.14,24.77,0.08,37.15c0.07,4.07-1.27,5.24-5.3,5.32
		c-15.84,0.32-15.84,0.46-15.84-15.3c0-21.45,0.12-42.91-0.11-64.36c-0.05-4.69,1.44-6.01,6.03-6.02
		c15.14-0.06,15.14-0.23,15.14,14.68C109.08,92.56,109.08,102.07,109.08,111.58z"/>
	<path class="st2" d="M618.99,30.08c-0.17,0.8-0.07,1.86-0.55,2.37c-13.91,14.67-27.88,29.28-41.84,43.9
		c-1.91,0.31-3.44,3.92-5.58,1.19c-2.13-2.72-0.78-5.26,1.76-7.2c-7.18,1.26-20.17-12.01-22.55-23.04
		c5.03-6.29,10.73-11.94,16.56-17.47C584.19,29.12,601.59,28.64,618.99,30.08z"/>
	<path class="st3" d="M571.53,139.03c-2.03,0.01-4.16,0.06-5.39,1.92c-4.55,6.92-11.28,11.79-16.58,17.98
		c-1.49,1.74-1.82,4.27-5.42,2.29c-2.53-1.4-1.81,1.92-2.21,3.35c-7.72-8.08-15.44-16.15-23.16-24.23c-0.82-3.29,1.27-5.56,3.1-7.65
		c6.55-7.49,13.93-14.18,20.86-21.31c0.47-0.48,1.18-0.51,1.85-0.32C554.68,119.32,562.85,129.42,571.53,139.03z"/>
	<path class="st4" d="M550.23,47.3c3.36,5.66,6.99,10.98,11.86,15.64c7.11,6.81,6.79,7.14,15.03,3.78c0.77,2.15-1.08,2.55-2.26,3.36
		c-2.09,1.43-4.22,3.07-3.34,5.87c1.16,3.73,3.58-2.56,5.09,0.41c-7.21,8.29-14.62,16.39-22.61,23.94
		c-9.29-9.62-23.06-15.88-23.86-31.85C536.83,61.39,543.53,54.35,550.23,47.3z"/>
	<path class="st5" d="M544.59,111.06c-7.08,7.43-14.21,14.8-21.19,22.33c-1.88,2.03-4.26,3.86-4.62,6.96
		c-2.09-1.01-2.62,0.93-3.58,1.95c-14.1,14.95-28.19,29.92-42.28,44.88c-1.06,1.13-2.13,2.25-3.23,3.34
		c-2.57,2.57-6.29,2.93-8.4,0.92c-2.21-2.11,1.09-4.23,2.64-5.87c21.98-23.32,43.99-46.62,66.09-69.83c3.01-3.16,5.46-5.93,1.2-9.76
		c-1.53-3.68-2.99-7.38-3.22-11.42c0.42-0.92,1.29-1.46,2.05-0.88c5.78,4.4,12.01,8.42,14.55,15.8
		C544.6,110,544.59,110.53,544.59,111.06z"/>
	<path class="st6" d="M511.47,111.15c-3.17-7.05-9.35-11.68-14.37-17.13c-18.17-19.71-36.85-38.93-55.25-58.43
		c-1.56-1.66-5.56-3.49-2.56-6.18c2.24-2.01,5.86-1.3,8.33,1.39c4.64,5.06,9.3,10.1,14.02,15.08c18.61,19.6,37.23,39.18,55.89,58.74
		c5.68,5.95,5.71,6.2-0.93,11.52C514.92,114.45,513.23,112.76,511.47,111.15z"/>
	<path class="st7" d="M496.72,113.78c-13.21,14.25-26.37,28.55-39.64,42.75c-10.12,10.82-20.38,21.51-30.57,32.26
		c-0.61,0.64-1.14,1.35-1.77,1.96c-2.62,2.56-6.33,2.62-8.38,0.67c-2.37-2.25,1.11-4.19,2.61-5.78
		c18.97-20.08,38.04-40.07,57.05-60.12c3.65-3.85,7.1-7.89,10.77-11.72c1.5-1.57,2.32-3.18,1.9-5.34c1.35-2.69,3.66-3.29,6-1.9
		C497.37,108.16,498.58,110.66,496.72,113.78z"/>
	<path class="st8" d="M496.72,113.78c-0.3-5.37-2.12-8.42-8.03-5.31c-16.18-16.97-32.37-33.93-48.55-50.9
		c-7.03-7.37-14.11-14.71-20.99-22.21c-1.39-1.51-5.09-3.03-2.34-5.69c2.2-2.13,5.43-1.62,7.77,0.71c4.72,4.68,9.44,9.38,14.02,14.2
		c15.09,15.9,30.14,31.85,45.17,47.81c4.55,4.83,8.94,9.82,13.55,14.59C499.9,109.64,500.31,111.8,496.72,113.78z"/>
	<path class="st9" d="M511.47,111.15c3.55-0.23,5.44,1.26,5.13,4.99c-16.1,17.3-32.18,34.61-48.3,51.89
		c-6.49,6.96-13.01,13.87-19.58,20.75c-1.2,1.26-2.54,2.78-4.09,3.21c-1.97,0.55-4.71,1.35-6.12-0.76c-1.4-2.1,0.78-3.63,2.1-5.03
		c20.79-22.04,41.51-44.14,62.5-65.99C505.97,117.24,509.23,114.68,511.47,111.15z"/>
	<path class="st10" d="M528.79,93.42c0.9,4.17,3.69,7.97,2.43,12.55c-12.8-11.31-23.45-24.69-35.49-36.75
		c-10.62-10.64-20.6-21.92-30.73-33.03c-1.73-1.9-6.15-3.92-3.38-6.67c2.61-2.58,6.57-0.96,9.31,2.02
		c9.14,9.93,18.3,19.83,27.56,29.65c6.36,6.75,12.47,13.77,19.74,19.61C523.43,83.6,527.51,87.34,528.79,93.42z"/>
	<path class="st11" d="M528.79,93.42c-3.52-4.2-7.04-8.41-10.56-12.61c3.96-4.12,7.93-8.24,11.9-12.36
		c2.84,14.44,16.79,20.57,23.86,31.85c-2.76,3.43-5.37,7.02-9.38,9.17C539.33,104.12,534.06,98.77,528.79,93.42z"/>
	<path class="st12" d="M98.98,61.9c-7.64,0.06-13.55-5.36-13.55-12.42c0.01-6.6,5.9-12.23,13.01-12.44
		c7.58-0.23,13.58,5.13,13.65,12.2C112.18,56.58,106.73,61.84,98.98,61.9z"/>
	<path class="st13" d="M5.13,41.93c-3.89,4.53-3.83,9.93-3.81,15.5c0.12,29.22,0.21,58.43-0.09,87.65
		c-0.06,5.78,1.36,7.64,7.34,7.47c14.27-0.42,11.2,0.31,11.41-11.25c0.14-7.52-0.05-15.05,0.1-22.57c0.04-2-1.18-4.53,1.54-5.9
		c-0.1,11.96-0.37,23.92-0.21,35.87c0.05,4.07-1.18,5.27-5.24,5.36c-16.13,0.36-16.13,0.5-16.13-15.57
		C0.04,108.13,0.06,77.78,0,47.44C-0.01,43.81-0.16,40.44,5.13,41.93z"/>
	<path class="st14" d="M176.59,93.88c4.25,0.3,3.12,3.6,3.13,5.98c0.09,15.22,0.32,30.46-0.07,45.67c-0.14,5.68,1.83,7.42,7.15,6.97
		c3.95-0.33,7.94-0.1,11.92-0.12c-5.96,3.29-12.35,1.18-18.52,1.25c-2.9,0.03-1.69-3.14-1.71-4.87c-0.1-14.4-0.12-28.81-0.01-43.22
		C178.52,101.51,178.2,97.62,176.59,93.88z"/>
	<path class="st15" d="M382.52,119.33c0.61-1.59,2-1.53,3.32-1.53c16.84,0,33.67-0.01,50.51,0.07c0.99,0,1.97,0.73,2.96,1.12
		C420.38,119.1,401.45,119.21,382.52,119.33z"/>
	<path class="st16" d="M618.99,30.08c-17.4-0.08-34.8-0.16-52.2-0.24c1.03-1.64,2.7-1.2,4.17-1.2c14.74-0.03,29.47-0.05,44.21,0.01
		C616.52,28.64,618.38,27.87,618.99,30.08z"/>
	<path class="st17" d="M293.83,82.91c-12.64-15.66-37.99-21.06-56.21-12.17c-2.76,1.35-6.65,6.54-8.44-1.27
		c-0.33-1.44-2.29-0.95-3.56-0.97c-3.54-0.05-7.12,0.27-10.63-0.09c-4.59-0.48-5.65,1.53-5.6,5.72c0.18,15.94,0.07,31.89,0.07,47.84
		c0,13.07-0.19,26.14,0.04,39.2c0.32,17.68-3.69,14.58,15.57,15.03c3.97,0.09,5.64-1.1,5.41-5.28c-0.3-5.3-0.09-10.63-0.06-15.94
		c0.04-7.38,0.05-7.38,6.57-3.94c18.2,9.6,42.77,5.07,55.8-10.29C306.16,124.98,306.63,98.77,293.83,82.91z M255.73,137.64
		c-15.68-0.1-25.83-10.6-25.71-26.6c0.12-15.72,10.79-26.46,26.15-26.33c15.52,0.14,26.01,10.93,25.89,26.62
		C281.94,126.82,271.01,137.74,255.73,137.64z"/>
	<path class="st1" d="M439.31,118.98c2.21,0.09,4.43,0.05,6.63,0.29c3.5,0.38,4.53-1.11,4.64-4.54c0.6-18.74-5.05-34.52-22.8-42.98
		c-18.14-8.65-36.34-7.55-52.62,4.93c-14.61,11.2-19.56,31.93-13.09,50.65c6.03,17.44,22.16,28.6,42.84,28.73
		c17.61,0.11,33.11-5.33,42.01-21.71c6.3-11.6,4.38-11.16-6.06-10.91c-2.44,0.06-4.88,0.08-7.32,0.01
		c-2.12-0.06-3.54,0.53-4.91,2.48c-8.35,11.96-24.48,15.58-36.92,8.13c-5.39-3.22-10.07-7.38-9.18-14.75
		C401.44,117.61,420.37,118.29,439.31,118.98z M384.3,95.86c7.85-13.92,32.86-14.7,41.29-1.19c0.98,1.58,2.72,3.32,1.47,5.38
		c-1.07,1.77-3.17,1.18-4.89,1.19c-5.74,0.03-11.48,0.01-17.23,0.01c0-0.01,0-0.02,0-0.04c-5.96,0-11.93-0.01-17.89,0
		C382.59,101.24,382.35,99.32,384.3,95.86z"/>
	<path class="st18" d="M672.43,111.41c0-9.52,0.01-19.04,0-28.56c-0.01-14.55-0.01-14.59-14.7-14.33c-2.04,0.04-5.29-1.18-5.85,1.53
		c-1.3,6.32-4.1,3.01-6.83,1.57c-18.52-9.77-43.04-5.14-56.22,10.59c-13.1,15.63-13.51,41.09-0.92,57.26
		c12.23,15.7,37.59,21.29,56.1,12.51c3.04-1.44,7.1-6.76,8.94,1.41c0.1,0.45,2.42,0.54,3.72,0.56c3.54,0.07,7.11-0.2,10.63,0.08
		c4.22,0.34,5.26-1.5,5.19-5.43C672.31,136.21,672.43,123.81,672.43,111.41z M625.55,137.72c-15.6-0.11-25.79-10.68-25.7-26.65
		c0.09-15.42,11.2-26.44,26.42-26.21c15.47,0.23,25.98,11.18,25.76,26.81C651.81,127.3,641.09,137.83,625.55,137.72z"/>
	<path class="st1" d="M48.95,41.78c-14.59-0.43-29.21,0.07-43.82,0.15c-3.2,1.79-4.47,4.4-4.46,8.16
		c0.11,32.74,0.09,65.49,0.01,98.23c-0.01,3.23,0.66,4.63,4.35,4.8c15.64,0.7,15.63,0.84,15.63-14.74c0-6.19-0.11-12.39,0.05-18.58
		c0.06-2.32-0.98-4.87,0.91-6.98c8.85-0.12,17.71-0.11,26.55-0.38c20.71-0.62,35.99-15.75,36.1-35.6
		C84.39,56.74,70.29,42.41,48.95,41.78z M47.64,93.73c-7.49,0.56-15.06,0.14-22.58,0.3c-2.91,0.06-3.88-1.12-3.77-3.95
		c0.17-4.42,0.05-8.85,0.04-13.28c0-17.02,0-17.05,17.39-16.95c3.31,0.02,6.66,0.07,9.92,0.58c9.36,1.47,14.33,7.57,14.14,16.97
		C62.61,86.15,56.57,93.07,47.64,93.73z"/>
</g>
</svg>
