<?xml version="1.0" encoding="utf-8"?>
<!-- Generator: Adobe Illustrator 24.0.2, SVG Export Plug-In . SVG Version: 6.00 Build 0)  -->
<svg version="1.1" id="Capa_1" xmlns="http://www.w3.org/2000/svg" xmlns:xlink="http://www.w3.org/1999/xlink" x="0px" y="0px"
	 viewBox="0 0 738 220" style="enable-background:new 0 0 738 220;" xml:space="preserve">
<g>
	<path d="M176.6,93.9c-6.7-8-15.1-10.6-24.1-7.3c-8.6,3.2-12.4,9.4-12.5,20.5c0,14-0.1,27.9,0.1,41.9c0,3.6-0.9,4.9-4.8,5.1
		c-15.9,0.5-15.9,0.7-15.9-15.2c0-21.5,0.1-43-0.1-64.5c-0.1-4.7,1.4-6.7,6-5.8c5.4,1,11.8-2.8,16.4,3.4c0.9,1.2,3.5-1.2,5.2-2
		c20.6-9.4,44.6,0.1,50.7,20.3c0.6,1.9,1,3.9,1.1,5.8c1.1,18.8,1.1,37.6,0,56.3c-5.4,1.4-10.9,0.3-16.4,0.6
		c-3.9,0.2-3.2-2.8-3.2-5.1c-0.1-15,0-29.9,0-44.9C179.1,99.7,179.6,96.3,176.6,93.9z"/>
	<path d="M690.6,110.5c0-5.5-0.5-11.1,0.1-16.6c0.7-6.7-2.1-8.8-8.3-7.8c-1.1,0.2-2.2-0.1-3.3,0c-3.9,0.5-5.2-1.5-4.9-5
		c0-0.2,0-0.4,0-0.7c-0.3-11.8-0.3-12.1,11.3-11.8c4.8,0.1,6.5-1.3,5.7-5.9c-0.1-0.9,0-1.8,0-2.7c0-15.2,1.6-16.5,16.9-14.3
		c2.8,0.4,3.1,1.8,3.1,3.9c0,4.2,0.3,8.4-0.1,12.6c-0.5,5.2,1.7,6.6,6.5,6.2c5.1-0.4,10.2,0,15.3-0.1c3.2-0.1,4.7,0.6,4.8,4.3
		c0.6,13.3,0.8,13.3-12.6,13.3c-14,0-14,0-14,13.9c0,8.9-0.1,17.7,0.1,26.6c0.1,7.2,2.5,9.3,9.7,9.7c1.1,0.1,2.2,0,3.3,0
		c12.4,0.1,12.2,0.1,12.3,12.2c0,4.3-1.1,6-5.6,5.6c-7.5-0.6-15,0.8-22.4-1.5c-10.6-3.3-16.8-10.5-17.6-21.5
		c-0.5-6.8-0.1-13.7-0.1-20.6C690.8,110.5,690.7,110.5,690.6,110.5z"/>
	<path d="M319.5,68.5c3.2,1.2,9.1-3.1,10.4,4.6c0.3,1.6,2.7,0.4,4-0.4c7.2-4.5,15.1-4.3,23.1-4.2c2.8,0,4.2,1,3.9,3.9
		c0,0.2,0,0.4,0,0.7c0.8,13.8,0.8,13.8-12.9,15c-10.1,0.9-16.4,6.3-17.9,16.4c-2.1,14.1-0.9,28.3-0.7,42.4c0.1,6.1-1.8,7.4-7.5,7.2
		c-13.3-0.4-13.3-0.1-13.3-13.2c0-20.8,0-41.6,0-62.4C308.6,68.5,308.6,68.5,319.5,68.5z"/>
	<path d="M571.5,139c15.4,16.1,30.8,32.2,46.2,48.3c0.9,1,1.9,2,1.3,3.5c-0.7,1.5-2.1,1.3-3.4,1.3c-15,0-30.1,0-45.1,0.1
		c-2.2,0-3.7-0.9-5.1-2.4c-7.8-8.4-15.6-16.8-23.4-25.2c-1-1.6-1.6-3.9,0.6-4.4c9.8-2.5,13.7-11.6,20.3-17.6
		C565.4,140.2,567.2,136.6,571.5,139z"/>
	<path d="M109.1,111.6c0,12.4-0.1,24.8,0.1,37.2c0.1,4.1-1.3,5.2-5.3,5.3C88,154.4,88,154.5,88,138.8c0-21.5,0.1-42.9-0.1-64.4
		c-0.1-4.7,1.4-6,6-6C109,68.3,109,68.2,109,83.1C109.1,92.6,109.1,102.1,109.1,111.6z"/>
	<path d="M619,30.1c-0.2,0.8-0.1,1.9-0.5,2.4c-13.9,14.7-27.9,29.3-41.8,43.9c-1.9,0.3-3.4,3.9-5.6,1.2c-2.1-2.7-0.8-5.3,1.8-7.2
		c-7.2,1.3-20.2-12-22.5-23c5-6.3,10.7-11.9,16.6-17.5C584.2,29.1,601.6,28.6,619,30.1z"/>
	<path d="M571.5,139c-2,0-4.2,0.1-5.4,1.9c-4.5,6.9-11.3,11.8-16.6,18c-1.5,1.7-1.8,4.3-5.4,2.3c-2.5-1.4-1.8,1.9-2.2,3.4
		c-7.7-8.1-15.4-16.1-23.2-24.2c-0.8-3.3,1.3-5.6,3.1-7.6c6.5-7.5,13.9-14.2,20.9-21.3c0.5-0.5,1.2-0.5,1.8-0.3
		C554.7,119.3,562.8,129.4,571.5,139z"/>
	<path d="M550.2,47.3c3.4,5.7,7,11,11.9,15.6c7.1,6.8,6.8,7.1,15,3.8c0.8,2.2-1.1,2.6-2.3,3.4c-2.1,1.4-4.2,3.1-3.3,5.9
		c1.2,3.7,3.6-2.6,5.1,0.4c-7.2,8.3-14.6,16.4-22.6,23.9c-9.3-9.6-23.1-15.9-23.9-31.8C536.8,61.4,543.5,54.3,550.2,47.3z"/>
	<path d="M544.6,111.1c-7.1,7.4-14.2,14.8-21.2,22.3c-1.9,2-4.3,3.9-4.6,7c-2.1-1-2.6,0.9-3.6,1.9c-14.1,14.9-28.2,29.9-42.3,44.9
		c-1.1,1.1-2.1,2.3-3.2,3.3c-2.6,2.6-6.3,2.9-8.4,0.9c-2.2-2.1,1.1-4.2,2.6-5.9c22-23.3,44-46.6,66.1-69.8c3-3.2,5.5-5.9,1.2-9.8
		c-1.5-3.7-3-7.4-3.2-11.4c0.4-0.9,1.3-1.5,2-0.9c5.8,4.4,12,8.4,14.5,15.8C544.6,110,544.6,110.5,544.6,111.1z"/>
	<path d="M511.5,111.1c-3.2-7.1-9.4-11.7-14.4-17.1c-18.2-19.7-36.9-38.9-55.3-58.4c-1.6-1.7-5.6-3.5-2.6-6.2c2.2-2,5.9-1.3,8.3,1.4
		c4.6,5.1,9.3,10.1,14,15.1c18.6,19.6,37.2,39.2,55.9,58.7c5.7,5.9,5.7,6.2-0.9,11.5C514.9,114.4,513.2,112.8,511.5,111.1z"/>
	<path d="M496.7,113.8c-13.2,14.3-26.4,28.6-39.6,42.8c-10.1,10.8-20.4,21.5-30.6,32.3c-0.6,0.6-1.1,1.4-1.8,2
		c-2.6,2.6-6.3,2.6-8.4,0.7c-2.4-2.3,1.1-4.2,2.6-5.8c19-20.1,38-40.1,57-60.1c3.6-3.8,7.1-7.9,10.8-11.7c1.5-1.6,2.3-3.2,1.9-5.3
		c1.4-2.7,3.7-3.3,6-1.9C497.4,108.2,498.6,110.7,496.7,113.8z"/>
	<path d="M496.7,113.8c-0.3-5.4-2.1-8.4-8-5.3c-16.2-17-32.4-33.9-48.5-50.9c-7-7.4-14.1-14.7-21-22.2c-1.4-1.5-5.1-3-2.3-5.7
		c2.2-2.1,5.4-1.6,7.8,0.7c4.7,4.7,9.4,9.4,14,14.2c15.1,15.9,30.1,31.9,45.2,47.8c4.5,4.8,8.9,9.8,13.5,14.6
		C499.9,109.6,500.3,111.8,496.7,113.8z"/>
	<path d="M511.5,111.1c3.6-0.2,5.4,1.3,5.1,5c-16.1,17.3-32.2,34.6-48.3,51.9c-6.5,7-13,13.9-19.6,20.8c-1.2,1.3-2.5,2.8-4.1,3.2
		c-2,0.6-4.7,1.4-6.1-0.8c-1.4-2.1,0.8-3.6,2.1-5c20.8-22,41.5-44.1,62.5-66C506,117.2,509.2,114.7,511.5,111.1z"/>
	<path d="M528.8,93.4c0.9,4.2,3.7,8,2.4,12.6c-12.8-11.3-23.5-24.7-35.5-36.8c-10.6-10.6-20.6-21.9-30.7-33
		c-1.7-1.9-6.1-3.9-3.4-6.7c2.6-2.6,6.6-1,9.3,2c9.1,9.9,18.3,19.8,27.6,29.6c6.4,6.8,12.5,13.8,19.7,19.6
		C523.4,83.6,527.5,87.3,528.8,93.4z"/>
	<path d="M528.8,93.4c-3.5-4.2-7-8.4-10.6-12.6c4-4.1,7.9-8.2,11.9-12.4C533,82.9,546.9,89,554,100.3c-2.8,3.4-5.4,7-9.4,9.2
		C539.3,104.1,534.1,98.8,528.8,93.4z"/>
	<path d="M99,61.9c-7.6,0.1-13.6-5.4-13.6-12.4c0-6.6,5.9-12.2,13-12.4c7.6-0.2,13.6,5.1,13.7,12.2C112.2,56.6,106.7,61.8,99,61.9z"
		/>
	<path d="M5.1,41.9c-3.9,4.5-3.8,9.9-3.8,15.5c0.1,29.2,0.2,58.4-0.1,87.7c-0.1,5.8,1.4,7.6,7.3,7.5c14.3-0.4,11.2,0.3,11.4-11.3
		c0.1-7.5,0-15.1,0.1-22.6c0-2-1.2-4.5,1.5-5.9c-0.1,12-0.4,23.9-0.2,35.9c0,4.1-1.2,5.3-5.2,5.4C0,154.4,0,154.6,0,138.5
		c0-30.4,0-60.7,0-91.1C0,43.8-0.2,40.4,5.1,41.9z"/>
	<path d="M176.6,93.9c4.3,0.3,3.1,3.6,3.1,6c0.1,15.2,0.3,30.5-0.1,45.7c-0.1,5.7,1.8,7.4,7.1,7c3.9-0.3,7.9-0.1,11.9-0.1
		c-6,3.3-12.4,1.2-18.5,1.3c-2.9,0-1.7-3.1-1.7-4.9c-0.1-14.4-0.1-28.8,0-43.2C178.5,101.5,178.2,97.6,176.6,93.9z"/>
	<path d="M382.5,119.3c0.6-1.6,2-1.5,3.3-1.5c16.8,0,33.7,0,50.5,0.1c1,0,2,0.7,3,1.1C420.4,119.1,401.5,119.2,382.5,119.3z"/>
	<path d="M619,30.1c-17.4-0.1-34.8-0.2-52.2-0.2c1-1.6,2.7-1.2,4.2-1.2c14.7,0,29.5,0,44.2,0C616.5,28.6,618.4,27.9,619,30.1z"/>
	<path d="M293.8,82.9c-12.6-15.7-38-21.1-56.2-12.2c-2.8,1.3-6.6,6.5-8.4-1.3c-0.3-1.4-2.3-0.9-3.6-1c-3.5-0.1-7.1,0.3-10.6-0.1
		c-4.6-0.5-5.6,1.5-5.6,5.7c0.2,15.9,0.1,31.9,0.1,47.8c0,13.1-0.2,26.1,0,39.2c0.3,17.7-3.7,14.6,15.6,15c4,0.1,5.6-1.1,5.4-5.3
		c-0.3-5.3-0.1-10.6-0.1-15.9c0-7.4,0.1-7.4,6.6-3.9c18.2,9.6,42.8,5.1,55.8-10.3C306.2,125,306.6,98.8,293.8,82.9z M255.7,137.6
		C240,137.5,229.9,127,230,111c0.1-15.7,10.8-26.5,26.1-26.3c15.5,0.1,26,10.9,25.9,26.6C281.9,126.8,271,137.7,255.7,137.6z"/>
	<path d="M439.3,119c2.2,0.1,4.4,0.1,6.6,0.3c3.5,0.4,4.5-1.1,4.6-4.5c0.6-18.7-5-34.5-22.8-43c-18.1-8.7-36.3-7.6-52.6,4.9
		c-14.6,11.2-19.6,31.9-13.1,50.7c6,17.4,22.2,28.6,42.8,28.7c17.6,0.1,33.1-5.3,42-21.7c6.3-11.6,4.4-11.2-6.1-10.9
		c-2.4,0.1-4.9,0.1-7.3,0c-2.1-0.1-3.5,0.5-4.9,2.5c-8.4,12-24.5,15.6-36.9,8.1c-5.4-3.2-10.1-7.4-9.2-14.8
		C401.4,117.6,420.4,118.3,439.3,119z M384.3,95.9c7.9-13.9,32.9-14.7,41.3-1.2c1,1.6,2.7,3.3,1.5,5.4c-1.1,1.8-3.2,1.2-4.9,1.2
		c-5.7,0-11.5,0-17.2,0l0,0c-6,0-11.9,0-17.9,0C382.6,101.2,382.4,99.3,384.3,95.9z"/>
	<path d="M672.4,111.4c0-9.5,0-19,0-28.6c0-14.6,0-14.6-14.7-14.3c-2,0-5.3-1.2-5.8,1.5c-1.3,6.3-4.1,3-6.8,1.6
		c-18.5-9.8-43-5.1-56.2,10.6c-13.1,15.6-13.5,41.1-0.9,57.3c12.2,15.7,37.6,21.3,56.1,12.5c3-1.4,7.1-6.8,8.9,1.4
		c0.1,0.4,2.4,0.5,3.7,0.6c3.5,0.1,7.1-0.2,10.6,0.1c4.2,0.3,5.3-1.5,5.2-5.4C672.3,136.2,672.4,123.8,672.4,111.4z M625.5,137.7
		c-15.6-0.1-25.8-10.7-25.7-26.7c0.1-15.4,11.2-26.4,26.4-26.2c15.5,0.2,26,11.2,25.8,26.8S641.1,137.8,625.5,137.7z"/>
	<path d="M49,41.8C34.4,41.4,19.8,41.9,5.2,42c-3.2,1.8-4.5,4.4-4.5,8.2c0.1,32.7,0.1,65.5,0,98.2c0,3.2,0.7,4.6,4.3,4.8
		c15.6,0.7,15.6,0.8,15.6-14.7c0-6.2-0.1-12.4,0-18.6c0.1-2.3-1-4.9,0.9-7c8.9-0.1,17.7-0.1,26.5-0.4c20.7-0.6,36-15.8,36.1-35.6
		C84.4,56.7,70.3,42.4,49,41.8z M47.6,93.7C40.1,94.3,32.5,93.8,25,94c-2.9,0.1-3.9-1.1-3.8-3.9c0.2-4.4,0-8.8,0-13.3
		c0-17,0-17,17.4-17c3.3,0,6.7,0.1,9.9,0.6C58,61.9,63,68,62.8,77.4C62.6,86.1,56.6,93.1,47.6,93.7z"/>
</g>
</svg>
