<svg width="220" height="263" viewBox="0 0 220 263" fill="none" xmlns="http://www.w3.org/2000/svg">
<rect width="220" height="263" fill="#F9F5F5"/>
<circle cx="110" cy="110" r="99.5" fill="white" stroke="black"/>
<path d="M161 170.75H59V62.75C59 55.325 64.1 49.25 70.3333 49.25H149.667C155.9 49.25 161 55.325 161 62.75V170.75Z" fill="#8BE1D1"/>
<path d="M59 170.75H161V177.5H59V170.75Z" fill="#64B5F6"/>
<path d="M129.833 120.125H146.833V137H129.833V120.125ZM101.5 120.125H118.5V137H101.5V120.125ZM73.1666 120.125H90.1666V137H73.1666V120.125ZM129.833 147.125H146.833V164H129.833V147.125ZM73.1666 147.125H90.1666V164H73.1666V147.125ZM129.833 93.125H146.833V110H129.833V93.125ZM101.5 93.125H118.5V110H101.5V93.125ZM73.1666 93.125H90.1666V110H73.1666V93.125ZM129.833 66.125H146.833V83H129.833V66.125ZM101.5 66.125H118.5V83H101.5V66.125ZM73.1666 66.125H90.1666V83H73.1666V66.125ZM101.5 147.125H118.5V177.5H101.5V147.125Z" fill="#1565C0"/>
<path d="M60.2273 243.182C60.2273 244.409 60.0057 245.47 59.5625 246.364C59.1193 247.258 58.5114 247.947 57.7386 248.432C56.9659 248.917 56.0833 249.159 55.0909 249.159C54.0985 249.159 53.2159 248.917 52.4432 248.432C51.6705 247.947 51.0625 247.258 50.6193 246.364C50.1761 245.47 49.9545 244.409 49.9545 243.182C49.9545 241.955 50.1761 240.894 50.6193 240C51.0625 239.106 51.6705 238.417 52.4432 237.932C53.2159 237.447 54.0985 237.205 55.0909 237.205C56.0833 237.205 56.9659 237.447 57.7386 237.932C58.5114 238.417 59.1193 239.106 59.5625 240C60.0057 240.894 60.2273 241.955 60.2273 243.182ZM58.8636 243.182C58.8636 242.174 58.6951 241.324 58.358 240.631C58.0246 239.938 57.572 239.413 57 239.057C56.4318 238.701 55.7955 238.523 55.0909 238.523C54.3864 238.523 53.7481 238.701 53.1761 239.057C52.608 239.413 52.1553 239.938 51.8182 240.631C51.4848 241.324 51.3182 242.174 51.3182 243.182C51.3182 244.189 51.4848 245.04 51.8182 245.733C52.1553 246.426 52.608 246.951 53.1761 247.307C53.7481 247.663 54.3864 247.841 55.0909 247.841C55.7955 247.841 56.4318 247.663 57 247.307C57.572 246.951 58.0246 246.426 58.358 245.733C58.6951 245.04 58.8636 244.189 58.8636 243.182ZM62.5966 249V237.364H66.5284C67.4375 237.364 68.1837 237.519 68.767 237.83C69.3504 238.136 69.7822 238.559 70.0625 239.097C70.3428 239.634 70.483 240.246 70.483 240.932C70.483 241.617 70.3428 242.225 70.0625 242.756C69.7822 243.286 69.3523 243.703 68.7727 244.006C68.1932 244.305 67.4527 244.455 66.5511 244.455H63.3693V243.182H66.5057C67.1269 243.182 67.6269 243.091 68.0057 242.909C68.3883 242.727 68.6648 242.47 68.8352 242.136C69.0095 241.799 69.0966 241.398 69.0966 240.932C69.0966 240.466 69.0095 240.059 68.8352 239.71C68.661 239.362 68.3826 239.093 68 238.903C67.6174 238.71 67.1117 238.614 66.483 238.614H64.0057V249H62.5966ZM68.0739 243.773L70.9375 249H69.3011L66.483 243.773H68.0739ZM80.7855 241C80.6605 240.617 80.4957 240.275 80.2912 239.972C80.0904 239.665 79.8499 239.403 79.5696 239.188C79.2931 238.972 78.9787 238.807 78.6264 238.693C78.2741 238.58 77.8878 238.523 77.4673 238.523C76.7779 238.523 76.151 238.701 75.5866 239.057C75.0223 239.413 74.5734 239.938 74.2401 240.631C73.9067 241.324 73.7401 242.174 73.7401 243.182C73.7401 244.189 73.9086 245.04 74.2457 245.733C74.5829 246.426 75.0393 246.951 75.6151 247.307C76.1908 247.663 76.8385 247.841 77.5582 247.841C78.2249 247.841 78.812 247.699 79.3196 247.415C79.831 247.127 80.2287 246.722 80.5128 246.199C80.8007 245.672 80.9446 245.053 80.9446 244.341L81.3764 244.432H77.8764V243.182H82.3082V244.432C82.3082 245.39 82.1037 246.223 81.6946 246.932C81.2893 247.64 80.7287 248.189 80.0128 248.58C79.3007 248.966 78.4825 249.159 77.5582 249.159C76.5279 249.159 75.6226 248.917 74.8423 248.432C74.0658 247.947 73.4598 247.258 73.0241 246.364C72.5923 245.47 72.3764 244.409 72.3764 243.182C72.3764 242.261 72.4995 241.434 72.7457 240.699C72.9957 239.96 73.348 239.331 73.8026 238.812C74.2571 238.294 74.795 237.896 75.4162 237.619C76.0374 237.343 76.7211 237.205 77.4673 237.205C78.081 237.205 78.6529 237.297 79.1832 237.483C79.7173 237.665 80.1927 237.924 80.6094 238.261C81.0298 238.595 81.3802 238.994 81.6605 239.46C81.9408 239.922 82.134 240.436 82.2401 241H80.7855ZM84.8395 249H83.3622L87.6349 237.364H89.0895L93.3622 249H91.8849L88.4077 239.205H88.3168L84.8395 249ZM85.3849 244.455H91.3395V245.705H85.3849V244.455ZM104.402 237.364V249H103.038L96.6974 239.864H96.5838V249H95.1747V237.364H96.5384L102.902 246.523H103.016V237.364H104.402ZM108.631 237.364V249H107.222V237.364H108.631ZM111.07 249V247.977L117.342 238.614H111.001V237.364H119.024V238.386L112.751 247.75H119.092V249H111.07ZM121.933 249H120.456L124.729 237.364H126.183L130.456 249H128.979L125.501 239.205H125.411L121.933 249ZM122.479 244.455H128.433V245.705H122.479V244.455ZM141.085 241H139.676C139.593 240.595 139.447 240.239 139.239 239.932C139.034 239.625 138.784 239.367 138.489 239.159C138.197 238.947 137.873 238.788 137.517 238.682C137.161 238.576 136.79 238.523 136.403 238.523C135.699 238.523 135.061 238.701 134.489 239.057C133.92 239.413 133.468 239.938 133.131 240.631C132.797 241.324 132.631 242.174 132.631 243.182C132.631 244.189 132.797 245.04 133.131 245.733C133.468 246.426 133.92 246.951 134.489 247.307C135.061 247.663 135.699 247.841 136.403 247.841C136.79 247.841 137.161 247.788 137.517 247.682C137.873 247.576 138.197 247.419 138.489 247.21C138.784 246.998 139.034 246.739 139.239 246.432C139.447 246.121 139.593 245.765 139.676 245.364H141.085C140.979 245.958 140.786 246.491 140.506 246.96C140.225 247.43 139.877 247.83 139.46 248.159C139.044 248.485 138.576 248.733 138.057 248.903C137.542 249.074 136.991 249.159 136.403 249.159C135.411 249.159 134.528 248.917 133.756 248.432C132.983 247.947 132.375 247.258 131.932 246.364C131.489 245.47 131.267 244.409 131.267 243.182C131.267 241.955 131.489 240.894 131.932 240C132.375 239.106 132.983 238.417 133.756 237.932C134.528 237.447 135.411 237.205 136.403 237.205C136.991 237.205 137.542 237.29 138.057 237.46C138.576 237.631 139.044 237.881 139.46 238.21C139.877 238.536 140.225 238.934 140.506 239.403C140.786 239.869 140.979 240.402 141.085 241ZM144.771 237.364V249H143.362V237.364H144.771ZM157.415 243.182C157.415 244.409 157.193 245.47 156.75 246.364C156.307 247.258 155.699 247.947 154.926 248.432C154.153 248.917 153.271 249.159 152.278 249.159C151.286 249.159 150.403 248.917 149.631 248.432C148.858 247.947 148.25 247.258 147.807 246.364C147.364 245.47 147.142 244.409 147.142 243.182C147.142 241.955 147.364 240.894 147.807 240C148.25 239.106 148.858 238.417 149.631 237.932C150.403 237.447 151.286 237.205 152.278 237.205C153.271 237.205 154.153 237.447 154.926 237.932C155.699 238.417 156.307 239.106 156.75 240C157.193 240.894 157.415 241.955 157.415 243.182ZM156.051 243.182C156.051 242.174 155.883 241.324 155.545 240.631C155.212 239.938 154.759 239.413 154.188 239.057C153.619 238.701 152.983 238.523 152.278 238.523C151.574 238.523 150.936 238.701 150.364 239.057C149.795 239.413 149.343 239.938 149.006 240.631C148.672 241.324 148.506 242.174 148.506 243.182C148.506 244.189 148.672 245.04 149.006 245.733C149.343 246.426 149.795 246.951 150.364 247.307C150.936 247.663 151.574 247.841 152.278 247.841C152.983 247.841 153.619 247.663 154.188 247.307C154.759 246.951 155.212 246.426 155.545 245.733C155.883 245.04 156.051 244.189 156.051 243.182ZM151.665 236.182L153.051 233.545H154.619L152.847 236.182H151.665ZM169.011 237.364V249H167.648L161.307 239.864H161.193V249H159.784V237.364H161.148L167.511 246.523H167.625V237.364H169.011Z" fill="black"/>
</svg>
