<svg width="220" height="263" viewBox="0 0 220 263" fill="none" xmlns="http://www.w3.org/2000/svg">
<rect width="220" height="263" fill="#F9F5F5"/>
<circle cx="110" cy="110" r="99.5" fill="white" stroke="black"/>
<path d="M57.5833 162C57.5833 162 47 162 47 151.417C47 140.833 57.5833 109.083 110.5 109.083C163.417 109.083 174 140.833 174 151.417C174 162 163.417 162 163.417 162H57.5833ZM110.5 98.5C118.921 98.5 126.996 95.1549 132.951 89.2006C138.905 83.2464 142.25 75.1706 142.25 66.75C142.25 58.3294 138.905 50.2536 132.951 44.2994C126.996 38.3451 118.921 35 110.5 35C102.079 35 94.0036 38.3451 88.0494 44.2994C82.0951 50.2536 78.75 58.3294 78.75 66.75C78.75 75.1706 82.0951 83.2464 88.0494 89.2006C94.0036 95.1549 102.079 98.5 110.5 98.5Z" fill="#8BE1D1"/>
<path d="M68.4091 249V237.364H72.3409C73.2538 237.364 74 237.528 74.5795 237.858C75.1629 238.184 75.5947 238.625 75.875 239.182C76.1553 239.739 76.2955 240.36 76.2955 241.045C76.2955 241.731 76.1553 242.354 75.875 242.915C75.5985 243.475 75.1705 243.922 74.5909 244.256C74.0114 244.585 73.2689 244.75 72.3636 244.75H69.5455V243.5H72.3182C72.9432 243.5 73.4451 243.392 73.8239 243.176C74.2027 242.96 74.4773 242.669 74.6477 242.301C74.822 241.93 74.9091 241.511 74.9091 241.045C74.9091 240.58 74.822 240.163 74.6477 239.795C74.4773 239.428 74.2008 239.14 73.8182 238.932C73.4356 238.72 72.928 238.614 72.2955 238.614H69.8182V249H68.4091ZM78.5653 249V237.364H85.5881V238.614H79.9744V242.545H85.2244V243.795H79.9744V247.75H85.679V249H78.5653ZM88.1278 249V237.364H92.0597C92.9688 237.364 93.715 237.519 94.2983 237.83C94.8816 238.136 95.3134 238.559 95.5938 239.097C95.8741 239.634 96.0142 240.246 96.0142 240.932C96.0142 241.617 95.8741 242.225 95.5938 242.756C95.3134 243.286 94.8835 243.703 94.304 244.006C93.7244 244.305 92.9839 244.455 92.0824 244.455H88.9006V243.182H92.0369C92.6581 243.182 93.1581 243.091 93.5369 242.909C93.9195 242.727 94.196 242.47 94.3665 242.136C94.5407 241.799 94.6278 241.398 94.6278 240.932C94.6278 240.466 94.5407 240.059 94.3665 239.71C94.1922 239.362 93.9138 239.093 93.5312 238.903C93.1487 238.71 92.643 238.614 92.0142 238.614H89.5369V249H88.1278ZM93.6051 243.773L96.4688 249H94.8324L92.0142 243.773H93.6051ZM104.726 240.273C104.658 239.697 104.381 239.25 103.896 238.932C103.411 238.614 102.817 238.455 102.112 238.455C101.597 238.455 101.146 238.538 100.76 238.705C100.377 238.871 100.078 239.1 99.8622 239.392C99.6501 239.684 99.544 240.015 99.544 240.386C99.544 240.697 99.6179 240.964 99.7656 241.188C99.9171 241.407 100.11 241.591 100.345 241.739C100.58 241.883 100.826 242.002 101.084 242.097C101.341 242.187 101.578 242.261 101.794 242.318L102.976 242.636C103.279 242.716 103.616 242.826 103.987 242.966C104.362 243.106 104.72 243.297 105.061 243.54C105.406 243.778 105.69 244.085 105.913 244.46C106.137 244.835 106.249 245.295 106.249 245.841C106.249 246.47 106.084 247.038 105.754 247.545C105.429 248.053 104.951 248.456 104.322 248.756C103.697 249.055 102.938 249.205 102.044 249.205C101.211 249.205 100.489 249.07 99.8793 248.801C99.2732 248.532 98.7959 248.157 98.4474 247.676C98.1027 247.195 97.9077 246.636 97.8622 246H99.3168C99.3546 246.439 99.5024 246.803 99.7599 247.091C100.021 247.375 100.351 247.587 100.749 247.727C101.15 247.864 101.582 247.932 102.044 247.932C102.582 247.932 103.065 247.845 103.493 247.67C103.921 247.492 104.26 247.246 104.51 246.932C104.76 246.614 104.885 246.242 104.885 245.818C104.885 245.432 104.777 245.117 104.561 244.875C104.345 244.633 104.061 244.436 103.709 244.284C103.357 244.133 102.976 244 102.567 243.886L101.135 243.477C100.226 243.216 99.5062 242.843 98.9759 242.358C98.4455 241.873 98.1804 241.239 98.1804 240.455C98.1804 239.803 98.3565 239.235 98.7088 238.75C99.0649 238.261 99.5421 237.883 100.141 237.614C100.743 237.341 101.415 237.205 102.158 237.205C102.908 237.205 103.574 237.339 104.158 237.608C104.741 237.873 105.203 238.237 105.544 238.699C105.889 239.161 106.071 239.686 106.089 240.273H104.726ZM118.384 243.182C118.384 244.409 118.162 245.47 117.719 246.364C117.276 247.258 116.668 247.947 115.895 248.432C115.122 248.917 114.24 249.159 113.247 249.159C112.255 249.159 111.372 248.917 110.599 248.432C109.827 247.947 109.219 247.258 108.776 246.364C108.332 245.47 108.111 244.409 108.111 243.182C108.111 241.955 108.332 240.894 108.776 240C109.219 239.106 109.827 238.417 110.599 237.932C111.372 237.447 112.255 237.205 113.247 237.205C114.24 237.205 115.122 237.447 115.895 237.932C116.668 238.417 117.276 239.106 117.719 240C118.162 240.894 118.384 241.955 118.384 243.182ZM117.02 243.182C117.02 242.174 116.851 241.324 116.514 240.631C116.181 239.938 115.728 239.413 115.156 239.057C114.588 238.701 113.952 238.523 113.247 238.523C112.543 238.523 111.904 238.701 111.332 239.057C110.764 239.413 110.312 239.938 109.974 240.631C109.641 241.324 109.474 242.174 109.474 243.182C109.474 244.189 109.641 245.04 109.974 245.733C110.312 246.426 110.764 246.951 111.332 247.307C111.904 247.663 112.543 247.841 113.247 247.841C113.952 247.841 114.588 247.663 115.156 247.307C115.728 246.951 116.181 246.426 116.514 245.733C116.851 245.04 117.02 244.189 117.02 243.182ZM129.98 237.364V249H128.616L122.276 239.864H122.162V249H120.753V237.364H122.116L128.48 246.523H128.594V237.364H129.98ZM133.277 249H131.8L136.072 237.364H137.527L141.8 249H140.322L136.845 239.205H136.754L133.277 249ZM133.822 244.455H139.777V245.705H133.822V244.455ZM149.976 240.273C149.908 239.697 149.631 239.25 149.146 238.932C148.661 238.614 148.067 238.455 147.362 238.455C146.847 238.455 146.396 238.538 146.01 238.705C145.627 238.871 145.328 239.1 145.112 239.392C144.9 239.684 144.794 240.015 144.794 240.386C144.794 240.697 144.868 240.964 145.016 241.188C145.167 241.407 145.36 241.591 145.595 241.739C145.83 241.883 146.076 242.002 146.334 242.097C146.591 242.187 146.828 242.261 147.044 242.318L148.226 242.636C148.529 242.716 148.866 242.826 149.237 242.966C149.612 243.106 149.97 243.297 150.311 243.54C150.656 243.778 150.94 244.085 151.163 244.46C151.387 244.835 151.499 245.295 151.499 245.841C151.499 246.47 151.334 247.038 151.004 247.545C150.679 248.053 150.201 248.456 149.572 248.756C148.947 249.055 148.188 249.205 147.294 249.205C146.461 249.205 145.739 249.07 145.129 248.801C144.523 248.532 144.046 248.157 143.697 247.676C143.353 247.195 143.158 246.636 143.112 246H144.567C144.605 246.439 144.752 246.803 145.01 247.091C145.271 247.375 145.601 247.587 145.999 247.727C146.4 247.864 146.832 247.932 147.294 247.932C147.832 247.932 148.315 247.845 148.743 247.67C149.171 247.492 149.51 247.246 149.76 246.932C150.01 246.614 150.135 246.242 150.135 245.818C150.135 245.432 150.027 245.117 149.811 244.875C149.595 244.633 149.311 244.436 148.959 244.284C148.607 244.133 148.226 244 147.817 243.886L146.385 243.477C145.476 243.216 144.756 242.843 144.226 242.358C143.696 241.873 143.43 241.239 143.43 240.455C143.43 239.803 143.607 239.235 143.959 238.75C144.315 238.261 144.792 237.883 145.391 237.614C145.993 237.341 146.665 237.205 147.408 237.205C148.158 237.205 148.824 237.339 149.408 237.608C149.991 237.873 150.453 238.237 150.794 238.699C151.139 239.161 151.321 239.686 151.339 240.273H149.976Z" fill="black"/>
</svg>
