<svg width="220" height="263" viewBox="0 0 220 263" fill="none" xmlns="http://www.w3.org/2000/svg">
<rect width="220" height="263" fill="#F9F5F5"/>
<circle cx="110" cy="110" r="99.5" fill="white" stroke="black"/>
<path d="M57.5833 162C57.5833 162 47 162 47 151.417C47 140.833 57.5833 109.083 110.5 109.083C163.417 109.083 174 140.833 174 151.417C174 162 163.417 162 163.417 162H57.5833ZM110.5 98.5C118.921 98.5 126.996 95.1549 132.951 89.2006C138.905 83.2464 142.25 75.1706 142.25 66.75C142.25 58.3294 138.905 50.2536 132.951 44.2994C126.996 38.3451 118.921 35 110.5 35C102.079 35 94.0036 38.3451 88.0494 44.2994C82.0951 50.2536 78.75 58.3294 78.75 66.75C78.75 75.1706 82.0951 83.2464 88.0494 89.2006C94.0036 95.1549 102.079 98.5 110.5 98.5Z" fill="#8BE1D1"/>
<path d="M83.0455 237.364H84.4545V245.068C84.4545 245.864 84.267 246.574 83.892 247.199C83.5208 247.82 82.9962 248.311 82.3182 248.67C81.6402 249.027 80.8447 249.205 79.9318 249.205C79.0189 249.205 78.2235 249.027 77.5455 248.67C76.8674 248.311 76.3409 247.82 75.9659 247.199C75.5947 246.574 75.4091 245.864 75.4091 245.068V237.364H76.8182V244.955C76.8182 245.523 76.9432 246.028 77.1932 246.472C77.4432 246.911 77.7992 247.258 78.2614 247.511C78.7273 247.761 79.2841 247.886 79.9318 247.886C80.5795 247.886 81.1364 247.761 81.6023 247.511C82.0682 247.258 82.4242 246.911 82.6705 246.472C82.9205 246.028 83.0455 245.523 83.0455 244.955V237.364ZM93.6321 240.273C93.5639 239.697 93.2874 239.25 92.8026 238.932C92.3177 238.614 91.723 238.455 91.0185 238.455C90.5033 238.455 90.0526 238.538 89.6662 238.705C89.2836 238.871 88.9844 239.1 88.7685 239.392C88.5563 239.684 88.4503 240.015 88.4503 240.386C88.4503 240.697 88.5241 240.964 88.6719 241.188C88.8234 241.407 89.0166 241.591 89.2514 241.739C89.4863 241.883 89.7325 242.002 89.9901 242.097C90.2476 242.187 90.4844 242.261 90.7003 242.318L91.8821 242.636C92.1851 242.716 92.5223 242.826 92.8935 242.966C93.2685 243.106 93.6264 243.297 93.9673 243.54C94.312 243.778 94.5961 244.085 94.8196 244.46C95.0431 244.835 95.1548 245.295 95.1548 245.841C95.1548 246.47 94.9901 247.038 94.6605 247.545C94.3348 248.053 93.8575 248.456 93.2287 248.756C92.6037 249.055 91.8442 249.205 90.9503 249.205C90.117 249.205 89.3954 249.07 88.7855 248.801C88.1795 248.532 87.7022 248.157 87.3537 247.676C87.009 247.195 86.8139 246.636 86.7685 246H88.223C88.2609 246.439 88.4086 246.803 88.6662 247.091C88.9276 247.375 89.2571 247.587 89.6548 247.727C90.0563 247.864 90.4882 247.932 90.9503 247.932C91.4882 247.932 91.9711 247.845 92.3991 247.67C92.8272 247.492 93.1662 247.246 93.4162 246.932C93.6662 246.614 93.7912 246.242 93.7912 245.818C93.7912 245.432 93.6832 245.117 93.4673 244.875C93.2514 244.633 92.9673 244.436 92.6151 244.284C92.2628 244.133 91.8821 244 91.473 243.886L90.0412 243.477C89.1321 243.216 88.4124 242.843 87.8821 242.358C87.3518 241.873 87.0866 241.239 87.0866 240.455C87.0866 239.803 87.2628 239.235 87.6151 238.75C87.9711 238.261 88.4484 237.883 89.0469 237.614C89.6491 237.341 90.3215 237.205 91.0639 237.205C91.8139 237.205 92.4806 237.339 93.0639 237.608C93.6473 237.873 94.1094 238.237 94.4503 238.699C94.795 239.161 94.9768 239.686 94.9957 240.273H93.6321ZM105.108 237.364H106.517V245.068C106.517 245.864 106.33 246.574 105.955 247.199C105.583 247.82 105.059 248.311 104.381 248.67C103.703 249.027 102.907 249.205 101.994 249.205C101.081 249.205 100.286 249.027 99.608 248.67C98.9299 248.311 98.4034 247.82 98.0284 247.199C97.6572 246.574 97.4716 245.864 97.4716 245.068V237.364H98.8807V244.955C98.8807 245.523 99.0057 246.028 99.2557 246.472C99.5057 246.911 99.8617 247.258 100.324 247.511C100.79 247.761 101.347 247.886 101.994 247.886C102.642 247.886 103.199 247.761 103.665 247.511C104.131 247.258 104.487 246.911 104.733 246.472C104.983 246.028 105.108 245.523 105.108 244.955V237.364ZM109.808 249H108.331L112.604 237.364H114.058L118.331 249H116.854L113.376 239.205H113.286L109.808 249ZM110.354 244.455H116.308V245.705H110.354V244.455ZM120.143 249V237.364H124.075C124.984 237.364 125.731 237.519 126.314 237.83C126.897 238.136 127.329 238.559 127.609 239.097C127.89 239.634 128.03 240.246 128.03 240.932C128.03 241.617 127.89 242.225 127.609 242.756C127.329 243.286 126.899 243.703 126.32 244.006C125.74 244.305 125 244.455 124.098 244.455H120.916V243.182H124.053C124.674 243.182 125.174 243.091 125.553 242.909C125.935 242.727 126.212 242.47 126.382 242.136C126.556 241.799 126.643 241.398 126.643 240.932C126.643 240.466 126.556 240.059 126.382 239.71C126.208 239.362 125.929 239.093 125.547 238.903C125.164 238.71 124.659 238.614 124.03 238.614H121.553V249H120.143ZM125.621 243.773L128.484 249H126.848L124.03 243.773H125.621ZM131.787 237.364V249H130.378V237.364H131.787ZM144.43 243.182C144.43 244.409 144.209 245.47 143.766 246.364C143.322 247.258 142.714 247.947 141.942 248.432C141.169 248.917 140.286 249.159 139.294 249.159C138.302 249.159 137.419 248.917 136.646 248.432C135.874 247.947 135.266 247.258 134.822 246.364C134.379 245.47 134.158 244.409 134.158 243.182C134.158 241.955 134.379 240.894 134.822 240C135.266 239.106 135.874 238.417 136.646 237.932C137.419 237.447 138.302 237.205 139.294 237.205C140.286 237.205 141.169 237.447 141.942 237.932C142.714 238.417 143.322 239.106 143.766 240C144.209 240.894 144.43 241.955 144.43 243.182ZM143.067 243.182C143.067 242.174 142.898 241.324 142.561 240.631C142.228 239.938 141.775 239.413 141.203 239.057C140.635 238.701 139.999 238.523 139.294 238.523C138.589 238.523 137.951 238.701 137.379 239.057C136.811 239.413 136.358 239.938 136.021 240.631C135.688 241.324 135.521 242.174 135.521 243.182C135.521 244.189 135.688 245.04 136.021 245.733C136.358 246.426 136.811 246.951 137.379 247.307C137.951 247.663 138.589 247.841 139.294 247.841C139.999 247.841 140.635 247.663 141.203 247.307C141.775 246.951 142.228 246.426 142.561 245.733C142.898 245.04 143.067 244.189 143.067 243.182Z" fill="black"/>
</svg>
