<svg width="220" height="263" viewBox="0 0 220 263" fill="none" xmlns="http://www.w3.org/2000/svg">
<rect width="220" height="263" fill="#F9F5F5"/>
<circle cx="110" cy="110" r="99.5" fill="white" stroke="black"/>
<path d="M57.5833 162C57.5833 162 47 162 47 151.417C47 140.833 57.5833 109.083 110.5 109.083C163.417 109.083 174 140.833 174 151.417C174 162 163.417 162 163.417 162H57.5833ZM110.5 98.5C118.921 98.5 126.996 95.1549 132.951 89.2006C138.905 83.2464 142.25 75.1706 142.25 66.75C142.25 58.3294 138.905 50.2536 132.951 44.2994C126.996 38.3451 118.921 35 110.5 35C102.079 35 94.0036 38.3451 88.0494 44.2994C82.0951 50.2536 78.75 58.3294 78.75 66.75C78.75 75.1706 82.0951 83.2464 88.0494 89.2006C94.0036 95.1549 102.079 98.5 110.5 98.5Z" fill="#8BE1D1"/>
<path d="M34.7216 249V237.364H38.6534C39.5663 237.364 40.3125 237.528 40.892 237.858C41.4754 238.184 41.9072 238.625 42.1875 239.182C42.4678 239.739 42.608 240.36 42.608 241.045C42.608 241.731 42.4678 242.354 42.1875 242.915C41.911 243.475 41.483 243.922 40.9034 244.256C40.3239 244.585 39.5814 244.75 38.6761 244.75H35.858V243.5H38.6307C39.2557 243.5 39.7576 243.392 40.1364 243.176C40.5152 242.96 40.7898 242.669 40.9602 242.301C41.1345 241.93 41.2216 241.511 41.2216 241.045C41.2216 240.58 41.1345 240.163 40.9602 239.795C40.7898 239.428 40.5133 239.14 40.1307 238.932C39.7481 238.72 39.2405 238.614 38.608 238.614H36.1307V249H34.7216ZM44.8778 249V237.364H51.9006V238.614H46.2869V242.545H51.5369V243.795H46.2869V247.75H51.9915V249H44.8778ZM54.4403 249V237.364H58.3722C59.2813 237.364 60.0275 237.519 60.6108 237.83C61.1941 238.136 61.6259 238.559 61.9062 239.097C62.1866 239.634 62.3267 240.246 62.3267 240.932C62.3267 241.617 62.1866 242.225 61.9062 242.756C61.6259 243.286 61.196 243.703 60.6165 244.006C60.0369 244.305 59.2964 244.455 58.3949 244.455H55.2131V243.182H58.3494C58.9706 243.182 59.4706 243.091 59.8494 242.909C60.232 242.727 60.5085 242.47 60.679 242.136C60.8532 241.799 60.9403 241.398 60.9403 240.932C60.9403 240.466 60.8532 240.059 60.679 239.71C60.5047 239.362 60.2263 239.093 59.8438 238.903C59.4612 238.71 58.9555 238.614 58.3267 238.614H55.8494V249H54.4403ZM59.9176 243.773L62.7812 249H61.1449L58.3267 243.773H59.9176ZM71.0384 240.273C70.9702 239.697 70.6937 239.25 70.2088 238.932C69.724 238.614 69.1293 238.455 68.4247 238.455C67.9096 238.455 67.4588 238.538 67.0724 238.705C66.6899 238.871 66.3906 239.1 66.1747 239.392C65.9626 239.684 65.8565 240.015 65.8565 240.386C65.8565 240.697 65.9304 240.964 66.0781 241.188C66.2296 241.407 66.4228 241.591 66.6577 241.739C66.8925 241.883 67.1387 242.002 67.3963 242.097C67.6539 242.187 67.8906 242.261 68.1065 242.318L69.2884 242.636C69.5914 242.716 69.9285 242.826 70.2997 242.966C70.6747 243.106 71.0327 243.297 71.3736 243.54C71.7183 243.778 72.0024 244.085 72.2259 244.46C72.4493 244.835 72.5611 245.295 72.5611 245.841C72.5611 246.47 72.3963 247.038 72.0668 247.545C71.741 248.053 71.2637 248.456 70.6349 248.756C70.0099 249.055 69.2505 249.205 68.3565 249.205C67.5232 249.205 66.8016 249.07 66.1918 248.801C65.5857 248.532 65.1084 248.157 64.7599 247.676C64.4152 247.195 64.2202 246.636 64.1747 246H65.6293C65.6671 246.439 65.8149 246.803 66.0724 247.091C66.3338 247.375 66.6634 247.587 67.0611 247.727C67.4626 247.864 67.8944 247.932 68.3565 247.932C68.8944 247.932 69.3774 247.845 69.8054 247.67C70.2334 247.492 70.5724 247.246 70.8224 246.932C71.0724 246.614 71.1974 246.242 71.1974 245.818C71.1974 245.432 71.0895 245.117 70.8736 244.875C70.6577 244.633 70.3736 244.436 70.0213 244.284C69.669 244.133 69.2884 244 68.8793 243.886L67.4474 243.477C66.5384 243.216 65.8187 242.843 65.2884 242.358C64.758 241.873 64.4929 241.239 64.4929 240.455C64.4929 239.803 64.669 239.235 65.0213 238.75C65.3774 238.261 65.8546 237.883 66.4531 237.614C67.0554 237.341 67.7277 237.205 68.4702 237.205C69.2202 237.205 69.8868 237.339 70.4702 237.608C71.0535 237.873 71.5156 238.237 71.8565 238.699C72.2012 239.161 72.383 239.686 72.402 240.273H71.0384ZM84.696 243.182C84.696 244.409 84.4744 245.47 84.0312 246.364C83.5881 247.258 82.9801 247.947 82.2074 248.432C81.4347 248.917 80.5521 249.159 79.5597 249.159C78.5672 249.159 77.6847 248.917 76.9119 248.432C76.1392 247.947 75.5313 247.258 75.0881 246.364C74.6449 245.47 74.4233 244.409 74.4233 243.182C74.4233 241.955 74.6449 240.894 75.0881 240C75.5313 239.106 76.1392 238.417 76.9119 237.932C77.6847 237.447 78.5672 237.205 79.5597 237.205C80.5521 237.205 81.4347 237.447 82.2074 237.932C82.9801 238.417 83.5881 239.106 84.0312 240C84.4744 240.894 84.696 241.955 84.696 243.182ZM83.3324 243.182C83.3324 242.174 83.1638 241.324 82.8267 240.631C82.4934 239.938 82.0407 239.413 81.4688 239.057C80.9006 238.701 80.2642 238.523 79.5597 238.523C78.8551 238.523 78.2169 238.701 77.6449 239.057C77.0767 239.413 76.6241 239.938 76.2869 240.631C75.9536 241.324 75.7869 242.174 75.7869 243.182C75.7869 244.189 75.9536 245.04 76.2869 245.733C76.6241 246.426 77.0767 246.951 77.6449 247.307C78.2169 247.663 78.8551 247.841 79.5597 247.841C80.2642 247.841 80.9006 247.663 81.4688 247.307C82.0407 246.951 82.4934 246.426 82.8267 245.733C83.1638 245.04 83.3324 244.189 83.3324 243.182ZM96.2926 237.364V249H94.929L88.5881 239.864H88.4744V249H87.0653V237.364H88.429L94.7926 246.523H94.9062V237.364H96.2926ZM99.5895 249H98.1122L102.385 237.364H103.839L108.112 249H106.635L103.158 239.205H103.067L99.5895 249ZM100.135 244.455H106.089V245.705H100.135V244.455ZM123.652 237.364V249H122.288L115.947 239.864H115.834V249H114.425V237.364H115.788L122.152 246.523H122.266V237.364H123.652ZM126.949 249H125.472L129.744 237.364H131.199L135.472 249H133.994L130.517 239.205H130.426L126.949 249ZM127.494 244.455H133.449V245.705H127.494V244.455ZM135.288 238.614V237.364H144.016V238.614H140.357V249H138.947V238.614H135.288ZM153.827 237.364H155.236V245.068C155.236 245.864 155.048 246.574 154.673 247.199C154.302 247.82 153.777 248.311 153.099 248.67C152.421 249.027 151.626 249.205 150.713 249.205C149.8 249.205 149.005 249.027 148.327 248.67C147.649 248.311 147.122 247.82 146.747 247.199C146.376 246.574 146.19 245.864 146.19 245.068V237.364H147.599V244.955C147.599 245.523 147.724 246.028 147.974 246.472C148.224 246.911 148.58 247.258 149.043 247.511C149.509 247.761 150.065 247.886 150.713 247.886C151.361 247.886 151.918 247.761 152.384 247.511C152.849 247.258 153.205 246.911 153.452 246.472C153.702 246.028 153.827 245.523 153.827 244.955V237.364ZM158.05 249V237.364H161.982C162.891 237.364 163.637 237.519 164.22 237.83C164.804 238.136 165.235 238.559 165.516 239.097C165.796 239.634 165.936 240.246 165.936 240.932C165.936 241.617 165.796 242.225 165.516 242.756C165.235 243.286 164.805 243.703 164.226 244.006C163.646 244.305 162.906 244.455 162.004 244.455H158.822V243.182H161.959C162.58 243.182 163.08 243.091 163.459 242.909C163.841 242.727 164.118 242.47 164.288 242.136C164.463 241.799 164.55 241.398 164.55 240.932C164.55 240.466 164.463 240.059 164.288 239.71C164.114 239.362 163.836 239.093 163.453 238.903C163.071 238.71 162.565 238.614 161.936 238.614H159.459V249H158.05ZM163.527 243.773L166.391 249H164.754L161.936 243.773H163.527ZM168.761 249H167.284L171.557 237.364H173.011L177.284 249H175.807L172.33 239.205H172.239L168.761 249ZM169.307 244.455H175.261V245.705H169.307V244.455ZM179.097 249V237.364H180.506V247.75H185.915V249H179.097Z" fill="black"/>
</svg>
